<svg xmlns="http://www.w3.org/2000/svg" width="135.435" height="110" viewBox="0 0 135.435 110"><defs><style>.cls-1{fill:#fff;}</style></defs><title>logo_1</title><g id="Layer_2" data-name="Layer 2"><g id="Layer_1-2" data-name="Layer 1"><path class="cls-1" d="M11.345,80.682c-.124.165-.24.314-.345.441a3.2,3.2,0,0,0-.66,2.4,9.19,9.19,0,0,1-1.777.093l-.622-.062c-3.958-.581-4.48-4.547-3.842-7.25.906-3.84,4.055-6.515,5.867-8.844A8.188,8.188,0,0,0,12.08,61.81c.017-3.663-3.426-3.293-4.429-2.487a13.066,13.066,0,0,1-3.143,2.254,3.289,3.289,0,0,1-2.739-.026,2.658,2.658,0,0,1-.561-4.185c-.172,1.553.345,2.33,1.079,2.459s1.122-.82,1.466-1.9C2.114,57.5,1.3,55.942,2.071,54.82c.82,1.381,1.639,1.6,2.8,1.122C2,54.13,2.927,52.506,3.439,51.79a2.689,2.689,0,0,1,1.911-.852c-.389.647-.519,2.25.733,2.459a19.988,19.988,0,0,1,2.459.755A10.6,10.6,0,0,1,13.719,58.7c1.165,2.33,1.165,5.609-1.164,8.974s-3.495,4.186-4.961,6.6-1.8,5.559.646,6.429A6.659,6.659,0,0,0,11.345,80.682Z"/><path class="cls-1" d="M28.947,96.363a2.8,2.8,0,0,0-.171,2.593,4.1,4.1,0,0,1,1.985-2.028,2.173,2.173,0,0,1-.216,1.726,1.929,1.929,0,0,0,1.51-1.122c-.389,3.236,1.6,3.365,2.373,3.193a2.716,2.716,0,0,1,.474,1.51,1.7,1.7,0,0,0,.82-2.157s.258-.345.432-.561a2.2,2.2,0,0,0,1.509.345,2.842,2.842,0,0,1,.388,1.726A3.9,3.9,0,0,0,39.3,99.43a1.884,1.884,0,0,0,.69-1.854c1.079-.259,1.639.906,2.2,1.552a4.7,4.7,0,0,0-1.208-3.753c-1.165-1.035-4.1.044-5.566.172s-2.545-.949-3.106-2.631a5.762,5.762,0,0,1,2.243-2.071c.82-.258,1.769-1.985,2.114-3.408.823-3.9-1.487-6.982-2.459-8.154a6.33,6.33,0,0,0-4.314-2.2c-2.545-.345-5.35.3-6.687-.345a1.11,1.11,0,0,1-.581-.589,2.466,2.466,0,0,0-.865,1.367,2.125,2.125,0,0,0-.044.44,4.117,4.117,0,0,0,.809,2.2,6.739,6.739,0,0,1,.527.961,9.319,9.319,0,0,1,3.778,2.436c.95,1.074.431,1.812-.993,2.761A3.142,3.142,0,0,1,28.431,88c-.968.569-3.691,2.839-2.33,4.142C24.592,93.563,25.671,95.115,28.947,96.363Z"/><path class="cls-1" d="M40.511,73.545c.733-.431,2.459-1.639,2.5-2.977a14.245,14.245,0,0,0-1.725.087c-.173-.475-.691-1.294-2.589-.906a3.249,3.249,0,0,0,1.078-2.071c-1.682.517-1.035-.906-2.847.043a3.487,3.487,0,0,0,.474-2.848c-.172-.69.087-1.209.648-.949a1.245,1.245,0,0,0-.684-1.569,3.43,3.43,0,0,1-.592-.151c-.02,0-.04-.005-.062-.006l.006-.014a4.841,4.841,0,0,1-.991-.5,8.1,8.1,0,0,1-.243.946l-.527,1.645-.967-1.432c-.9-1.327-1.356-1.3-2.115-1.255a3.888,3.888,0,0,1-1.5-.136,7.471,7.471,0,0,1-.81,3.036l-.27.451a33.347,33.347,0,0,0,4.271,5.2c.086,1.294,1.7,2.61,2.287,3.02.992.69-.025,2.012.086,2.588.216,1.122,1.639,1.338,2.718,2.546.086-.345.518-2.416-.13-3.452,1.381,1.64,2.589,2.761,4.142-.216a9.686,9.686,0,0,0-1.769.13A6.31,6.31,0,0,1,40.511,73.545Z"/><path class="cls-1" d="M36.728,44.685l-.342,3.595a3.08,3.08,0,0,1-2.021,2.939,7.581,7.581,0,0,1,2.959,2.816,4.17,4.17,0,0,1,.277.64,5.741,5.741,0,0,0,1.2-3.043,1.321,1.321,0,0,0,1.587-1.5c-.593.169-.769-.382-.491-1.038a3.5,3.5,0,0,0-.029-2.886c1.643,1.218,1.223-.289,2.806.483a3.248,3.248,0,0,0-.746-2.213c1.816.678,2.453-.053,2.7-.495a14.19,14.19,0,0,0,1.691.352c.165-1.328-1.354-2.788-2.011-3.328a5,5,0,0,0-4.664-.336A4.441,4.441,0,0,0,36.728,44.685Z"/><path class="cls-1" d="M19.078,93.559a8.77,8.77,0,0,0,2.534-4.134c.58-2,2.029-5.616.218-8.8-1.966-3.465,0-5,.863-5.565.984-.639,3.313-1.879,5.392-3.063a28.862,28.862,0,0,0,3.671-2.517,43.635,43.635,0,0,1-3.148-4.054l-.316-.447.12-.2-.046-.033a4.447,4.447,0,0,1-1.672-2.078,7.869,7.869,0,0,1-1.557,1.229l-1.075.7-.212-1.269a2.787,2.787,0,0,0-.319-.817,3.449,3.449,0,0,1-1.164,1.358,2.954,2.954,0,0,1-1.818.508c-.771,1.751-1.737,3.44-2.3,5.027-.733,2.07-1.553,5.177-2.674,6.687s-2.934,4.357-3.926,5.565-.13,2.718-.346,3.495-1.208,1.726-2.588,0a2.293,2.293,0,0,0,1.553,2.329,1.591,1.591,0,0,1-1.812-.647c-.474.561-1.663,2.086-1.137,3.216-2.286.3-3.263,2.392-3.263,4.507-.949.345-1.252.906-1.208,1.38s1.2.679.862,1.295c-.474.862-2.372.906-2.588-1.381A2.417,2.417,0,0,0,2.33,99.258c-1.208,0-.734,1.036-.216,1.381-.258.561-.129,1.553.432,1.553A2.148,2.148,0,0,1,0,102.623a1.867,1.867,0,0,0,2.373,1.51c-.259,1.683.734,2.934,1.855,2.5a1.123,1.123,0,0,0,1.6,1.078,2.321,2.321,0,0,0,3.279.733c.345.216.82.173,1.122.432.13-.432.474-.82.216-1.424.776.6,1.553.949,1.855,1.294a5.39,5.39,0,0,0-.345-1.941,8.306,8.306,0,0,1,2.071,1.208,3.251,3.251,0,0,0-.432-1.9,7.436,7.436,0,0,1,1.9.215c-.819-1.121-1.121-1.639-1.553-1.811a2.5,2.5,0,0,0-2.5-1.942,3.3,3.3,0,0,0-1.682.561c-.216.13-.777-.086-1.122-.388A6.3,6.3,0,0,0,6.946,101.5a1.725,1.725,0,0,1-.863-1.9c.345-.906,1.985-.647,1.553.82.734.086,1.6-1.209,1.338-3.84C10.786,96.929,17.1,95.347,19.078,93.559Z"/><path class="cls-1" d="M36.93,58.876c-.388-1.208.561-2.761-.345-4.443A8.409,8.409,0,0,0,31.322,50.9c3.106-.13,4.1-.863,4.228-2.675-2.373,2.33-2.718-.518-4.272.647.949-.863,1.51-1.984-.086-3.192.13.949-.216,1.9-1.553,1.812a6.39,6.39,0,0,0-3.745.819c-1.424.734-2.761.237-3.02-.842-.194-.806.177-1.92,1.2-1.92s1.164.734,2.07.432,1.5-.215,1.759.174a2.191,2.191,0,0,0-.2-2.417c-1.165.388-4.424-1.261-5.956-.291a2.636,2.636,0,0,0,.235-2c2.89-1.337,5.486-1.852,6.288-1.669.26.044.9-2.509-.136-2.639-1.706-.213-1.726-.345-2.718-1.553a2.952,2.952,0,0,0-2.373-1.122c-.647.043-1.769-1.509-4.487-.517a1.594,1.594,0,0,1,.527-1.962,3.738,3.738,0,0,0-2.769,1.677,2.168,2.168,0,0,1,.507-1.95,4.152,4.152,0,0,0-2.8,2.4c-.518-1.035-.949-1.683-.733-2.286-1.295.216-1.9,1.553-1.295,3.365-1.769-1.251-2.083-.353-3.464.078a3.427,3.427,0,0,1,1.51,1.941,3.657,3.657,0,0,0-2.546-.043c.432.561,1.3,2.114,2.244,1.682-.82.648-1.812,1.252-2.934.346A2.34,2.34,0,0,0,8.871,41.13l-.089.013c-1.973.712-.975,4.68.7,3.995-.086,1.726-.043,2.977-1.035,2.33A2.589,2.589,0,0,1,7.283,46.13s.6,3.279,2.718,3.323c-1.725.733-.776,1.941-.388,3.365.6-1.643,2.443-.975,2.373-1.812a2.283,2.283,0,0,1-.006,2.071,1.976,1.976,0,0,0,1.521-.625c.039.586.351,1.288-.039,1.756.819-.313,1.363-.023,1.84-.564a.982.982,0,0,0,.716,1.04c-.032,0-1.724.417-1.756.412a2.871,2.871,0,0,0,3.34,1.321c-.949,1.337-.217,2.6,1.6,4.012,1.164.906,1.214,1.3.992,1.553-.3.345-.863.216-1.337-.647-.777,1.985,1.857,2.7,3.019,1.855a2.333,2.333,0,0,0,1.079-2.243c.776-.043,1.6,1.467,1.726,2.243,1.25-.819,2.114-1.423,2.243-3.321.3,1.984.5,3.192,1.924,4.184a6.527,6.527,0,0,0,.535-4.271c2.114,2.287,3.15-.6,5.307,2.589a3.723,3.723,0,0,0,.086-2.718c1.423,1.9,4.056,2.89,4.573.474A1.9,1.9,0,0,1,36.93,58.876ZM20.8,36.043a2.624,2.624,0,0,1,2.536.531c.253.169.257.511.089.578a5.14,5.14,0,0,1-1.159.176,7.274,7.274,0,0,1-1.477.015,5.836,5.836,0,0,1-1.28-.263A4.552,4.552,0,0,1,20.8,36.043Z"/><path class="cls-1" d="M124.09,80.682c.124.165.24.314.345.441a3.2,3.2,0,0,1,.66,2.4,9.19,9.19,0,0,0,1.777.093l.622-.062c3.957-.581,4.48-4.547,3.843-7.25-.906-3.84-4.056-6.515-5.868-8.844a8.2,8.2,0,0,1-2.114-5.652c-.017-3.663,3.426-3.293,4.429-2.487a13.071,13.071,0,0,0,3.144,2.254,3.287,3.287,0,0,0,2.738-.026,2.658,2.658,0,0,0,.561-4.185c.173,1.553-.345,2.33-1.078,2.459s-1.122-.82-1.467-1.9c1.639-.43,2.458-1.984,1.682-3.106-.819,1.381-1.639,1.6-2.8,1.122,2.88-1.812,1.948-3.436,1.436-4.152a2.685,2.685,0,0,0-1.91-.852c.388.647.518,2.25-.734,2.459a19.988,19.988,0,0,0-2.459.755,10.6,10.6,0,0,0-5.177,4.551c-1.165,2.33-1.165,5.609,1.164,8.974s3.5,4.186,4.962,6.6,1.8,5.559-.647,6.429A6.659,6.659,0,0,1,124.09,80.682Z"/><path class="cls-1" d="M106.489,96.363a2.8,2.8,0,0,1,.17,2.593,4.1,4.1,0,0,0-1.985-2.028,2.173,2.173,0,0,0,.216,1.726,1.928,1.928,0,0,1-1.509-1.122c.388,3.236-1.6,3.365-2.373,3.193a2.715,2.715,0,0,0-.476,1.51,1.7,1.7,0,0,1-.819-2.157s-.258-.345-.431-.561a2.206,2.206,0,0,1-1.51.345,2.842,2.842,0,0,0-.388,1.726,3.9,3.9,0,0,1-1.252-2.158,1.886,1.886,0,0,1-.69-1.854c-1.078-.259-1.639.906-2.2,1.552a4.689,4.689,0,0,1,1.208-3.753c1.165-1.035,4.1.044,5.565.172s2.546-.949,3.106-2.631a5.762,5.762,0,0,0-2.243-2.071c-.82-.258-1.769-1.985-2.114-3.408-.823-3.9,1.487-6.982,2.459-8.154a6.33,6.33,0,0,1,4.314-2.2c2.546-.345,5.35.3,6.687-.345a1.112,1.112,0,0,0,.582-.589,2.464,2.464,0,0,1,.864,1.367,2.125,2.125,0,0,1,.045.44,4.126,4.126,0,0,1-.809,2.2,6.649,6.649,0,0,0-.528.961,9.319,9.319,0,0,0-3.778,2.436c-.95,1.074-.431,1.812.993,2.761A3.142,3.142,0,0,0,107,88c.968.569,3.691,2.839,2.33,4.142C110.844,93.563,109.765,95.115,106.489,96.363Z"/><path class="cls-1" d="M94.924,73.545c-.733-.431-2.459-1.639-2.5-2.977a14.279,14.279,0,0,1,1.726.087c.172-.475.69-1.294,2.589-.906a3.246,3.246,0,0,1-1.079-2.071c1.683.517,1.035-.906,2.847.043a3.5,3.5,0,0,1-.474-2.848c.172-.69-.086-1.209-.648-.949a1.246,1.246,0,0,1,.684-1.569,3.43,3.43,0,0,0,.592-.151c.021,0,.041-.005.062-.006l-.006-.014a4.816,4.816,0,0,0,.991-.5,8.1,8.1,0,0,0,.243.946l.527,1.645.968-1.432c.9-1.327,1.355-1.3,2.114-1.255a3.891,3.891,0,0,0,1.5-.136,7.489,7.489,0,0,0,.808,3.036l.272.451a33.411,33.411,0,0,1-4.272,5.2c-.086,1.294-1.7,2.61-2.286,3.02-.993.69.024,2.012-.086,2.588-.216,1.122-1.64,1.338-2.719,2.546-.086-.345-.518-2.416.13-3.452-1.381,1.64-2.589,2.761-4.142-.216a9.671,9.671,0,0,1,1.769.13A6.23,6.23,0,0,0,94.924,73.545Z"/><path class="cls-1" d="M98.708,44.685l.341,3.595a3.082,3.082,0,0,0,2.021,2.939,7.578,7.578,0,0,0-2.958,2.816,4.178,4.178,0,0,0-.278.64,5.741,5.741,0,0,1-1.2-3.043,1.321,1.321,0,0,1-1.587-1.5c.593.169.77-.382.492-1.038a3.494,3.494,0,0,1,.029-2.886c-1.643,1.218-1.224-.289-2.807.483a3.248,3.248,0,0,1,.746-2.213c-1.816.678-2.453-.053-2.7-.495a14.1,14.1,0,0,1-1.691.352c-.164-1.328,1.354-2.788,2.012-3.328a5,5,0,0,1,4.664-.336A4.443,4.443,0,0,1,98.708,44.685Z"/><path class="cls-1" d="M116.358,93.559a8.773,8.773,0,0,1-2.535-4.134c-.58-2-2.028-5.616-.218-8.8,1.967-3.465,0-5-.863-5.565-.984-.639-3.313-1.879-5.392-3.063a28.785,28.785,0,0,1-3.67-2.517,43.628,43.628,0,0,0,3.147-4.054l.316-.447-.119-.2.046-.033a4.445,4.445,0,0,0,1.671-2.078,7.9,7.9,0,0,0,1.557,1.229l1.075.7.212-1.269a2.792,2.792,0,0,1,.32-.817,3.441,3.441,0,0,0,1.164,1.358,2.953,2.953,0,0,0,1.817.508c.771,1.751,1.738,3.44,2.3,5.027.734,2.07,1.553,5.177,2.675,6.687s2.933,4.357,3.925,5.565.13,2.718.346,3.495,1.208,1.726,2.588,0a2.293,2.293,0,0,1-1.553,2.329,1.591,1.591,0,0,0,1.812-.647c.474.561,1.663,2.086,1.137,3.216,2.287.3,3.263,2.392,3.263,4.507.95.345,1.252.906,1.209,1.38s-1.2.679-.863,1.295c.474.862,2.372.906,2.588-1.381a2.416,2.416,0,0,1-1.208,3.408c1.208,0,.734,1.036.216,1.381.259.561.13,1.553-.432,1.553a2.149,2.149,0,0,0,2.546.431,1.866,1.866,0,0,1-2.372,1.51c.258,1.683-.734,2.934-1.856,2.5a1.123,1.123,0,0,1-1.6,1.078,2.321,2.321,0,0,1-3.279.733c-.345.216-.82.173-1.122.432-.129-.432-.474-.82-.215-1.424-.777.6-1.553.949-1.856,1.294a5.39,5.39,0,0,1,.345-1.941,8.274,8.274,0,0,0-2.07,1.208,3.25,3.25,0,0,1,.431-1.9,7.442,7.442,0,0,0-1.9.215c.82-1.121,1.122-1.639,1.553-1.811a2.5,2.5,0,0,1,2.5-1.942,3.308,3.308,0,0,1,1.683.561c.216.13.776-.086,1.122-.388a6.292,6.292,0,0,1,1.682-1.251,1.724,1.724,0,0,0,.863-1.9c-.345-.906-1.985-.647-1.553.82-.734.086-1.6-1.209-1.338-3.84C124.65,96.929,118.338,95.347,116.358,93.559Z"/><path class="cls-1" d="M96.089,60.127c.518,2.416,3.15,1.424,4.573-.474a3.728,3.728,0,0,0,.086,2.718c2.157-3.193,3.193-.3,5.307-2.589a6.534,6.534,0,0,0,.535,4.271c1.424-.992,1.623-2.2,1.924-4.184.129,1.9.993,2.5,2.243,3.321.13-.776.95-2.286,1.726-2.243a2.335,2.335,0,0,0,1.079,2.243c1.162.845,3.8.13,3.02-1.855-.475.863-1.036.992-1.337.647-.223-.253-.174-.647.991-1.553,1.814-1.41,2.546-2.675,1.6-4.012a2.872,2.872,0,0,0,3.341-1.321c-.032.005-1.725-.417-1.757-.412a.982.982,0,0,0,.716-1.04c.478.541,1.021.251,1.841.564-.391-.468-.079-1.17-.039-1.756a1.976,1.976,0,0,0,1.521.625,2.277,2.277,0,0,1-.006-2.071c-.07.837,1.771.169,2.373,1.812.388-1.424,1.336-2.632-.389-3.365,2.114-.044,2.718-3.323,2.718-3.323a2.582,2.582,0,0,1-1.165,1.338c-.992.647-.949-.6-1.035-2.33,1.676.685,2.674-3.283.7-3.995l-.089-.013a2.34,2.34,0,0,0,2.071-1.941c-1.122.906-2.114.3-2.934-.346.95.432,1.812-1.121,2.244-1.682a3.657,3.657,0,0,0-2.546.043,3.427,3.427,0,0,1,1.51-1.941c-1.38-.431-1.7-1.329-3.464-.078.6-1.812,0-3.149-1.294-3.365.216.6-.216,1.251-.733,2.286a4.153,4.153,0,0,0-2.8-2.4,2.165,2.165,0,0,1,.507,1.95,3.736,3.736,0,0,0-2.768-1.677,1.594,1.594,0,0,1,.526,1.962c-2.718-.992-3.84.56-4.487.517a2.952,2.952,0,0,0-2.373,1.122c-.992,1.208-1.012,1.34-2.718,1.553-1.036.13-.395,2.683-.135,2.639.8-.183,3.4.332,6.288,1.669a2.632,2.632,0,0,0,.234,2c-1.532-.97-4.79.679-5.955.291a2.187,2.187,0,0,0-.206,2.417c.259-.389.853-.476,1.759-.174s1.036-.432,2.071-.432,1.394,1.114,1.2,1.92c-.259,1.079-1.6,1.576-3.02.842a6.39,6.39,0,0,0-3.745-.819c-1.337.086-1.683-.863-1.553-1.812-1.6,1.208-1.036,2.329-.086,3.192-1.554-1.165-1.9,1.683-4.271-.647.129,1.812,1.121,2.545,4.227,2.675a8.407,8.407,0,0,0-5.262,3.538c-.906,1.682.042,3.235-.346,4.443A1.9,1.9,0,0,1,96.089,60.127Zm19.84-23.047a5.825,5.825,0,0,1-1.28.263,7.275,7.275,0,0,1-1.477-.015,5.129,5.129,0,0,1-1.158-.176c-.169-.067-.165-.409.088-.578a2.625,2.625,0,0,1,2.536-.531A4.537,4.537,0,0,1,115.929,37.08Z"/><path class="cls-1" d="M27.8,42.743l.432.346a1.894,1.894,0,0,1,.39.445,5.338,5.338,0,0,1,.728.212c1.54.552,4.07.814,4.971-.844.74-1.36-.247-3-1.337-3.953s.035-1.681-.611-2.268-1.366.291-1.6,1.367a2.581,2.581,0,0,0,1.134,2.558c.814.727.7,2.587-.959,2.209a15.2,15.2,0,0,1-2.205-.949Z"/><path class="cls-1" d="M107.382,42.743l-.432.346a1.894,1.894,0,0,0-.39.445,5.338,5.338,0,0,0-.728.212c-1.54.552-4.07.814-4.971-.844-.74-1.36.247-3,1.337-3.953s-.034-1.681.611-2.268,1.366.291,1.6,1.367a2.581,2.581,0,0,1-1.134,2.558c-.814.727-.7,2.587.96,2.209a15.339,15.339,0,0,0,2.2-.949Z"/><path class="cls-1" d="M41.973,13.43c-3.666,1.049,5.939,2.019,3.61,3.475-1.7,1.06,2.913,2.99,4.773,4.4a7.828,7.828,0,0,0,1.4.078c-3.489-6.854-4.556-12.047-7.5-14.018-2.658-1.779-6.247.228-7.232,3.011C41.51,10.068,45.637,12.38,41.973,13.43Z"/><path class="cls-1" d="M50.158,38.2c1.3-1.1,1.075,1.223,1.107,2.181.025.758,3.566-.5,4.329,1.511.429-.141.855-.3,1.279-.465q1.022-.461,2.024-1c-.4-4.343-3.756-8.864-9.992-8.313,1.18,1.033,2.308,2.725,0,2.82s-1.713,2.181-2.969,3.426C47.733,38.732,48.861,39.3,50.158,38.2Z"/><path class="cls-1" d="M42.918,30.251c-.963.5-2.337.8-1.815-.712s-.97-1.654-1.454-2.777c-.694,1.064-1.341,1.647-.965,2.759s-1.059.382-1.683.16-.6,3.978-3.558,1.756c1.47-.182.724-1.383-.355-2.455a3.158,3.158,0,0,1-.233-3.735,6.545,6.545,0,0,0,3.223,2.839c-1.226-1.786-1.656-3.352-.427-5.044a3.771,3.771,0,0,1,2.759-1.274c1.7,0,7.764.743,10.5,3.491,2.823,2.832,3.933,1.133,4.718,1.975s-4.655,1.408-.794,2.238c3.929.845,7.764,4.475,10.667,7.979a39.894,39.894,0,0,0,3.6-3.1l.6-.579.6.579c.9.874,1.826,1.686,2.768,2.446,6.424-4.827,15.474-12.009,16.26-18.962C88.4,8.3,91.22,8.493,93.143,9.111a4.015,4.015,0,0,0-5.768-3.525,3.254,3.254,0,0,0-1.4,2.376c-1.615-1.906-2.55-4.548-1.717-6.328-1.49.017-4.628,2.357-1.974,8.27C79,7.24,76.105,9.146,74.769,12.376c1.719-.865,9.429,1.53,8.313,7.554-1.8-1.783-2.639-2.3-3.1-1.374s.233,5.708-.4,6.354-1.79-3.427-2.953-1.554-.5,5.031-2.369,6.178a1.235,1.235,0,0,1-1.5-.2c.91-2.586.492-5.091-1.231-5.987a2.77,2.77,0,0,0-3.446.552,4.329,4.329,0,0,1,1.772,3.658c-1.533-1.9-2.646-1.277-2.968-.747s-.095,1.614.406,2.96a2.243,2.243,0,0,1-.991,3.013c-.582-1.169-1.1-2.279-1.541-3.069-.95-1.692-2.259-1.057-3.827-2.587s-1.224-5.1-1.946-7.18-1.755,2.267-2.228,1.5,1.252-5.283,1.008-6.287-1.17-.683-3.323.66c.2-5.068,5.742-6.378,8.49-5.986-.056,2.063.157,3.627.862,4.246.783.688,2.879,1.127,4.381-2.687,1.032,2,.144,5.5-1,6.751a4.65,4.65,0,0,0,5.8-.845c3.186-3.173.886-10-5.05-14.036-5.071-3.447-11.1-2.185-13.956,2.327.45-2.006.463-3.8-.557-4.707a4.016,4.016,0,0,0-6.4,2.168c2.012-.179,4.807.252,3.76,9.793-.315,2.875.74,6.1,2.451,9.324C46.405,23.347,41.386,15.5,37.1,15.332c-4.495-.178-5.226,3.395-10.641,4.08a10.536,10.536,0,0,0,6.158,3.179l.174-.028c.18.02.359.034.539.04-4.288,2.061-4.453,4.9-3.737,6.956a4.351,4.351,0,0,1-.86,3.9,3.85,3.85,0,0,0,2.823-1.933C32.776,35.569,41,36.791,42.918,30.251Z"/><path class="cls-1" d="M79.5,41.845c.95-2.572,4.6-1.121,4.6-1.861.008-.958-.272-3.271,1.053-2.207s2.438.472,4.226.056c-1.285-1.214-.741-3.314-3.051-3.353s-1.225-1.757-.069-2.818c-6.291-.4-9.542,4.369-9.8,8.75A31.83,31.83,0,0,0,79.5,41.845Z"/><path class="cls-1" d="M95.641,52.362a10.822,10.822,0,0,0-.547-3.726c-.338-.938-.621-1.544-1.556-1.414-.819.113-1.42.349-1.525-1.035-.077-1.031-1.891-1.135-2.771-1.006l0,0-.861.135-.066-.526c-7.646-.537-14.644-4.048-20.6-9.827-5.956,5.779-12.954,9.29-20.6,9.827l-.065.526-.861-.135v0c-.88-.129-2.693-.025-2.771,1.006-.1,1.384-.706,1.148-1.525,1.035-.935-.13-1.217.476-1.556,1.414a10.8,10.8,0,0,0-.546,3.726q-.055,1.5-.058,3.014a82.716,82.716,0,0,0,.758,11.186A85.1,85.1,0,0,0,42.5,76.421C46.864,92.372,56.09,104.815,67.718,110c11.627-5.185,20.853-17.628,25.217-33.579a85.1,85.1,0,0,0,2-9.859A82.716,82.716,0,0,0,95.7,55.376Q95.7,53.86,95.641,52.362ZM56.7,78.326a10.177,10.177,0,1,1,8.993-14.98H63.484a8.335,8.335,0,0,0-6.838-3.592,8.4,8.4,0,0,0,.027,16.789,8.412,8.412,0,0,0,6.892-3.725h2.207A10.423,10.423,0,0,1,56.7,78.326Zm21.816,0a10.2,10.2,0,1,1-.027-20.381c5.215,0,8.541,3.592,9.312,5.587H85.513a8.186,8.186,0,0,0-7-3.8A8.411,8.411,0,1,0,78.6,76.543a8.339,8.339,0,0,0,7.955-5.826H80.088V68.934h8.831A10.345,10.345,0,0,1,78.516,78.326Z"/><path class="cls-1" d="M105.356,28.2c.482-2.128,0-4.926-4.49-6.5a4.136,4.136,0,0,0,2.674-1.33,5.72,5.72,0,0,1-3.808-.674,6.931,6.931,0,0,0-4.853-.471c-.94-1.748,3.972-2.723,8.683-1.314-.459-3.878-4.508-7.512-8.455-5.989-2.539.98-4.578,3.549-7.112,7.06-1.129,5.235-6.165,10.349-12.178,15.209,3.418-1.513,7.76-3.265,6.383-4.526-2.241-2.054,11-3.266,8.418-5.822-1.611-1.6,4.366-2.737,6.557-1.7a3.9,3.9,0,0,1,1.567,5.316,6.556,6.556,0,0,0,2.887-3.182,3.161,3.161,0,0,1,.187,3.737c-.955,1.186-1.561,2.464-.08,2.479C99.043,33.029,98.6,28.853,98,29.143s-1.941,1.176-1.691.029-.458-1.655-1.266-2.634c-.355,1.17-1.822,1.48-1.135,2.921s-.711,1.3-1.724.912c2.64,6.283,10.673,4.151,11.437-.006a3.849,3.849,0,0,0,3.021,1.607A4.352,4.352,0,0,1,105.356,28.2Z"/></g></g></svg>