<svg xmlns="http://www.w3.org/2000/svg" width="194" height="41.236" viewBox="0 0 194 41.236"><defs><style>.cls-1{fill:#fff;}</style></defs><title>logo</title><g id="Layer_2" data-name="Layer 2"><g id="Layer_1-2" data-name="Layer 1"><path class="cls-1" d="M166.77,18.04h8.76a4.61,4.61,0,0,0-1.332-3.026,4.317,4.317,0,0,0-3.119-1.088,4.045,4.045,0,0,0-3,1.183,4.582,4.582,0,0,0-1.306,2.931Zm9.41,5.335,3.472,3.05a9.64,9.64,0,0,1-8.342,4.5,8.9,8.9,0,0,1-6.9-2.919,11.057,11.057,0,0,1-2.658-7.758,11.071,11.071,0,0,1,2.658-7.743,8.672,8.672,0,0,1,6.7-2.9,8.514,8.514,0,0,1,6.652,2.919,11.233,11.233,0,0,1,2.612,7.758v1.49H166.809a5.466,5.466,0,0,0,1.275,3.564,4.118,4.118,0,0,0,3.18,1.244,4.471,4.471,0,0,0,2.842-.86,9.915,9.915,0,0,0,2.12-2.289Zm7.9-.23v-8.8h-3.119V10.155H184.2V5.2h4.685v4.952H194v4.19h-5.023v8.342a3.611,3.611,0,0,0,.537,2.249,2.78,2.78,0,0,0,2.182.645h1.643v4.763H191.25c-2.719,0-4.578-.569-5.592-1.713s-1.521-2.973-1.521-5.488m-133.392,7.2L46.3,10.155H51.13L53.8,23.643h.123l4.5-13.488h4.5L67.092,23.6h.076l3.025-13.449h4.76l-4.84,20.192H65.231L60.622,15.834h-.076L55.553,30.347Zm32.8-8.265a5.316,5.316,0,0,0-2.5,1.09,2.037,2.037,0,0,0-.59,1.429c0,1.383,1,2.059,2.98,2.059a5.514,5.514,0,0,0,3.364-.845A2.594,2.594,0,0,0,87.92,23.7V20.2h-.077a1.771,1.771,0,0,1-.323.476,4.982,4.982,0,0,1-1.167.584,22.644,22.644,0,0,1-2.827.854Zm4.993,8.265V28.405h-.077c-.049.072-.118.169-.19.283a4.146,4.146,0,0,1-.573.593,6.181,6.181,0,0,1-1.03.76,5.842,5.842,0,0,1-1.551.612,8.256,8.256,0,0,1-2.12.267c-2.443,0-4.271-.576-5.469-1.736a5.626,5.626,0,0,1-1.813-4.246,5.031,5.031,0,0,1,1.567-4,12.485,12.485,0,0,1,5.284-2.289,23.117,23.117,0,0,0,4.348-1.336,1.555,1.555,0,0,0,.876-1.413,1.789,1.789,0,0,0-.845-1.521,4.362,4.362,0,0,0-2.566-.615,3.919,3.919,0,0,0-2.888.891,5.982,5.982,0,0,0-1.367,2.412l-4.15-1.7a7.855,7.855,0,0,1,2.818-4.174,8.7,8.7,0,0,1,5.484-1.622,9.238,9.238,0,0,1,6.068,1.945c1.567,1.29,2.366,3.3,2.366,6.019V30.342H88.533Zm8.741-7.2v-8.8H94.146V10.155h3.242V5.2h4.685v4.952h5.1v4.19h-5.03v8.342a3.577,3.577,0,0,0,.538,2.249,2.738,2.738,0,0,0,2.166.645h1.64v4.763H104.4q-4.08,0-5.6-1.713c-1.029-1.142-1.536-2.973-1.536-5.488m15.823-5.1h8.757a4.721,4.721,0,0,0-1.337-3.026,4.365,4.365,0,0,0-3.118-1.088,4,4,0,0,0-3,1.183,4.6,4.6,0,0,0-1.321,2.931m9.4,5.335,3.489,3.048a9.637,9.637,0,0,1-8.342,4.5,8.918,8.918,0,0,1-6.9-2.918,11.03,11.03,0,0,1-2.662-7.758,11.077,11.077,0,0,1,2.642-7.743,8.645,8.645,0,0,1,6.69-2.916,8.512,8.512,0,0,1,6.643,2.914,11.168,11.168,0,0,1,2.612,7.743v1.49H113.079a5.385,5.385,0,0,0,1.275,3.564,4.178,4.178,0,0,0,3.18,1.229,4.566,4.566,0,0,0,2.837-.86,9.82,9.82,0,0,0,2.116-2.3m6.8,6.959V10.155h4.685V12.29h.077a4.371,4.371,0,0,1,1.69-1.828,4.643,4.643,0,0,1,2.458-.687,4.5,4.5,0,0,1,1.828.38l-.764,4.8a4.54,4.54,0,0,0-1.567-.307q-3.464,0-3.461,4.609V30.347h-4.946Zm12.584,0V10.155h4.763V12.1h.077a6.54,6.54,0,0,1,2.276-1.791,6.739,6.739,0,0,1,3.042-.725,6.923,6.923,0,0,1,5.254,2,7.76,7.76,0,0,1,1.905,5.546V30.358h-4.962v-12a5.171,5.171,0,0,0-.8-3.134,3.288,3.288,0,0,0-2.75-1.045,3.585,3.585,0,0,0-3.887,3.856V30.388h-4.946ZM40.754,15.438l-.123-.569-.107.569a18,18,0,0,1-3.437,7.5,18.1,18.1,0,0,1-14.241,7.282c-4.946,0-8.873-2.319-10-5.9l-.157-.507-.077.507a17.41,17.41,0,0,0,.4,6.575,12.143,12.143,0,0,0,5.669,8.265,11.022,11.022,0,0,0,5.506,1.383A16.592,16.592,0,0,0,35.06,36.023a19.981,19.981,0,0,0,6.313-12.274,23.428,23.428,0,0,0-.6-8.357"/><path class="cls-1" d="M11.706,5.566a20.873,20.873,0,0,1,2.553.164,18.452,18.452,0,0,1,9.31,3.922,16.736,16.736,0,0,1,5.192,7.062c1.341,3.641.911,7.036-1.177,9.318l-.353.38.485-.184A17.136,17.136,0,0,0,33.21,22.6a12.082,12.082,0,0,0,4.327-9.034A12.648,12.648,0,0,0,32.529,4.1,18.666,18.666,0,0,0,20.716,0a20.267,20.267,0,0,0-7.85,1.6A23.728,23.728,0,0,0,5.922,6.3l-.418.39L6.057,6.5a16.987,16.987,0,0,1,5.653-.922"/><path class="cls-1" d="M10.762,34.141a18.519,18.519,0,0,1-1.376-9.125,17.168,17.168,0,0,1,2.7-7.663c2.109-3.175,5.122-5.069,8.068-5.069a7.1,7.1,0,0,1,1.53.163l.523.113-.4-.327A17.235,17.235,0,0,0,15.92,9.291a14.767,14.767,0,0,0-4.379-.707A10.925,10.925,0,0,0,5.919,10.07C2.507,12.067.31,16.1.033,20.847A19.461,19.461,0,0,0,7.9,37.407a23.4,23.4,0,0,0,7.531,3.66l.545.169-.436-.377a17.788,17.788,0,0,1-4.766-6.724"/></g></g></svg>