<svg id="Layer_1" data-name="Layer 1" xmlns="http://www.w3.org/2000/svg" width="2400" height="1444" viewBox="0 0 2400 1444"><defs><style>.cls-1,.cls-2{fill:#009ddb;}.cls-2{fill-rule:evenodd;}.cls-3{opacity:0.75;}.cls-4{fill:none;stroke:#009ddb;stroke-miterlimit:10;}</style></defs><title>wn2</title><path class="cls-1" d="M313.437,196.677l4.455-24.109-18.546,15.817A39.664,39.664,0,0,1,313.437,196.677Z"/><path class="cls-1" d="M286.733,186.293a39.7,39.7,0,0,1,8.739,1l-8.126-22.907-8.037,22.631A40.587,40.587,0,0,1,286.733,186.293Z"/><path class="cls-1" d="M348.433,225.472l-22.9-8.134a40.217,40.217,0,0,1,1,8.755,39.167,39.167,0,0,1-.723,7.412Z"/><path class="cls-1" d="M274.972,188.068l-18.172-15.5,4.269,23.151A39.862,39.862,0,0,1,274.972,188.068Z"/><path class="cls-1" d="M324.446,213.46l15.8-18.529-24.106,4.454A39.734,39.734,0,0,1,324.446,213.46Z"/><path class="cls-1" d="M317.108,251.746l23.139,4.268L324.759,237.85A39.827,39.827,0,0,1,317.108,251.746Z"/><path class="cls-1" d="M257.5,199.182l-23.062-4.251,14.952,17.526A39.691,39.691,0,0,1,257.5,199.182Z"/><path class="cls-1" d="M307.257,261.171a27.654,27.654,0,0,0-9.142,1.58,32.03,32.03,0,0,0-48.933-31.078,42.573,42.573,0,0,0-83.568,15.663,34.465,34.465,0,0,0,1.072,68.913H307.257a27.539,27.539,0,0,0,0-55.078Z"/><path class="cls-1" d="M266.3,220.94A37.888,37.888,0,0,1,304,255.587c.017-.007.037,0,.049-.007a34.218,34.218,0,1,0-51.438-32.049A37.4,37.4,0,0,1,266.3,220.94Z"/><path class="cls-1" d="M829.384,230.738,782.9,214.7l-67.417,5.24L704.85,208.83l67.91-6.579-15.18-19.068-69.25,10.561-26.353-24.6-17.516-.745,18.406,33.393L626.3,217.827l1.612,7.157,38.18-10.469L647.9,253.592S711.551,236.678,829.384,230.738Z"/><path class="cls-1" d="M582.547,312.236l236.768-.788c15.264-49.364,38.523-72.336,38.523-72.336C570.754,245.264,582.547,312.236,582.547,312.236Zm89.637-20.6a7.927,7.927,0,1,1,7.9-7.952A7.922,7.922,0,0,1,672.184,291.636Zm34.354-.1a7.927,7.927,0,1,1,7.887-7.959A7.921,7.921,0,0,1,706.538,291.533Zm34.332-.1a7.927,7.927,0,1,1,7.9-7.958A7.919,7.919,0,0,1,740.87,291.43Z"/><path class="cls-1" d="M1216.175,252.66a21.28,21.28,0,1,1-21.283-21.28A21.285,21.285,0,0,1,1216.175,252.66Z"/><path class="cls-1" d="M1194.892,286.074A33.442,33.442,0,0,1,1163.5,264c-6.553,2.971-99.623,45.965-29.619,65.321,67.8,18.752,73.7-38.434,74.186-45.965A33.237,33.237,0,0,1,1194.892,286.074Z"/><path class="cls-1" d="M1289.477,266.15c-17.306-66.709-68.015-45.53-76.416-41.495a33.3,33.3,0,0,1,7.02,49.9C1234.107,284.294,1306.559,332.014,1289.477,266.15Z"/><path class="cls-1" d="M1194.892,219.25a33.256,33.256,0,0,1,6.214.6c.821-8.484,9.61-108.675-41.774-58.107-49.422,48.637-4.9,82.066,2.4,87.018A33.445,33.445,0,0,1,1194.892,219.25Z"/><path class="cls-1" d="M1679.842,162.6a77.712,77.712,0,1,0,77.708,77.712A77.71,77.71,0,0,0,1679.842,162.6Zm36.251,66.166-31.94,24.6c-.09.068-.2.117-.286.181a5.491,5.491,0,0,1-.477.312c-.214.116-.421.225-.635.323-.17.072-.335.154-.508.214a7.237,7.237,0,0,1-.722.211c-.161.041-.311.086-.469.112a7.814,7.814,0,0,1-1.026.1c-.064,0-.124.016-.181.016a6.953,6.953,0,0,1-1.5-.174c-.128-.022-.248-.079-.365-.1a7.435,7.435,0,0,1-1.059-.376c-.158-.075-.309-.169-.475-.255a6.773,6.773,0,0,1-.823-.527,4.324,4.324,0,0,1-.477-.406c-.131-.117-.278-.21-.409-.342l-39.067-40.852a7.062,7.062,0,0,1,10.2-9.768l34.691,36.27,26.915-20.725a7.059,7.059,0,1,1,8.615,11.186Z"/><g id="boat"><path class="cls-1" d="M2153.677,332.878a10.994,10.994,0,0,0,8.507-4.839l31.781-49.162a4.766,4.766,0,0,0-2.337-7.013l-55.269-22.986a15.737,15.737,0,0,0-10.406,0l-55.268,22.986a4.766,4.766,0,0,0-2.337,7.013l31.781,49.162a11.008,11.008,0,0,0,8.506,4.839Z"/><path class="cls-1" d="M2176.663,229.309l-12.908-5.528a1.276,1.276,0,0,0-.07-.234l-8.756-17.654a4.957,4.957,0,0,0-4.066-2.518h-8.452v-2.814a2.819,2.819,0,0,0-2.815-2.823h-16.88a2.826,2.826,0,0,0-2.822,2.823v2.814h-8.444a4.979,4.979,0,0,0-4.073,2.518l-8.741,17.489a1.838,1.838,0,0,0-.133.414l-12.846,5.513a9.283,9.283,0,0,0-5.175,7.85v21.062l50.67-21.062,50.679,21.062V237.159A9.29,9.29,0,0,0,2176.663,229.309Zm-90.552,20.468V237.159a3.873,3.873,0,0,1,1.751-2.667l29.077-12.47c.437-.188,1.008-.368,1.579-.547l3.081-.642a33.816,33.816,0,0,1,3.932-.5v11.2a5.807,5.807,0,0,0,.345,1.727Zm90.091,0-39.764-16.521a5.6,5.6,0,0,0,.344-1.727V220.356a31.12,31.12,0,0,1,3.706.493l3.909.836c.329.126.7.228.985.345l29.053,12.446a3.881,3.881,0,0,1,1.767,2.683Z"/></g><g id="remove_2"><g id="remove_2-2" data-name="remove_2"><path class="cls-1" d="M2220.587,195.354h29.092a2.081,2.081,0,0,0,2.072-2.072V181.007a2.091,2.091,0,0,0-2.072-2.072h-29.092v-29.1a2.083,2.083,0,0,0-2.072-2.08h-12.267a2.079,2.079,0,0,0-2.079,2.08v29.1h-29.085a2.092,2.092,0,0,0-2.079,2.072v12.275a2.087,2.087,0,0,0,2.079,2.072h29.085V224.43a2.087,2.087,0,0,0,2.079,2.072h12.275a2.09,2.09,0,0,0,2.064-2.072Z"/></g></g><path class="cls-1" d="M240.317,650.77A86.135,86.135,0,0,0,170.367,787.2a11.534,11.534,0,0,0,9.358,4.792H300.9a11.517,11.517,0,0,0,9.353-4.792A86.123,86.123,0,0,0,240.317,650.77Zm0,22.146a6.979,6.979,0,1,1-6.987,6.979A6.975,6.975,0,0,1,240.317,672.916ZM188,716.484a6.98,6.98,0,1,1,6.983-6.987A6.98,6.98,0,0,1,188,716.484Zm14.947-28.132a6.981,6.981,0,1,1,6.985,6.979A6.983,6.983,0,0,1,202.942,688.352Zm37.375,90.063A14.12,14.12,0,0,1,226.2,764.29a13.968,13.968,0,0,1,3.565-9.3l-16.085-40.185A6.345,6.345,0,0,1,225.46,710.1l16.089,40.192a14.088,14.088,0,0,1-1.232,28.125ZM270.7,695.331a6.979,6.979,0,1,1,6.987-6.979A6.98,6.98,0,0,1,270.7,695.331Zm21.929,21.153a6.98,6.98,0,1,1,6.976-6.987A6.99,6.99,0,0,1,292.631,716.484Z"/><path class="cls-1" d="M653.818,761.679c-30.976,33.123-25.526,38.619-18.933,45.2s12.08,12.034,45.211-18.941c28.466,26.577,34.161,20.89,64.207-9.156l-17.9-17.9,25.3-25.3-11.2-11.205-25.3,25.3-23.124-23.124,25.3-25.3-11.205-11.2-25.3,25.288-18.127-18.12C632.621,727.365,627,733.013,653.818,761.679Z"/><path class="cls-1" d="M786.5,681.078c30.975-33.124,25.526-38.619,18.933-45.2s-12.08-12.034-45.211,18.934c-28.473-26.57-34.161-20.883-64.207,9.164l81.551,81.551C807.7,715.393,813.322,709.744,786.5,681.078Z"/><polygon class="cls-1" points="1097.796 792.643 1302.204 792.643 1302.204 758.161 1097.796 689.207 1097.796 792.643"/><path class="cls-1" d="M1160.805,659.325l-3.705-.23a8.173,8.173,0,0,1-1.788-.3,4.452,4.452,0,0,1,1.7-8.675l6.866.194a18.349,18.349,0,0,1,4.824.665l.131.039a5.05,5.05,0,0,1,3.237,6.374l-11.612,35.689a5.056,5.056,0,1,1-9.616-3.129Z"/><path class="cls-1" d="M1173.416,677.846l.044-.131c4.174-12.849,15.422-20.312,27.191-16.485,11.708,3.81,16.386,16.316,12.212,29.166l-.044.13c-4.183,12.841-15.371,20.326-27.2,16.477S1169.233,690.686,1173.416,677.846Zm29.361,9.551.044-.13c2.612-8.036.668-15.388-5.156-17.276s-11.534,2.752-14.163,10.845l-.053.13c-2.63,8.1-.729,15.371,5.156,17.284S1200.165,695.434,1202.777,687.4Z"/><path class="cls-1" d="M1222.739,681.37l.044-.131c2.039-6.27,8.062-9.907,14.511-7.811,6.387,2.083,9.06,8.488,7.047,14.685l-.043.13c-2.023,6.2-8.046,9.908-14.5,7.8C1223.407,693.967,1220.725,687.566,1222.739,681.37Zm14.875,4.842.044-.129c.963-2.978.165-6.1-2.36-6.931-2.665-.859-4.878,1.215-5.824,4.122l-.044.131c-.971,2.973-.164,6.105,2.362,6.926C1234.456,691.2,1236.686,689.059,1237.614,686.212Zm-16.437,26.415,40.895-29.522a3.352,3.352,0,0,1,3.02-.477,3.112,3.112,0,0,1,2,3.94,3.306,3.306,0,0,1-1.353,1.8l-40.887,29.517a3.34,3.34,0,0,1-3.029.486,3.1,3.1,0,0,1-2-3.94A3.656,3.656,0,0,1,1221.177,712.627Zm21.411.252.034-.131c2.049-6.261,8.055-9.907,14.512-7.8,6.388,2.079,9.06,8.484,7.047,14.681l-.034.121c-2.023,6.2-8.063,9.912-14.52,7.815C1243.238,725.481,1240.566,719.079,1242.588,712.879Zm14.858,4.838.052-.13c.963-2.968.165-6.105-2.36-6.926-2.665-.868-4.878,1.211-5.824,4.127l-.052.126c-.963,2.981-.165,6.1,2.369,6.926C1254.287,722.7,1256.527,720.568,1257.446,717.717Z"/><path class="cls-1" d="M1695.365,670.241V647.208h19.458a13.533,13.533,0,0,0,0-27.065h-68.7a13.533,13.533,0,0,0,0,27.065h21.147v23.033h-6.015c-24.444,0-60.813,16.2-60.813,60.817v28.714h40.539V731.058c0-10.9,4.2-14.687,8.317-16.948a30.462,30.462,0,0,1,12.129-3.326h97.81V670.241Z"/><path class="cls-1" d="M1637.058,799.336c-.212-.621-.62-1.616-.89-2.212l-14.748-31.3c-.278-.592-.735-.592-1.012,0l-14.749,31.3c-.269.6-.677,1.591-.889,2.212a23.357,23.357,0,0,0-1.16,5.978,17.3,17.3,0,0,0,34.606,0A23.392,23.392,0,0,0,1637.058,799.336Z"/><path class="cls-2" d="M2102.2,807.265a51.109,51.109,0,0,0,10.026-4.664c8.822-5.681,15.419-13.247,18.336-23.574,1.05-3.707,2.044-7.423,2.9-11.165a37.332,37.332,0,0,1,12.292-20.157c30.791-27.006,25.208-21.534,55.9-48.669a26.563,26.563,0,0,1,16.014-6.912,93.917,93.917,0,0,0,15.168-2.225c6.744-1.725,12.537-5.2,15.846-11.789a36.908,36.908,0,0,0,3.9-17.452,22.2,22.2,0,0,0-2.071-9.455c-4.2,6.139-8.283,12.019-12.278,17.955a2.049,2.049,0,0,1-2.519,1.057c-4.121-.969-8.263-1.77-12.376-2.753a3.713,3.713,0,0,1-2.043-1.455c-2.162-3.334-4.254-6.7-6.248-10.142a2.617,2.617,0,0,1,.127-2.2c1.783-2.969,3.686-5.859,5.561-8.766,2.043-3.159,4.093-6.321,6.465-10.008-2.176.325-3.974.252-5.478.867a97.847,97.847,0,0,0-12.153,5.646c-8.612,5.055-13.426,12.6-13.81,22.77a45.456,45.456,0,0,1-.728,6.3,13.029,13.029,0,0,1-4.289,7.749q-6.485,5.761-12.929,11.508c-10.928,9.7-11.984,10.5-22.919,20.2-18.589,16.508-10.67,9.47-29.231,26.027A28.3,28.3,0,0,1,2110.375,743c-4.505.623-9.045.986-13.552,1.563-8.262,1.046-15.937,3.792-21.184,10.47a41.455,41.455,0,0,0-8.815,28.2,25.519,25.519,0,0,0,1.134,5.023,8.051,8.051,0,0,0,.888,1.606c.524-.714.888-1.214,1.252-1.725,4.352-6.331,8.718-12.642,13.034-18.994a2.069,2.069,0,0,1,2.337-1.109c4.939.759,9.9,1.364,14.839,2.172a3.479,3.479,0,0,1,2.113,1.508c2.456,4.054,4.736,8.2,7.171,12.275a2.068,2.068,0,0,1-.14,2.585q-4.031,5.867-7.912,11.81c-1.918,2.927-3.723,5.929-5.583,8.9.1.19.181.378.279.581C2098.23,807.684,2100.378,807.929,2102.2,807.265Zm34.428-69.284a10.575,10.575,0,0,1,2.449-3.163c18.226-16.326,9.956-9.1,28.209-25.382,8.221-7.329,6.555-5.776,14.881-13a10.475,10.475,0,0,1,4.694-2.312c2.68-.511,4.331,1.738,3.233,4.236a11.242,11.242,0,0,1-2.673,3.663c-13.4,11.928-16.966,14.9-30.413,26.771a.261.261,0,0,1-.069-.073c-13.21,11.561.126-.4-13.139,11.1a9.779,9.779,0,0,1-4.163,2.176C2136.982,742.567,2135.415,740.408,2136.625,737.981Z"/><polygon class="cls-1" points="186.26 1257.41 170.21 1241.357 209.127 1202.44 170.21 1163.522 186.26 1147.469 241.234 1202.44 186.26 1257.41"/><polygon class="cls-1" points="255.45 1257.41 239.4 1241.357 278.311 1202.44 239.4 1163.522 255.45 1147.469 310.423 1202.44 255.45 1257.41"/><path class="cls-1" d="M806.314,1185.441c0-39.8-38.569-72.056-86.149-72.056S634,1145.644,634,1185.441s38.575,72.054,86.162,72.054a101.257,101.257,0,0,0,27.366-3.738l37.733,37.737L772.2,1242.857C792.926,1229.7,806.314,1208.883,806.314,1185.441Zm-80.921,36.906a8.738,8.738,0,0,1-12.305,0,8.574,8.574,0,0,1,6.042-14.659,8.621,8.621,0,0,1,6.235,2.509,8.133,8.133,0,0,1,2.585,6.063A8.243,8.243,0,0,1,725.393,1222.347Zm17.34-49.588a23.668,23.668,0,0,1-3.009,5.866,44.078,44.078,0,0,1-5.764,5.911,41.08,41.08,0,0,0-5.46,5.591,14.789,14.789,0,0,0-1.853,4.333,34.675,34.675,0,0,0-.954,7.518H712.112l-.049-2.255a29.48,29.48,0,0,1,2.458-12.2,30.075,30.075,0,0,1,7.966-10.3q5.316-4.666,6.415-6.415a7.588,7.588,0,0,0,1.1-4.111,6.816,6.816,0,0,0-2.681-5.436,12.274,12.274,0,0,0-14.757.486,9.266,9.266,0,0,0-3.009,7H696.428a20.605,20.605,0,0,1,6.613-15.949q6.715-6.3,17.695-6.3a25.612,25.612,0,0,1,12.027,2.607,20.065,20.065,0,0,1,7.94,7.518,19.594,19.594,0,0,1,2.984,10.322A18.38,18.38,0,0,1,742.733,1172.759Z"/><path class="cls-2" d="M1186.82,1123.383h-7.9a3.529,3.529,0,0,0-3.519,3.513v33.379h-31.057a17.782,17.782,0,0,0-4.978.869,17.422,17.422,0,0,0-4.577,2.07l-20.863,14.326a3.327,3.327,0,0,0,0,5.882l20.863,14.321a19.971,19.971,0,0,0,9.555,2.943H1175.4v77.3a3.528,3.528,0,0,0,3.519,3.512h7.9a3.525,3.525,0,0,0,3.519-3.512V1126.9A3.525,3.525,0,0,0,1186.82,1123.383Zm99.253,36.588-20.864-14.321a17.53,17.53,0,0,0-4.57-2.082,18.094,18.094,0,0,0-4.984-.862h-60.05l7.037,40.411h53.013a18.024,18.024,0,0,0,4.984-.863,17.5,17.5,0,0,0,4.57-2.081l20.864-14.321a3.327,3.327,0,0,0,0-5.881Z"/><path class="cls-1" d="M1736.819,1253.366a4.818,4.818,0,0,0-4.708,3.792c-3.155,2.63-21.232,7.342-52.273,7.342s-49.116-4.712-52.271-7.342a4.821,4.821,0,0,0-9.531,1.032c0,14.806,47.3,15.956,61.8,15.956s61.808-1.15,61.808-15.956A4.825,4.825,0,0,0,1736.819,1253.366Z"/><path class="cls-1" d="M1753.178,1155.375a13.605,13.605,0,0,0-8.806,24.025l-23.622,27.806-11.852-43.3a16.836,16.836,0,1,0-11.188-.75l-17.872,41.125-17.869-41.125a16.993,16.993,0,1,0-11.189.746l-11.851,43.3-23.071-27.157a14.162,14.162,0,1,0-5.912,3.263l11.423,47.327a4.8,4.8,0,0,0-3.333,4.557c0,14.81,47.3,15.957,61.8,15.957s61.808-1.147,61.808-15.957a4.806,4.806,0,0,0-3.34-4.561l11.674-48.358a13.266,13.266,0,0,0,3.2.418,13.66,13.66,0,1,0,0-27.32Z"/><path class="cls-1" d="M2207.891,1184.293a34.859,34.859,0,0,0,1.808-11.575c0-5.757-1.808-11.313-2.223-16-.892-11.732-1.126-12.411-2.907-15.738-3.324-6.022-10.245-9.979-18.652-11.55v5.316c7.309,1.362,14.673,6.234,14.673,12.676,0,9.978-13.121,0-13.121,14.872,0,9.557.415,12.444,4.007,13.537,2.171.687,6.23.473,7.334,1.576,1.544,1.572.412,2.7,3.112,6.886,2.857,36.037,15.53,34.964,15.53,56.986,0,8.883-5.106,15.088-11.991,15.088-8.693,0-12.89-10-12.89-20.9,0-8.46,4.01-19.14,4.01-26.259,0-15.12-6.231-20.88-16.92-24.914v-47.788c0-5.763-2.2-8-10.842-8H2124.8c-11.338,0-15.111.92-15.111,8V1267.5h-13.35v8.87h95.351v-8.87h-12.024v-76.263c6.943,1.962,11.129,7.125,11.129,19.743,0,5.135-4,12.968-4,23.18,0,18.2,7.111,28,19.558,28,10.92,0,16.682-8.669,16.682-20.876C2223.032,1218.809,2211.9,1222.323,2207.891,1184.293Zm-8.669-13.061c-6,0-7.1,0-7.1-5.818,0-6,0-7.127,7.1-7.336Zm-28.623,7.508c0,3.772-2.488,4.012-7.805,4.012h-38.442c-3.564,0-5.578-1.783-5.578-4.012V1141.4c0-2.854,1.362-3.537,6.442-3.537h39.332c4.477,0,6.051,1.1,6.051,3.537Z"/><g class="cls-3"><line class="cls-4" x1="480.634" y1="-47.556" x2="480.634" y2="1504.296"/><line class="cls-4" x1="960.475" y1="-47.556" x2="960.475" y2="1504.296"/><line class="cls-4" x1="1440.317" y1="-47.556" x2="1440.317" y2="1504.296"/><line class="cls-4" x1="1920.158" y1="-47.556" x2="1920.158" y2="1504.296"/><line class="cls-4" x1="2433.259" y1="480.634" x2="-35.259" y2="480.634"/><line class="cls-4" x1="2433.259" y1="961.695" x2="-35.259" y2="961.695"/></g></svg>