<svg xmlns="http://www.w3.org/2000/svg" viewBox="0 0 260 200"><path d="M109.15,124.972a2.887,2.887,0,0,1,.3-.707,1.94,1.94,0,0,1,.446-.565,2.251,2.251,0,0,1,2.035,1.447,2.054,2.054,0,0,1,1.987-1.431,5.564,5.564,0,0,1,1.05.128,4.99,4.99,0,0,1-.167,1.168,4.2,4.2,0,0,1-.454,1.153,3.947,3.947,0,0,0-.811-.159,1.5,1.5,0,0,0-1.3.811v4.945a7.036,7.036,0,0,1-1.232.095,7.305,7.305,0,0,1-1.248-.095v-5.136A1.965,1.965,0,0,0,109.15,124.972Z"/><path d="M121.8,128.6h-4.135a1.787,1.787,0,0,0,.364,1.1,1.36,1.36,0,0,0,1.093.393,4.278,4.278,0,0,0,.879-.107,8.153,8.153,0,0,0,1.148-.354,2.534,2.534,0,0,1,.65,1.463,5.234,5.234,0,0,1-3.117.906,3.929,3.929,0,0,1-1.677-.318,2.842,2.842,0,0,1-1.1-.89,3.557,3.557,0,0,1-.6-1.352,7.736,7.736,0,0,1-.175-1.7,6.008,6.008,0,0,1,.215-1.646,3.752,3.752,0,0,1,.652-1.311,3.03,3.03,0,0,1,1.112-.875,3.683,3.683,0,0,1,1.582-.318,3.552,3.552,0,0,1,1.376.255,2.974,2.974,0,0,1,1.7,1.764,3.869,3.869,0,0,1,.23,1.352A5.637,5.637,0,0,1,121.8,128.6Zm-4.151-1.718h2.083v-.175a1.685,1.685,0,0,0-.26-.969.882.882,0,0,0-.781-.382.845.845,0,0,0-.75.358A2.387,2.387,0,0,0,117.653,126.88Z"/><path d="M126.113,125.656v6.106q-.27.047-.588.071c-.212.016-.43.024-.652.024s-.443-.008-.66-.024-.416-.04-.6-.071V126.5q0-.922-.748-.922h-.238a2.915,2.915,0,0,1-.095-.843,3.556,3.556,0,0,1,.095-.89c.276-.022.53-.04.763-.056s.445-.024.636-.024h.35a1.632,1.632,0,0,1,1.272.509A1.983,1.983,0,0,1,126.113,125.656Zm-2.783-5.024a2.466,2.466,0,0,1,1.193-.254,1.376,1.376,0,0,1,1.161,2.1,2.636,2.636,0,0,1-1.209.239,1.364,1.364,0,0,1-1.145-2.083Z"/><path d="M127.48,129.631l1.876-2.512a16.592,16.592,0,0,1,1.288-1.5l-.048-.079a18.815,18.815,0,0,1-1.971.127H127.4a3.313,3.313,0,0,1-.1-.811,4.619,4.619,0,0,1,.143-1.033h5.534a5.016,5.016,0,0,1,.333,1.367,1.228,1.228,0,0,1-.238.731l-1.956,2.592a14.979,14.979,0,0,1-1.192,1.431l.048.079a9.467,9.467,0,0,1,1.256-.095h.556a3.356,3.356,0,0,0,1.479-.27,2.818,2.818,0,0,1,.254,1q0,1.1-1.32,1.1h-4.8a3.9,3.9,0,0,1-.271-1.233A1.406,1.406,0,0,1,127.48,129.631Z"/><path d="M140.693,128.6h-4.134a1.781,1.781,0,0,0,.364,1.1,1.36,1.36,0,0,0,1.093.393,4.285,4.285,0,0,0,.879-.107,8.234,8.234,0,0,0,1.148-.354,2.54,2.54,0,0,1,.65,1.463,5.236,5.236,0,0,1-3.117.906,3.929,3.929,0,0,1-1.677-.318,2.835,2.835,0,0,1-1.1-.89,3.557,3.557,0,0,1-.6-1.352,7.736,7.736,0,0,1-.175-1.7,6.009,6.009,0,0,1,.214-1.646,3.769,3.769,0,0,1,.652-1.311,3.042,3.042,0,0,1,1.113-.875,3.683,3.683,0,0,1,1.582-.318,3.552,3.552,0,0,1,1.376.255,2.974,2.974,0,0,1,1.7,1.764,3.869,3.869,0,0,1,.23,1.352A5.6,5.6,0,0,1,140.693,128.6Zm-4.15-1.718h2.083v-.175a1.678,1.678,0,0,0-.261-.969.881.881,0,0,0-.781-.382.844.844,0,0,0-.749.358A2.376,2.376,0,0,0,136.543,126.88Z"/><path d="M148.936,126.515v3.259a2.674,2.674,0,0,0,.382,1.574,2.094,2.094,0,0,1-1.447.541,1.376,1.376,0,0,1-1.129-.382,1.854,1.854,0,0,1-.3-1.161V126.96a1.693,1.693,0,0,0-.143-.795.582.582,0,0,0-.556-.254,1.412,1.412,0,0,0-.541.127,2.258,2.258,0,0,0-.62.413v5.311q-.27.047-.588.071t-.652.024q-.335,0-.652-.024t-.588-.071v-7.934l.111-.112h.938a1.282,1.282,0,0,1,1.3.954,3.363,3.363,0,0,1,2.21-.985,1.988,1.988,0,0,1,1.693.771A3.341,3.341,0,0,1,148.936,126.515Z"/><path d="M85.874,108.7H71.855l-2.388,7.788a1.885,1.885,0,0,1-.52.919,1.91,1.91,0,0,1-1.194.307H60.591c-.45,0-.725-.148-.826-.393a1.371,1.371,0,0,1-.031-.869l12.733-38.39a6.957,6.957,0,0,1,.7-1.686,3.389,3.389,0,0,1,2.143-1.575,7.568,7.568,0,0,1,1.622-.2h3.673a13.814,13.814,0,0,1,1.775.133,2.971,2.971,0,0,1,1.286.48,3.2,3.2,0,0,1,.949,1.051,9.5,9.5,0,0,1,.765,1.781l12.733,38.386a1.419,1.419,0,0,1,0,.822c-.082.286-.347.455-.8.455H90.036a3.559,3.559,0,0,1-1.132-.178,1.119,1.119,0,0,1-.643-.852Zm-11.815-7.446H83.67l-2.327-7.836L79.078,84.6h-.367l-2.326,8.819Z"/><path d="M168.132,113.015a26.172,26.172,0,0,1-.961,7.469,15.943,15.943,0,0,1-2.562,5.172,13.531,13.531,0,0,1-3.775,3.4,22.859,22.859,0,0,1-4.536,2.081,2.717,2.717,0,0,1-1.288.215c-.245-.062-.451-.3-.614-.7l-2.02-5.265c-.2-.531-.246-.888-.123-1.071a2.512,2.512,0,0,1,.857-.643,13.643,13.643,0,0,0,3-1.959,8.782,8.782,0,0,0,1.867-2.326,8.633,8.633,0,0,0,.923-2.816,22.517,22.517,0,0,0,.219-3.49V86.631a1.029,1.029,0,0,1,.3-.861,1.7,1.7,0,0,1,.974-.187h6.428c.571,0,.961.044,1.083.187a1.316,1.316,0,0,1,.227.861Z"/><path d="M200.321,113.688a3.7,3.7,0,0,1-.253,1.347,2.345,2.345,0,0,1-1.088,1.041,17.213,17.213,0,0,1-3.035,1.1,29.406,29.406,0,0,1-3.3.673q-1.68.244-3.392.367t-3.239.123a24.951,24.951,0,0,1-6.873-.8,12,12,0,0,1-4.368-2.173,7.481,7.481,0,0,1-2.321-3.245,12.366,12.366,0,0,1,.124-8.386,9.4,9.4,0,0,1,2.387-3.459,11.121,11.121,0,0,1,4.01-2.3,17.73,17.73,0,0,1,5.724-.834H191.5V96.18a7.351,7.351,0,0,0-.221-1.652,2.852,2.852,0,0,0-.784-1.378,4.338,4.338,0,0,0-1.632-.949,8.505,8.505,0,0,0-2.759-.367c-.613,0-1.309.031-2.084.092s-1.553.143-2.328.245-1.531.224-2.265.367-1.389.3-1.96.459a1.628,1.628,0,0,1-1.1,0,1.134,1.134,0,0,1-.428-.8l-.98-4.285a1.368,1.368,0,0,1-.03-.949,1.164,1.164,0,0,1,.642-.459,29.693,29.693,0,0,1,5.785-1.408,43.126,43.126,0,0,1,6.03-.428c4.437,0,7.727.948,9.794,2.846s3.14,4.7,3.14,8.418Zm-9.014-10.666H186.53a15.346,15.346,0,0,0-1.836.16,4.992,4.992,0,0,0-1.806.6,3.883,3.883,0,0,0-1.377,1.326,4.277,4.277,0,0,0-.551,2.331,3.2,3.2,0,0,0,1.438,3,7.565,7.565,0,0,0,3.887.858c.245,0,.571-.009.98-.03s.846-.061,1.316-.122.919-.143,1.409-.245a7.1,7.1,0,0,0,1.317-.4Z"/><path d="M152.536,108.884l-1.712-5a8.734,8.734,0,0,0-5.4-5.668l-.7-.256.617-.418a12.1,12.1,0,0,0,3.377-3.911l4.791-8.1s-4.861-.025-6.134-.025c-2.611,0-3.921,1.114-5.5,3.572l-3.189,4.911a2.619,2.619,0,0,1-2.262,1.586h-1.42V73.829a1.579,1.579,0,0,0-.2-.957,1.722,1.722,0,0,0-1.054-.222h-6.366a1.929,1.929,0,0,0-1.036.253,1.126,1.126,0,0,0-.361.926v42.485c0,.775.54,1.012,1.4,1.012H133.7c.571,0,.928-.006,1.071-.17a1.3,1.3,0,0,0,.226-.88c0-.174.014-.325.014-.521v-12.4c.588-.025,1.521-.037,2.242-.037a4.407,4.407,0,0,1,2.746.8,6.46,6.46,0,0,1,1.753,3.028l2.082,5.892a8.541,8.541,0,0,0,1.968,3.585,4.611,4.611,0,0,0,3.182.964,8.958,8.958,0,0,0,6.642-2.932C154.416,113.642,153.4,111.747,152.536,108.884Z"/><path d="M121.726,104.506a9.142,9.142,0,0,0-2.3-2.847,14.97,14.97,0,0,0-3.4-2.081q-1.961-.887-4.163-1.745A18.733,18.733,0,0,1,107.922,96a2.384,2.384,0,0,1-1.133-2.02,2.267,2.267,0,0,1,.735-1.561,3.194,3.194,0,0,1,2.387-.766,20.562,20.562,0,0,1,3.918.368q1.9.366,4.163,1.04a1.725,1.725,0,0,0,.979.153c.2-.061.388-.315.551-.765l1.531-3.918a2.458,2.458,0,0,0,.183-1.071q-.062-.336-.734-.643a22.628,22.628,0,0,0-5.173-1.561,31.191,31.191,0,0,0-5.6-.52,16.39,16.39,0,0,0-5.3.765,10.932,10.932,0,0,0-3.7,2.051,8.228,8.228,0,0,0-2.2,3.03,9.6,9.6,0,0,0-.735,3.765,7.407,7.407,0,0,0,2.633,5.907,15.883,15.883,0,0,0,3.152,2.112,38,38,0,0,0,4.316,1.9,22.607,22.607,0,0,1,4.316,2.02,2.488,2.488,0,0,1,1.255,2.082,2.44,2.44,0,0,1-.888,1.928,4.782,4.782,0,0,1-3.091.765,14.926,14.926,0,0,1-2.2-.184q-1.225-.183-2.54-.489t-2.541-.7q-1.225-.4-2.2-.827c-.091-.041-.177-.075-.26-.1l2.85,8.493a26.59,26.59,0,0,0,7.266,1.1,15.809,15.809,0,0,0,9.213-2.449q3.52-2.448,3.52-7.407A8.554,8.554,0,0,0,121.726,104.506Z"/><path d="M167.353,81.373a.674.674,0,0,0,.679-.665c0-2.943.415-8.147,2.174-10.484.7-.926,1.347-1.462,1.283-1.916-.1-.68-2.365-.034-2.631.041-3.577,1.006-9.161,3.507-9.49,12.234a.707.707,0,0,0,.672.79Z"/></svg>