<svg xmlns="http://www.w3.org/2000/svg" width="341" height="253" viewBox="0 0 341 253"><defs><style>.cls-1{fill:#02f;}.cls-2{fill:#fff;}</style></defs><title>cg</title><g id="Layer_2" data-name="Layer 2"><g id="Layer_1-2" data-name="Layer 1"><rect class="cls-1" width="341" height="253"/><path class="cls-2" d="M114.127,152.182c-.124.165-.239.314-.345.441a3.2,3.2,0,0,0-.66,2.4,9.182,9.182,0,0,1-1.777.093l-.621-.062c-3.958-.581-4.481-4.547-3.843-7.25.906-3.84,4.055-6.515,5.867-8.844a8.188,8.188,0,0,0,2.114-5.652c.017-3.663-3.425-3.293-4.429-2.487a13.047,13.047,0,0,1-3.143,2.254,3.289,3.289,0,0,1-2.739-.026,2.658,2.658,0,0,1-.561-4.185c-.172,1.553.345,2.33,1.079,2.459s1.122-.82,1.467-1.9c-1.64-.43-2.459-1.984-1.683-3.106.82,1.381,1.64,1.6,2.805,1.122-2.88-1.812-1.948-3.436-1.437-4.152a2.689,2.689,0,0,1,1.911-.852c-.388.647-.519,2.25.734,2.459a20.047,20.047,0,0,1,2.459.755A10.608,10.608,0,0,1,116.5,130.2c1.165,2.33,1.165,5.609-1.165,8.974s-3.5,4.186-4.961,6.6-1.8,5.559.647,6.429A6.654,6.654,0,0,0,114.127,152.182Z"/><path class="cls-2" d="M131.729,167.863a2.8,2.8,0,0,0-.171,2.593,4.1,4.1,0,0,1,1.985-2.028,2.169,2.169,0,0,1-.216,1.726,1.929,1.929,0,0,0,1.51-1.122c-.388,3.236,1.6,3.365,2.373,3.193a2.716,2.716,0,0,1,.475,1.51,1.7,1.7,0,0,0,.819-2.157s.259-.345.432-.561a2.2,2.2,0,0,0,1.509.345,2.849,2.849,0,0,1,.389,1.726,3.894,3.894,0,0,0,1.251-2.158,1.884,1.884,0,0,0,.69-1.854c1.079-.259,1.64.906,2.2,1.552a4.7,4.7,0,0,0-1.208-3.753c-1.165-1.035-4.1.044-5.566.172s-2.545-.949-3.106-2.631a5.769,5.769,0,0,1,2.243-2.071c.821-.258,1.769-1.985,2.114-3.408.823-3.9-1.486-6.982-2.459-8.154a6.33,6.33,0,0,0-4.314-2.2c-2.545-.345-5.35.3-6.687-.345a1.11,1.11,0,0,1-.581-.589,2.471,2.471,0,0,0-.865,1.367,2.2,2.2,0,0,0-.044.44,4.117,4.117,0,0,0,.809,2.2,6.746,6.746,0,0,1,.528.961,9.314,9.314,0,0,1,3.777,2.436c.95,1.074.431,1.812-.992,2.761a3.142,3.142,0,0,1,2.589,1.683c-.969.569-3.692,2.839-2.331,4.142C127.374,165.063,128.453,166.615,131.729,167.863Z"/><path class="cls-2" d="M143.293,145.045c.733-.431,2.46-1.639,2.5-2.977a14.279,14.279,0,0,0-1.726.087c-.173-.475-.69-1.294-2.589-.906a3.246,3.246,0,0,0,1.079-2.071c-1.683.517-1.035-.906-2.848.043a3.492,3.492,0,0,0,.475-2.848c-.173-.69.086-1.209.647-.949a1.244,1.244,0,0,0-.683-1.569,3.417,3.417,0,0,1-.593-.151c-.02,0-.04,0-.062-.006l.006-.014a4.841,4.841,0,0,1-.991-.5,7.905,7.905,0,0,1-.243.946l-.526,1.645-.968-1.432c-.9-1.327-1.356-1.3-2.115-1.255a3.888,3.888,0,0,1-1.5-.136,7.488,7.488,0,0,1-.809,3.036l-.271.451a33.347,33.347,0,0,0,4.271,5.2c.086,1.294,1.7,2.61,2.287,3.02.992.69-.024,2.012.086,2.588.216,1.122,1.639,1.338,2.719,2.546.086-.345.517-2.416-.13-3.452,1.38,1.64,2.588,2.761,4.141-.216a9.666,9.666,0,0,0-1.768.13A6.271,6.271,0,0,1,143.293,145.045Z"/><path class="cls-2" d="M139.51,116.185l-.341,3.595a3.081,3.081,0,0,1-2.022,2.939,7.574,7.574,0,0,1,2.959,2.816,4.279,4.279,0,0,1,.278.64,5.725,5.725,0,0,0,1.194-3.043,1.322,1.322,0,0,0,1.588-1.5c-.594.169-.77-.382-.492-1.038a3.494,3.494,0,0,0-.029-2.886c1.643,1.218,1.224-.289,2.806.483a3.243,3.243,0,0,0-.746-2.213c1.817.678,2.454-.053,2.7-.5a14.173,14.173,0,0,0,1.692.352c.164-1.328-1.354-2.788-2.012-3.328a5,5,0,0,0-4.664-.336A4.443,4.443,0,0,0,139.51,116.185Z"/><path class="cls-2" d="M121.86,165.059a8.773,8.773,0,0,0,2.535-4.134c.579-2.005,2.028-5.616.218-8.805-1.967-3.465,0-5,.862-5.565.984-.639,3.313-1.879,5.393-3.063a28.856,28.856,0,0,0,3.67-2.517,43.457,43.457,0,0,1-3.147-4.054l-.316-.447.119-.2-.046-.033a4.447,4.447,0,0,1-1.672-2.078,7.891,7.891,0,0,1-1.556,1.229l-1.076.705-.211-1.269a2.82,2.82,0,0,0-.32-.817,3.441,3.441,0,0,1-1.164,1.358,2.953,2.953,0,0,1-1.817.508c-.772,1.751-1.738,3.44-2.3,5.027-.734,2.07-1.553,5.177-2.675,6.687s-2.933,4.357-3.926,5.565-.129,2.718-.345,3.5-1.208,1.726-2.589,0a2.294,2.294,0,0,0,1.553,2.329,1.589,1.589,0,0,1-1.811-.647c-.475.561-1.664,2.086-1.138,3.216-2.286.3-3.263,2.392-3.263,4.507-.949.345-1.251.906-1.208,1.38s1.2.679.863,1.295c-.475.862-2.373.906-2.589-1.381a2.417,2.417,0,0,0,1.208,3.408c-1.208,0-.733,1.036-.216,1.381-.258.561-.129,1.553.432,1.553a2.148,2.148,0,0,1-2.546.431,1.867,1.867,0,0,0,2.373,1.51c-.259,1.683.734,2.934,1.855,2.5a1.123,1.123,0,0,0,1.6,1.078,2.321,2.321,0,0,0,3.279.733c.346.216.82.173,1.122.432.13-.432.475-.82.216-1.424.776.6,1.553.949,1.855,1.294a5.39,5.39,0,0,0-.345-1.941,8.286,8.286,0,0,1,2.071,1.208,3.243,3.243,0,0,0-.432-1.9,7.445,7.445,0,0,1,1.9.215c-.82-1.121-1.122-1.639-1.554-1.811a2.5,2.5,0,0,0-2.5-1.942,3.3,3.3,0,0,0-1.682.561c-.216.13-.777-.086-1.122-.388A6.282,6.282,0,0,0,109.728,173a1.723,1.723,0,0,1-.862-1.9c.344-.906,1.984-.647,1.552.82.734.086,1.6-1.209,1.338-3.84C113.568,168.429,119.879,166.847,121.86,165.059Z"/><path class="cls-2" d="M139.712,130.376c-.388-1.208.561-2.761-.345-4.443A8.409,8.409,0,0,0,134.1,122.4c3.106-.13,4.1-.863,4.228-2.675-2.373,2.33-2.718-.518-4.271.647.949-.863,1.51-1.984-.087-3.192.13.949-.215,1.9-1.552,1.812a6.393,6.393,0,0,0-3.746.819c-1.424.734-2.761.237-3.019-.842-.195-.806.177-1.92,1.2-1.92s1.165.734,2.071.432,1.5-.215,1.758.174a2.188,2.188,0,0,0-.205-2.417c-1.165.388-4.424-1.261-5.956-.291a2.63,2.63,0,0,0,.235-2c2.891-1.337,5.486-1.852,6.288-1.669.26.044.9-2.509-.136-2.639-1.706-.213-1.726-.345-2.718-1.553a2.951,2.951,0,0,0-2.373-1.122c-.647.043-1.769-1.509-4.487-.517a1.6,1.6,0,0,1,.527-1.962,3.738,3.738,0,0,0-2.769,1.677,2.168,2.168,0,0,1,.507-1.95,4.152,4.152,0,0,0-2.8,2.4c-.518-1.035-.949-1.683-.733-2.286-1.295.216-1.9,1.553-1.295,3.365-1.769-1.251-2.083-.353-3.464.078a3.423,3.423,0,0,1,1.51,1.941,3.654,3.654,0,0,0-2.545-.043c.432.561,1.294,2.114,2.244,1.682-.82.648-1.812,1.252-2.935.346a2.341,2.341,0,0,0,2.071,1.941l-.089.013c-1.973.712-.975,4.68.7,4-.086,1.726-.043,2.977-1.035,2.33a2.588,2.588,0,0,1-1.166-1.338s.6,3.279,2.718,3.323c-1.725.733-.776,1.941-.388,3.365.6-1.643,2.443-.975,2.373-1.812a2.283,2.283,0,0,1-.006,2.071,1.976,1.976,0,0,0,1.521-.625c.039.586.351,1.288-.039,1.756.819-.313,1.363-.023,1.841-.564a.983.983,0,0,0,.715,1.04c-.031,0-1.724.417-1.756.412a2.871,2.871,0,0,0,3.341,1.321c-.95,1.337-.217,2.6,1.6,4.012,1.165.906,1.214,1.3.992,1.553-.3.345-.863.216-1.337-.647-.777,1.985,1.858,2.7,3.02,1.855a2.332,2.332,0,0,0,1.078-2.243c.777-.043,1.6,1.467,1.726,2.243,1.251-.819,2.114-1.423,2.243-3.321.3,1.984.5,3.192,1.924,4.184a6.534,6.534,0,0,0,.536-4.271c2.113,2.287,3.149-.6,5.306,2.589a3.723,3.723,0,0,0,.086-2.718c1.424,1.9,4.056,2.89,4.574.474A1.9,1.9,0,0,1,139.712,130.376Zm-16.133-22.833a2.624,2.624,0,0,1,2.536.531c.254.169.258.511.089.578a5.139,5.139,0,0,1-1.158.176,7.275,7.275,0,0,1-1.477.015,5.841,5.841,0,0,1-1.281-.263A4.552,4.552,0,0,1,123.579,107.543Z"/><path class="cls-2" d="M226.872,152.182c.125.165.241.314.345.441a3.2,3.2,0,0,1,.661,2.4,9.182,9.182,0,0,0,1.777.093l.621-.062c3.958-.581,4.481-4.547,3.843-7.25-.906-3.84-4.056-6.515-5.868-8.844a8.191,8.191,0,0,1-2.113-5.652c-.017-3.663,3.425-3.293,4.429-2.487a13.047,13.047,0,0,0,3.143,2.254,3.286,3.286,0,0,0,2.738-.026,2.658,2.658,0,0,0,.562-4.185c.172,1.553-.346,2.33-1.079,2.459s-1.122-.82-1.467-1.9c1.64-.43,2.459-1.984,1.683-3.106-.82,1.381-1.64,1.6-2.8,1.122,2.88-1.812,1.948-3.436,1.437-4.152a2.689,2.689,0,0,0-1.911-.852c.388.647.519,2.25-.734,2.459a20.047,20.047,0,0,0-2.459.755A10.6,10.6,0,0,0,224.5,130.2c-1.165,2.33-1.165,5.609,1.165,8.974s3.494,4.186,4.961,6.6,1.8,5.559-.647,6.429A6.659,6.659,0,0,1,226.872,152.182Z"/><path class="cls-2" d="M209.271,167.863a2.807,2.807,0,0,1,.171,2.593,4.1,4.1,0,0,0-1.986-2.028,2.177,2.177,0,0,0,.216,1.726,1.929,1.929,0,0,1-1.509-1.122c.388,3.236-1.6,3.365-2.373,3.193a2.716,2.716,0,0,0-.475,1.51,1.7,1.7,0,0,1-.819-2.157s-.259-.345-.432-.561a2.2,2.2,0,0,1-1.509.345,2.842,2.842,0,0,0-.389,1.726,3.894,3.894,0,0,1-1.251-2.158,1.884,1.884,0,0,1-.69-1.854c-1.079-.259-1.64.906-2.2,1.552a4.7,4.7,0,0,1,1.208-3.753c1.165-1.035,4.1.044,5.566.172s2.545-.949,3.106-2.631a5.772,5.772,0,0,0-2.244-2.071c-.82-.258-1.768-1.985-2.113-3.408-.824-3.9,1.486-6.982,2.458-8.154a6.336,6.336,0,0,1,4.315-2.2c2.545-.345,5.35.3,6.687-.345a1.11,1.11,0,0,0,.581-.589,2.471,2.471,0,0,1,.865,1.367,2.2,2.2,0,0,1,.044.44,4.117,4.117,0,0,1-.809,2.2,6.746,6.746,0,0,0-.528.961,9.314,9.314,0,0,0-3.777,2.436c-.951,1.074-.432,1.812.992,2.761a3.142,3.142,0,0,0-2.589,1.683c.968.569,3.691,2.839,2.33,4.142C213.626,165.063,212.547,166.615,209.271,167.863Z"/><path class="cls-2" d="M197.707,145.045c-.733-.431-2.46-1.639-2.5-2.977a14.279,14.279,0,0,1,1.726.087c.173-.475.69-1.294,2.589-.906a3.246,3.246,0,0,1-1.079-2.071c1.683.517,1.035-.906,2.848.043a3.492,3.492,0,0,1-.475-2.848c.172-.69-.086-1.209-.647-.949a1.244,1.244,0,0,1,.683-1.569,3.407,3.407,0,0,0,.592-.151c.021,0,.041,0,.062-.006l-.006-.014a4.791,4.791,0,0,0,.991-.5,8.3,8.3,0,0,0,.243.946l.527,1.645.968-1.432c.9-1.327,1.356-1.3,2.114-1.255a3.891,3.891,0,0,0,1.5-.136,7.472,7.472,0,0,0,.809,3.036l.271.451a33.461,33.461,0,0,1-4.271,5.2c-.087,1.294-1.7,2.61-2.287,3.02-.992.69.024,2.012-.086,2.588-.216,1.122-1.639,1.338-2.719,2.546-.086-.345-.517-2.416.13-3.452-1.38,1.64-2.588,2.761-4.141-.216a9.666,9.666,0,0,1,1.768.13A6.271,6.271,0,0,0,197.707,145.045Z"/><path class="cls-2" d="M201.49,116.185l.341,3.595a3.081,3.081,0,0,0,2.022,2.939,7.574,7.574,0,0,0-2.959,2.816,4.279,4.279,0,0,0-.278.64,5.725,5.725,0,0,1-1.194-3.043,1.322,1.322,0,0,1-1.588-1.5c.594.169.77-.382.492-1.038a3.494,3.494,0,0,1,.029-2.886c-1.643,1.218-1.224-.289-2.806.483a3.243,3.243,0,0,1,.746-2.213c-1.816.678-2.454-.053-2.7-.5a14.173,14.173,0,0,1-1.692.352c-.164-1.328,1.354-2.788,2.012-3.328a5,5,0,0,1,4.664-.336A4.443,4.443,0,0,1,201.49,116.185Z"/><path class="cls-2" d="M219.14,165.059a8.773,8.773,0,0,1-2.535-4.134c-.58-2.005-2.028-5.616-.218-8.805,1.967-3.465,0-5-.863-5.565-.984-.639-3.312-1.879-5.392-3.063a28.856,28.856,0,0,1-3.67-2.517,43.628,43.628,0,0,0,3.147-4.054l.316-.447-.119-.2.046-.033a4.447,4.447,0,0,0,1.672-2.078,7.862,7.862,0,0,0,1.556,1.229l1.076.705.211-1.269a2.82,2.82,0,0,1,.32-.817,3.441,3.441,0,0,0,1.164,1.358,2.953,2.953,0,0,0,1.817.508c.772,1.751,1.738,3.44,2.3,5.027.734,2.07,1.553,5.177,2.675,6.687s2.933,4.357,3.926,5.565.129,2.718.345,3.5,1.208,1.726,2.589,0a2.294,2.294,0,0,1-1.554,2.329,1.59,1.59,0,0,0,1.812-.647c.475.561,1.664,2.086,1.137,3.216,2.287.3,3.263,2.392,3.263,4.507.95.345,1.252.906,1.209,1.38s-1.2.679-.863,1.295c.475.862,2.373.906,2.589-1.381a2.417,2.417,0,0,1-1.208,3.408c1.208,0,.733,1.036.216,1.381.258.561.129,1.553-.432,1.553a2.148,2.148,0,0,0,2.546.431,1.868,1.868,0,0,1-2.373,1.51c.259,1.683-.734,2.934-1.856,2.5a1.123,1.123,0,0,1-1.6,1.078,2.319,2.319,0,0,1-3.278.733c-.346.216-.82.173-1.122.432-.13-.432-.475-.82-.216-1.424-.777.6-1.553.949-1.855,1.294a5.39,5.39,0,0,1,.345-1.941,8.286,8.286,0,0,0-2.071,1.208,3.243,3.243,0,0,1,.432-1.9,7.445,7.445,0,0,0-1.9.215c.82-1.121,1.122-1.639,1.553-1.811a2.5,2.5,0,0,1,2.5-1.942,3.3,3.3,0,0,1,1.682.561c.216.13.777-.086,1.122-.388A6.282,6.282,0,0,1,231.272,173a1.725,1.725,0,0,0,.862-1.9c-.344-.906-1.984-.647-1.553.82-.734.086-1.6-1.209-1.337-3.84C227.432,168.429,221.12,166.847,219.14,165.059Z"/><path class="cls-2" d="M198.871,131.627c.518,2.416,3.15,1.424,4.574-.474a3.718,3.718,0,0,0,.086,2.718c2.157-3.193,3.192-.3,5.306-2.589a6.527,6.527,0,0,0,.536,4.271c1.423-.992,1.622-2.2,1.924-4.184.129,1.9.992,2.5,2.243,3.321.13-.776.949-2.286,1.725-2.243a2.335,2.335,0,0,0,1.079,2.243c1.162.845,3.8.13,3.02-1.855-.474.863-1.036.992-1.337.647-.223-.253-.173-.647.992-1.553,1.813-1.41,2.546-2.675,1.6-4.012a2.871,2.871,0,0,0,3.341-1.321c-.032,0-1.725-.417-1.756-.412a.983.983,0,0,0,.715-1.04c.478.541,1.021.251,1.841.564-.391-.468-.078-1.17-.039-1.756a1.976,1.976,0,0,0,1.521.625,2.283,2.283,0,0,1-.006-2.071c-.07.837,1.772.169,2.373,1.812.388-1.424,1.337-2.632-.388-3.365,2.114-.044,2.717-3.323,2.717-3.323a2.582,2.582,0,0,1-1.165,1.338c-.992.647-.948-.6-1.035-2.33,1.677.685,2.675-3.283.7-4l-.089-.013a2.341,2.341,0,0,0,2.071-1.941c-1.123.906-2.115.3-2.935-.346.95.432,1.812-1.121,2.244-1.682a3.656,3.656,0,0,0-2.546.043,3.431,3.431,0,0,1,1.51-1.941c-1.38-.431-1.694-1.329-3.464-.078.6-1.812,0-3.149-1.294-3.365.216.6-.215,1.251-.733,2.286a4.154,4.154,0,0,0-2.8-2.4,2.168,2.168,0,0,1,.507,1.95,3.738,3.738,0,0,0-2.769-1.677,1.594,1.594,0,0,1,.526,1.962c-2.718-.992-3.839.56-4.486.517a2.954,2.954,0,0,0-2.374,1.122c-.991,1.208-1.011,1.34-2.717,1.553-1.036.13-.4,2.683-.136,2.639.8-.183,3.4.332,6.288,1.669a2.632,2.632,0,0,0,.234,2c-1.532-.97-4.79.679-5.955.291a2.188,2.188,0,0,0-.205,2.417c.258-.389.852-.476,1.758-.174s1.036-.432,2.071-.432,1.394,1.114,1.2,1.92c-.258,1.079-1.595,1.576-3.019.842a6.4,6.4,0,0,0-3.746-.819c-1.337.086-1.682-.863-1.552-1.812-1.6,1.208-1.036,2.329-.087,3.192-1.553-1.165-1.9,1.683-4.271-.647.129,1.812,1.121,2.545,4.228,2.675a8.409,8.409,0,0,0-5.263,3.538c-.906,1.682.043,3.235-.345,4.443A1.9,1.9,0,0,1,198.871,131.627Zm19.841-23.047a5.841,5.841,0,0,1-1.281.263,7.275,7.275,0,0,1-1.477-.015,5.139,5.139,0,0,1-1.158-.176c-.169-.067-.164-.409.088-.578a2.626,2.626,0,0,1,2.537-.531A4.552,4.552,0,0,1,218.712,108.58Z"/><path class="cls-2" d="M130.584,114.243l.433.346a1.89,1.89,0,0,1,.389.445,5.338,5.338,0,0,1,.728.212c1.541.552,4.07.814,4.971-.844.74-1.36-.246-3-1.337-3.953s.035-1.681-.61-2.268-1.367.291-1.6,1.367a2.583,2.583,0,0,0,1.134,2.558c.814.727.7,2.587-.959,2.209a15.244,15.244,0,0,1-2.205-.949Z"/><path class="cls-2" d="M210.164,114.243l-.432.346a1.917,1.917,0,0,0-.39.445,5.379,5.379,0,0,0-.728.212c-1.54.552-4.07.814-4.971-.844-.74-1.36.247-3,1.338-3.953s-.035-1.681.61-2.268,1.367.291,1.6,1.367a2.58,2.58,0,0,1-1.133,2.558c-.814.727-.7,2.587.959,2.209a15.291,15.291,0,0,0,2.205-.949Z"/><path class="cls-2" d="M144.755,84.93c-3.666,1.049,5.94,2.019,3.61,3.475-1.7,1.06,2.913,2.99,4.773,4.4a7.834,7.834,0,0,0,1.4.078c-3.489-6.854-4.556-12.047-7.5-14.018-2.657-1.779-6.247.228-7.231,3.011C144.292,81.568,148.42,83.88,144.755,84.93Z"/><path class="cls-2" d="M152.941,109.7c1.3-1.1,1.074,1.223,1.106,2.181.025.758,3.567-.5,4.33,1.511.429-.141.854-.3,1.278-.465q1.022-.46,2.024-1c-.4-4.343-3.756-8.864-9.991-8.313,1.18,1.033,2.307,2.725,0,2.82s-1.713,2.181-2.968,3.426C150.515,110.232,151.643,110.8,152.941,109.7Z"/><path class="cls-2" d="M145.7,101.751c-.963.5-2.337.8-1.814-.712s-.971-1.654-1.455-2.777c-.694,1.064-1.341,1.647-.964,2.759s-1.059.382-1.684.16-.6,3.978-3.558,1.756c1.47-.182.725-1.383-.355-2.455a3.158,3.158,0,0,1-.232-3.735,6.545,6.545,0,0,0,3.223,2.839c-1.227-1.786-1.656-3.352-.428-5.044a3.771,3.771,0,0,1,2.759-1.274c1.7,0,7.764.743,10.5,3.491,2.823,2.832,3.933,1.133,4.718,1.975s-4.655,1.408-.794,2.238c3.929.845,7.764,4.475,10.667,7.979a40.043,40.043,0,0,0,3.6-3.1l.595-.579.6.579c.9.874,1.826,1.686,2.768,2.446,6.424-4.827,15.474-12.009,16.261-18.962,1.078-9.537,3.9-9.343,5.82-8.725a4.015,4.015,0,0,0-5.768-3.525,3.254,3.254,0,0,0-1.4,2.376c-1.615-1.906-2.549-4.548-1.717-6.328-1.49.017-4.628,2.357-1.973,8.27-3.281-2.664-6.178-.758-7.513,2.472,1.719-.865,9.429,1.53,8.312,7.554-1.805-1.783-2.638-2.3-3.1-1.374s.233,5.708-.4,6.354-1.791-3.427-2.954-1.554-.5,5.031-2.369,6.178a1.235,1.235,0,0,1-1.495-.2c.91-2.586.492-5.091-1.231-5.987a2.771,2.771,0,0,0-3.446.552,4.329,4.329,0,0,1,1.772,3.658c-1.532-1.9-2.646-1.277-2.968-.747s-.095,1.614.407,2.96a2.244,2.244,0,0,1-.992,3.013c-.582-1.169-1.1-2.279-1.541-3.069-.95-1.692-2.259-1.057-3.827-2.587s-1.223-5.1-1.946-7.18-1.754,2.267-2.228,1.5,1.252-5.283,1.008-6.287-1.17-.683-3.322.66c.2-5.068,5.741-6.378,8.489-5.986-.056,2.063.158,3.627.863,4.246.782.688,2.878,1.127,4.381-2.687,1.031,2,.144,5.5-1,6.751a4.65,4.65,0,0,0,5.8-.845c3.187-3.173.886-10-5.05-14.036-5.07-3.447-11.1-2.185-13.955,2.327.449-2.006.463-3.8-.558-4.707a4.015,4.015,0,0,0-6.4,2.168c2.012-.179,4.806.252,3.759,9.793-.314,2.875.74,6.1,2.452,9.324-6.823,1.18-11.842-6.665-16.132-6.835-4.495-.178-5.226,3.4-10.64,4.08a10.53,10.53,0,0,0,6.158,3.179l.173-.028c.18.02.359.034.539.04-4.287,2.061-4.453,4.9-3.737,6.956a4.349,4.349,0,0,1-.859,3.9,3.849,3.849,0,0,0,2.822-1.933C135.558,107.069,143.779,108.291,145.7,101.751Z"/><path class="cls-2" d="M182.284,113.345c.95-2.572,4.6-1.121,4.605-1.861.008-.958-.273-3.271,1.052-2.207s2.439.472,4.226.056c-1.285-1.214-.741-3.314-3.051-3.353s-1.225-1.757-.069-2.818c-6.29-.4-9.542,4.369-9.794,8.75A31.715,31.715,0,0,0,182.284,113.345Z"/><path class="cls-2" d="M198.423,123.862a10.847,10.847,0,0,0-.546-3.726c-.339-.938-.622-1.544-1.556-1.414-.82.113-1.421.349-1.526-1.035-.077-1.031-1.891-1.135-2.77-1.006v0l-.861.135-.066-.526c-7.646-.537-14.644-4.048-20.6-9.827-5.955,5.779-12.954,9.29-20.6,9.827l-.065.526-.861-.135v0c-.88-.129-2.693-.025-2.771,1.006-.1,1.384-.705,1.148-1.525,1.035-.934-.13-1.217.476-1.556,1.414a10.847,10.847,0,0,0-.546,3.726q-.055,1.5-.058,3.014a82.553,82.553,0,0,0,.759,11.186,84.889,84.889,0,0,0,2,9.859c4.365,15.951,13.59,28.394,25.218,33.579,11.627-5.185,20.853-17.628,25.218-33.579a84.889,84.889,0,0,0,2-9.859,82.716,82.716,0,0,0,.758-11.186Q198.48,125.36,198.423,123.862Zm-38.941,25.964a10.177,10.177,0,1,1,8.993-14.98h-2.209a8.333,8.333,0,0,0-6.837-3.592,8.4,8.4,0,0,0,.027,16.789,8.411,8.411,0,0,0,6.891-3.725h2.208A10.426,10.426,0,0,1,159.482,149.826Zm21.816,0a10.2,10.2,0,1,1-.027-20.381c5.215,0,8.541,3.592,9.313,5.587H188.3a8.189,8.189,0,0,0-7-3.8,8.411,8.411,0,1,0,.08,16.815,8.341,8.341,0,0,0,7.955-5.826h-6.462v-1.783h8.83A10.344,10.344,0,0,1,181.3,149.826Z"/><path class="cls-2" d="M208.139,99.7c.482-2.128,0-4.926-4.491-6.5a4.138,4.138,0,0,0,2.675-1.33,5.719,5.719,0,0,1-3.808-.674,6.933,6.933,0,0,0-4.854-.471c-.939-1.748,3.972-2.723,8.684-1.314-.46-3.878-4.509-7.512-8.456-5.989-2.538.98-4.578,3.549-7.112,7.06-1.128,5.235-6.165,10.349-12.177,15.209,3.417-1.513,7.76-3.265,6.383-4.526-2.242-2.054,11-3.266,8.417-5.822-1.611-1.595,4.366-2.737,6.558-1.7a3.9,3.9,0,0,1,1.567,5.316,6.556,6.556,0,0,0,2.886-3.182,3.16,3.16,0,0,1,.187,3.737c-.955,1.186-1.56,2.464-.08,2.479-2.693,2.539-3.135-1.637-3.731-1.347s-1.942,1.176-1.691.029-.459-1.655-1.267-2.634c-.355,1.17-1.822,1.48-1.134,2.921s-.712,1.3-1.725.912c2.64,6.283,10.673,4.151,11.438-.006a3.847,3.847,0,0,0,3.021,1.607A4.352,4.352,0,0,1,208.139,99.7Z"/></g></g></svg>