<svg xmlns="http://www.w3.org/2000/svg" width="341" height="253" viewBox="0 0 341 253"><defs><style>.cls-1{fill:#02f;}.cls-2{fill:#fff;}</style></defs><title>ns</title><g id="Layer_2" data-name="Layer 2"><g id="Layer_1-2" data-name="Layer 1"><rect class="cls-1" width="341" height="253"/><path class="cls-2" d="M161.715,125.405a15.177,15.177,0,0,0-10.705-4.381H121.363l10.979-10.952H160.07a4.42,4.42,0,0,1,3.012,1.369L179.277,127.6a15.177,15.177,0,0,0,10.705,4.381h29.655l-10.988,10.952H180.93a4.42,4.42,0,0,1-3.012-1.369Zm8.51,23.82a16.7,16.7,0,0,0,10.705,4.655h32.116L240.5,126.5,213.049,99.12H197.676l21.961,21.9H189.99a5.78,5.78,0,0,1-3.012-1.095l-16.2-16.154A16.7,16.7,0,0,0,160.07,99.12H127.951L100.5,126.5l27.451,27.38h15.373l-21.961-21.9H151.01a5.78,5.78,0,0,1,3.012,1.095Z"/></g></g></svg>