<svg xmlns="http://www.w3.org/2000/svg" viewBox="0 0 260 200"><path d="M121.215,98.905a15.177,15.177,0,0,0-10.7-4.381H80.863L91.842,83.572H119.57a4.42,4.42,0,0,1,3.012,1.369L138.777,101.1a15.177,15.177,0,0,0,10.705,4.381h29.655l-10.988,10.952H140.43a4.42,4.42,0,0,1-3.012-1.369Zm8.51,23.82a16.7,16.7,0,0,0,10.705,4.655h32.116L200,100,172.549,72.62H157.176l21.961,21.9H149.49a5.78,5.78,0,0,1-3.012-1.095l-16.2-16.154A16.7,16.7,0,0,0,119.57,72.62H87.451L60,100l27.451,27.38h15.373l-21.961-21.9H110.51a5.78,5.78,0,0,1,3.012,1.095Z"/></svg>