<svg xmlns="http://www.w3.org/2000/svg" width="341" height="253" viewBox="0 0 341 253"><defs><style>.cls-1{fill:#02f;}.cls-2{fill:#fff;}</style></defs><title>wn</title><g id="Layer_2" data-name="Layer 2"><g id="Layer_1-2" data-name="Layer 1"><rect class="cls-1" width="341" height="253"/><path class="cls-2" d="M240.27,123.922h8.76A4.612,4.612,0,0,0,247.7,120.9a4.317,4.317,0,0,0-3.119-1.088,4.045,4.045,0,0,0-3,1.183,4.584,4.584,0,0,0-1.306,2.931Zm9.41,5.336,3.472,3.049a9.637,9.637,0,0,1-8.342,4.5,8.9,8.9,0,0,1-6.9-2.919,12.627,12.627,0,0,1,0-15.5,8.669,8.669,0,0,1,6.7-2.9,8.514,8.514,0,0,1,6.652,2.919,11.233,11.233,0,0,1,2.612,7.758v1.49H240.309a5.464,5.464,0,0,0,1.275,3.564,4.118,4.118,0,0,0,3.18,1.245,4.472,4.472,0,0,0,2.842-.861,9.915,9.915,0,0,0,2.12-2.289Zm7.9-.231v-8.8h-3.119v-4.187H257.7v-4.952h4.685v4.952H267.5v4.191h-5.023v8.341a3.609,3.609,0,0,0,.537,2.249,2.78,2.78,0,0,0,2.182.646h1.643v4.762H264.75c-2.719,0-4.578-.569-5.592-1.713s-1.521-2.973-1.521-5.487m-133.392,7.2L119.8,116.037h4.833l2.673,13.488h.123l4.5-13.488h4.5l4.164,13.449h.076l3.025-13.449h4.76l-4.84,20.192h-4.882l-4.609-14.513h-.076l-4.993,14.513Zm32.795-8.265a5.3,5.3,0,0,0-2.5,1.091,2.033,2.033,0,0,0-.59,1.428c0,1.383,1,2.059,2.98,2.059a5.514,5.514,0,0,0,3.364-.845,2.593,2.593,0,0,0,1.122-2.109v-3.5h-.077a1.771,1.771,0,0,1-.323.476,4.94,4.94,0,0,1-1.167.584,22.644,22.644,0,0,1-2.827.854Zm4.993,8.265v-1.936h-.077c-.049.072-.118.169-.19.283a4.092,4.092,0,0,1-.573.593,6.181,6.181,0,0,1-1.03.76,5.842,5.842,0,0,1-1.551.612,8.256,8.256,0,0,1-2.12.267c-2.443,0-4.271-.576-5.469-1.736a5.626,5.626,0,0,1-1.813-4.246,5.028,5.028,0,0,1,1.567-4,12.472,12.472,0,0,1,5.284-2.289,23.09,23.09,0,0,0,4.348-1.337,1.555,1.555,0,0,0,.876-1.413,1.789,1.789,0,0,0-.845-1.521,4.362,4.362,0,0,0-2.566-.615,3.919,3.919,0,0,0-2.888.891,5.982,5.982,0,0,0-1.367,2.412l-4.15-1.7a7.851,7.851,0,0,1,2.818-4.174,8.692,8.692,0,0,1,5.484-1.623,9.243,9.243,0,0,1,6.068,1.945c1.567,1.291,2.366,3.3,2.366,6.019v12.812h-4.172Zm8.741-7.2v-8.8h-3.128v-4.194h3.242v-4.952h4.685v4.952h5.1v4.191h-5.03v8.341a3.575,3.575,0,0,0,.538,2.249,2.738,2.738,0,0,0,2.166.646h1.64v4.762H177.9q-4.08,0-5.6-1.713c-1.029-1.141-1.536-2.973-1.536-5.487m15.823-5.1h8.757A4.724,4.724,0,0,0,194,120.9a4.365,4.365,0,0,0-3.118-1.088,4,4,0,0,0-3,1.183,4.6,4.6,0,0,0-1.321,2.931m9.4,5.336,3.489,3.047a9.638,9.638,0,0,1-8.342,4.5,8.918,8.918,0,0,1-6.9-2.919,12.652,12.652,0,0,1-.02-15.5,8.645,8.645,0,0,1,6.69-2.916,8.509,8.509,0,0,1,6.643,2.915,11.163,11.163,0,0,1,2.612,7.742v1.49H186.579a5.385,5.385,0,0,0,1.275,3.564,4.174,4.174,0,0,0,3.18,1.229,4.56,4.56,0,0,0,2.837-.86,9.8,9.8,0,0,0,2.116-2.3m6.8,6.959V116.037h4.685v2.135h.077a4.371,4.371,0,0,1,1.69-1.828,4.643,4.643,0,0,1,2.458-.687,4.5,4.5,0,0,1,1.828.38l-.764,4.8a4.518,4.518,0,0,0-1.567-.308q-3.464,0-3.461,4.609v11.087h-4.946Zm12.584,0V116.037h4.763v1.945h.077a6.53,6.53,0,0,1,2.276-1.792,6.752,6.752,0,0,1,3.042-.725,6.923,6.923,0,0,1,5.254,2,7.76,7.76,0,0,1,1.905,5.546V136.24h-4.962v-12a5.171,5.171,0,0,0-.8-3.134,3.291,3.291,0,0,0-2.75-1.045,3.585,3.585,0,0,0-3.887,3.856V136.27h-4.946ZM114.254,121.32l-.123-.569-.107.569A18.592,18.592,0,0,1,96.346,136.1c-4.946,0-8.873-2.319-10-5.9l-.157-.507-.077.507a17.408,17.408,0,0,0,.4,6.575,12.143,12.143,0,0,0,5.669,8.265,11.022,11.022,0,0,0,5.506,1.383,16.592,16.592,0,0,0,10.877-4.517,19.978,19.978,0,0,0,6.313-12.274,23.428,23.428,0,0,0-.6-8.357"/><path class="cls-2" d="M85.206,111.448a20.873,20.873,0,0,1,2.553.164,18.461,18.461,0,0,1,9.31,3.922,16.736,16.736,0,0,1,5.192,7.062c1.341,3.641.911,7.036-1.177,9.318l-.353.381.485-.185a17.136,17.136,0,0,0,5.494-3.628,12.082,12.082,0,0,0,4.327-9.033,12.65,12.65,0,0,0-5.008-9.464,18.671,18.671,0,0,0-11.813-4.1,20.267,20.267,0,0,0-7.85,1.6,23.728,23.728,0,0,0-6.944,4.7l-.418.39.553-.189a16.987,16.987,0,0,1,5.653-.922"/><path class="cls-2" d="M84.262,140.023a18.517,18.517,0,0,1-1.376-9.125,17.164,17.164,0,0,1,2.7-7.662c2.109-3.176,5.122-5.07,8.068-5.07a7.1,7.1,0,0,1,1.53.163l.523.113-.4-.327a17.253,17.253,0,0,0-5.883-2.942,14.765,14.765,0,0,0-4.379-.706,10.924,10.924,0,0,0-5.622,1.485c-3.412,2-5.609,6.025-5.886,10.777A19.464,19.464,0,0,0,81.4,143.29a23.42,23.42,0,0,0,7.531,3.659l.545.169-.436-.377a17.788,17.788,0,0,1-4.766-6.724"/></g></g></svg>