<svg class="icon" xmlns="http://www.w3.org/2000/svg" width="27" height="17" viewBox="0 0 27 17"><path class="a" d="M10.9,7.6a2.9,2.9,0,0,0,2.555-3.166C13.452,1.454,11.361,0,8.713,0H0V16.648H8.713s5.32.166,5.32-4.915c0,0,.232-4.134-3.137-4.134M3.84,2.958H8.713S9.9,2.958,9.9,4.69,9.2,6.674,8.411,6.674H3.84ZM8.489,13.689H3.84V9.239H8.713s1.765-.022,1.765,2.287c0,1.925-1.291,2.144-1.99,2.163"/><path class="a" d="M21.128,4.235c-6.44,0-6.435,6.4-6.435,6.4S14.251,17,21.128,17c0,0,5.729.326,5.729-4.427H23.91s.1,1.79-2.685,1.79a2.718,2.718,0,0,1-2.946-2.9h8.676s.949-7.227-5.827-7.227m-2.883,5a2.985,2.985,0,0,1,2.947-2.565,2.481,2.481,0,0,1,2.553,2.565Z"/><rect class="a" x="17.525" y="0.98" width="6.909" height="2.051"/></svg>