<svg class="icon" xmlns="http://www.w3.org/2000/svg" width="24" height="24" viewBox="0 0 24 24"><path class="a" d="M17.169,24H6.831A6.838,6.838,0,0,1,0,17.169V6.83A6.838,6.838,0,0,1,6.831,0H17.169A6.839,6.839,0,0,1,24,6.83V17.169A6.839,6.839,0,0,1,17.169,24ZM6.831,2.057A4.779,4.779,0,0,0,2.057,6.83V17.169a4.779,4.779,0,0,0,4.774,4.774H17.169a4.779,4.779,0,0,0,4.774-4.774V6.83a4.779,4.779,0,0,0-4.774-4.773Z"/><path class="a" d="M12,18.145A6.145,6.145,0,1,1,18.145,12,6.152,6.152,0,0,1,12,18.145ZM12,7.912A4.088,4.088,0,1,0,16.088,12,4.093,4.093,0,0,0,12,7.912Z"/><circle class="a" cx="18.409" cy="5.503" r="1.477"/></svg>