<svg class="icon" xmlns="http://www.w3.org/2000/svg" width="25" height="14" viewBox="0 0 25 14"><defs></defs><title>soundcloud</title><path class="a" d="M.849,7.211a.814.814,0,0,0-.6.253A.843.843,0,0,0,0,8.08v3.406a.817.817,0,0,0,.337.711.913.913,0,0,0,.722.171.813.813,0,0,0,.506-.259,1.035,1.035,0,0,0,.145-.622V8.08a.843.843,0,0,0-.249-.616.829.829,0,0,0-.611-.253"/><path class="a" d="M6.212,5.191a.837.837,0,0,0-.616.258.853.853,0,0,0-.256.623v7.247a.581.581,0,0,0,.245.511,1.075,1.075,0,0,0,.628.17,1.03,1.03,0,0,0,.611-.17.588.588,0,0,0,.237-.511V6.072a.862.862,0,0,0-.25-.623.808.808,0,0,0-.6-.258"/><path class="a" d="M3.525,4.146a.814.814,0,0,0-.6.253.824.824,0,0,0-.249.6v7.94a.588.588,0,0,0,.237.511,1.03,1.03,0,0,0,.612.17,1.049,1.049,0,0,0,.622-.17.587.587,0,0,0,.239-.511V5a.858.858,0,0,0-.861-.857"/><path class="a" d="M21.057,6.072a3.783,3.783,0,0,0-1.512.305,6.925,6.925,0,0,0-1.1-3.224A6.854,6.854,0,0,0,15.961.845,6.76,6.76,0,0,0,12.646,0,6.578,6.578,0,0,0,11.1.188q-.361.117-.361.728V13.694a.351.351,0,0,0,.053.165.277.277,0,0,0,.157.129L21.069,14a3.778,3.778,0,0,0,2.774-1.163A3.834,3.834,0,0,0,25,10.03a3.819,3.819,0,0,0-1.157-2.795,3.789,3.789,0,0,0-2.786-1.163"/><path class="a" d="M9.144.493a.829.829,0,0,0-.755.223,1.109,1.109,0,0,0-.373.893V13.354q0,.646.861.645t.861-.645V1.609q0-.986-.593-1.116"/></svg>