<svg class="icon" xmlns="http://www.w3.org/2000/svg" width="22" height="18" viewBox="0 0 22 18"><path class="a" d="M21.392.332a8.98,8.98,0,0,1-2.866,1.1,4.51,4.51,0,0,0-7.808,3.109,4.578,4.578,0,0,0,.116,1.036A12.786,12.786,0,0,1,1.531.831,4.567,4.567,0,0,0,2.928,6.9,4.464,4.464,0,0,1,.884,6.33v.056A4.539,4.539,0,0,0,4.5,10.843,4.44,4.44,0,0,1,3.315,11a4.528,4.528,0,0,1-.85-.081,4.523,4.523,0,0,0,4.217,3.156,9.014,9.014,0,0,1-5.606,1.945A9,9,0,0,1,0,15.959,12.7,12.7,0,0,0,6.919,18,12.8,12.8,0,0,0,19.761,5.07c0-.2,0-.393-.012-.587A9.224,9.224,0,0,0,22,2.13a8.968,8.968,0,0,1-2.592.715A4.55,4.55,0,0,0,21.392.332"/></svg>