<svg id="Layer_1" data-name="Layer 1" xmlns="http://www.w3.org/2000/svg" width="1920" height="1080" viewBox="0 0 1920 1080"><defs><style>.cls-1{fill:#e0dcd4;}.cls-2{fill:#ef6c03;}.cls-3{fill:#847369;}.cls-4{fill:#464541;}.cls-5{fill:#c6bdb4;}.cls-6{fill:#f8f6f1;}.cls-7{fill:#387200;}.cls-8{fill:#6cb226;}</style></defs><title>ar3</title><rect class="cls-1" width="1920" height="1080"/><path class="cls-2" d="M709.091,289.68,848.81,429.749c28.312-28.467,67.777-46.636,110.966-46.794l.2-197.719C865.246,185.335,776.019,222.593,709.091,289.68Z"/><path class="cls-3" d="M803.433,540.142A156.733,156.733,0,0,1,848.81,429.749L709.091,289.68a352.848,352.848,0,0,0-103.375,250.5c0,.243.008.057.009.963H803.442C803.441,540.233,803.433,540.385,803.433,540.142Z"/><path class="cls-4" d="M803.442,540.613l-197.72-.2A352.311,352.311,0,0,0,709.588,790.643c.114.114.232.223.346.337L849.793,651.121A156.438,156.438,0,0,1,803.442,540.613Z"/><path class="cls-5" d="M960.633,894.515c.222,0,.033-.008.939-.008V696.79c-.906,0-.717.008-.939.008A156.744,156.744,0,0,1,850.118,651.3L710.184,791.023A352.47,352.47,0,0,0,960.633,894.515Z"/><path class="cls-1" d="M1211.591,790.168,1071.732,650.309a156.44,156.44,0,0,1-110.8,46.482l-.2,197.719a352.316,352.316,0,0,0,250.4-103.867C1211.285,790.486,1211.435,790.325,1211.591,790.168Z"/><path class="cls-6" d="M1211.157,790.613A352.523,352.523,0,0,0,1315,539.785c0-.123,0-.458,0-.458H1117.279s0,.335,0,.458a156.534,156.534,0,0,1-45.845,110.782Z"/><path class="cls-7" d="M1211.128,289.1c-.145-.145-.295-.284-.44-.429L1070.829,428.533a156.438,156.438,0,0,1,46.449,110.926l197.72.2A352.322,352.322,0,0,0,1211.128,289.1Z"/><path class="cls-8" d="M960.276,185.231c-.145,0-.516,0-.516,0V382.954s.371-.006.516-.006a156.52,156.52,0,0,1,110.659,45.729l139.982-139.719A352.366,352.366,0,0,0,960.276,185.231Z"/><path class="cls-4" d="M23.662,295.566c-5.84,0-10.119-4.119-10.119-9.959a8.61,8.61,0,0,1,3.439-7.4l2.52,2.76a5.119,5.119,0,0,0-2.239,4.439c0,3.48,2.639,5.839,6.4,5.839s6.439-2.359,6.439-5.839a5.193,5.193,0,0,0-2.32-4.439l2.6-2.76a8.708,8.708,0,0,1,3.44,7.4C33.82,291.447,29.5,295.566,23.662,295.566Z"/><path class="cls-4" d="M23.662,272.559c-5.559,0-10.119-3.76-10.119-9.919s4.56-9.918,10.119-9.918c5.519,0,10.158,3.759,10.158,9.918S29.181,272.559,23.662,272.559Zm0-15.478c-3.4,0-6.4,1.96-6.4,5.559,0,3.559,3,5.559,6.4,5.559,3.439,0,6.439-2,6.439-5.559C30.1,259.041,27.1,257.081,23.662,257.081Z"/><path class="cls-4" d="M33.34,244.759H6.665v-4.2H33.34Z"/><path class="cls-4" d="M23.662,232.64c-5.559,0-10.119-3.76-10.119-9.919S18.1,212.8,23.662,212.8c5.519,0,10.158,3.759,10.158,9.918S29.181,232.64,23.662,232.64Zm0-15.478c-3.4,0-6.4,1.96-6.4,5.559,0,3.56,3,5.559,6.4,5.559,3.439,0,6.439-2,6.439-5.559C30.1,219.122,27.1,217.162,23.662,217.162Z"/><path class="cls-4" d="M33.34,204.88H14.023v-4.2h2.8a8.383,8.383,0,0,1-3.28-6.279H17.7a5.8,5.8,0,0,0-.12,1.28,6.593,6.593,0,0,0,2.6,5H33.34Z"/><path class="cls-4" d="M30.78,188.652l-3-1.92a9.918,9.918,0,0,0,2.679-6.519c0-2.519-1.04-3.839-2.559-3.839-3.8,0-1.08,11.678-8.519,11.678-3.159,0-5.839-2.719-5.839-7.6a11.033,11.033,0,0,1,2.68-7.479l2.959,1.759a7.878,7.878,0,0,0-2.319,5.72c0,2.2,1.039,3.559,2.4,3.559,3.4,0,.84-11.678,8.519-11.678,3.439,0,6.039,2.839,6.039,8.039A11.7,11.7,0,0,1,30.78,188.652Z"/><path class="cls-4" d="M1131.429,185.529l1.18-3.5h-2.041l-1.16,3.5h-1.6l1.179-3.5h-2.02l.44-1.38h2.04l1.2-3.581h-2.04l.42-1.38h2.08l1.162-3.5h1.6l-1.16,3.5h2.02l1.161-3.5h1.6l-1.18,3.5h2.041l-.4,1.38h-2.08l-1.221,3.581h2.122l-.441,1.38h-2.141l-1.16,3.5Zm2.841-8.462h-2.021l-1.2,3.581h2Z"/><path class="cls-4" d="M1140.13,178.868c0-3.841,2.02-6.882,5.882-6.882a5.24,5.24,0,0,1,3.82,1.481l-1.08,1.76a3.5,3.5,0,0,0-2.74-1.16c-2.241,0-3.522,2.06-3.522,4.4v.38a4.63,4.63,0,0,1,3.581-1.881,4.176,4.176,0,0,1,4.482,4.322c0,2.46-1.941,4.481-4.921,4.481C1141.711,185.77,1140.13,182.589,1140.13,178.868Zm8.042,2.5c0-1.64-1.28-2.38-2.721-2.38a3.609,3.609,0,0,0-2.921,1.56c.12,1.441.921,3.141,2.961,3.141A2.483,2.483,0,0,0,1148.172,181.368Z"/><path class="cls-4" d="M1152.642,178.868a6.72,6.72,0,0,1,7-6.9,5.983,5.983,0,0,1,5.34,2.981l-1.98,1.04a3.944,3.944,0,0,0-3.36-1.94,4.826,4.826,0,0,0,0,9.642,3.988,3.988,0,0,0,3.36-1.94l2,1a6.1,6.1,0,0,1-5.361,3.021A6.731,6.731,0,0,1,1152.642,178.868Z"/><path class="cls-4" d="M1167.512,185.529V172.187h6.561c2.461,0,3.8,1.52,3.8,3.4a3.014,3.014,0,0,1-2.32,3.061,3.256,3.256,0,0,1,2.581,3.261c0,2.08-1.361,3.62-3.881,3.62Zm7.962-9.562a1.689,1.689,0,0,0-1.861-1.72h-3.76v3.441h3.76A1.669,1.669,0,0,0,1175.474,175.967Zm.259,5.641a1.84,1.84,0,0,0-2.019-1.86h-3.861v3.721h3.861A1.791,1.791,0,0,0,1175.733,181.608Z"/><path class="cls-4" d="M1183.524,185.529V175.207l-2.18,2.281-1.361-1.421,3.841-3.88h2.041v13.342Z"/><path class="cls-4" d="M1188.671,185.529v-1.86c5.182-3.921,7.222-5.641,7.222-7.582,0-1.4-1.22-2.02-2.441-2.02a4.648,4.648,0,0,0-3.6,1.58l-1.361-1.52a6.342,6.342,0,0,1,4.941-2.141c2.581,0,4.821,1.441,4.821,4.1,0,2.481-2.261,4.681-5.821,7.382h5.9v2.06Z"/><path class="cls-4" d="M1201.088,183.709l1.34-1.621a4.512,4.512,0,0,0,3.581,1.6,2.451,2.451,0,0,0,2.74-2.36,2.376,2.376,0,0,0-2.681-2.361,4.057,4.057,0,0,0-2.92,1.14l-1.661-.48v-7.441h8.742v2.06h-6.4v3.841a4.469,4.469,0,0,1,3.021-1.141,4.131,4.131,0,0,1,4.281,4.3c0,2.76-2.121,4.521-5.1,4.521A6.142,6.142,0,0,1,1201.088,183.709Z"/><path class="cls-4" d="M715.429,185.529l1.18-3.5h-2.041l-1.16,3.5h-1.6l1.179-3.5h-2.02l.44-1.38h2.04l1.2-3.581h-2.04l.42-1.38h2.08l1.162-3.5h1.6l-1.16,3.5h2.02l1.161-3.5h1.6l-1.18,3.5h2.041l-.4,1.38h-2.08l-1.221,3.581h2.122l-.441,1.38h-2.141l-1.16,3.5Zm2.841-8.462h-2.021l-1.2,3.581h2Z"/><path class="cls-4" d="M724.618,185.529V172.187h9.143v2.06h-6.8v3.441h6.661v2.06h-6.661v3.721h6.8v2.06Z"/><path class="cls-4" d="M736.962,185.529V172.187H746.1v2.06h-6.8v3.441h6.661v2.06H739.3v3.721h6.8v2.06Z"/><path class="cls-4" d="M748.533,178.868c0-3.841,2.021-6.882,5.882-6.882a5.239,5.239,0,0,1,3.82,1.481l-1.08,1.76a3.5,3.5,0,0,0-2.74-1.16c-2.241,0-3.52,2.06-3.52,4.4v.38a4.624,4.624,0,0,1,3.58-1.881,4.175,4.175,0,0,1,4.481,4.322c0,2.46-1.94,4.481-4.921,4.481C750.114,185.77,748.533,182.589,748.533,178.868Zm8.042,2.5c0-1.64-1.28-2.38-2.721-2.38a3.607,3.607,0,0,0-2.92,1.56c.12,1.441.92,3.141,2.961,3.141A2.483,2.483,0,0,0,756.575,181.368Z"/><path class="cls-4" d="M761.046,178.868a6.72,6.72,0,0,1,7-6.9,5.985,5.985,0,0,1,5.341,2.981l-1.981,1.04a3.942,3.942,0,0,0-3.36-1.94,4.826,4.826,0,0,0,0,9.642,3.986,3.986,0,0,0,3.36-1.94l2,1a6.1,6.1,0,0,1-5.361,3.021A6.731,6.731,0,0,1,761.046,178.868Z"/><path class="cls-4" d="M775.178,178.868c0-3.361,1.581-6.882,5.342-6.882,3.74,0,5.321,3.521,5.321,6.882,0,3.34-1.581,6.9-5.321,6.9C776.759,185.77,775.178,182.208,775.178,178.868Zm8.282,0c0-2.561-.761-4.8-2.94-4.8s-2.961,2.24-2.961,4.8c0,2.54.78,4.821,2.961,4.821C782.68,183.689,783.46,181.408,783.46,178.868Z"/><path class="cls-4" d="M787.424,183.609l1.28-1.541a4.932,4.932,0,0,0,3.681,1.621c1.76,0,2.78-.82,2.78-2.041,0-1.32-1.04-1.9-2.961-1.9-.559,0-1.32.02-1.519.04v-2.121c.219.021,1,.021,1.519.021,1.581,0,2.761-.541,2.761-1.761s-1.22-1.86-2.7-1.86a4.628,4.628,0,0,0-3.461,1.48l-1.2-1.46a6.187,6.187,0,0,1,4.88-2.1c2.881,0,4.8,1.361,4.8,3.581a3.224,3.224,0,0,1-2.88,3.061,3.383,3.383,0,0,1,3.1,3.241c0,2.28-1.941,3.9-5.041,3.9A6.242,6.242,0,0,1,787.424,183.609Z"/><path class="cls-4" d="M1332.429,410.529l1.18-3.5h-2.041l-1.16,3.5h-1.6l1.179-3.5h-2.02l.44-1.38h2.04l1.2-3.581h-2.04l.42-1.38h2.08l1.162-3.5h1.6l-1.16,3.5h2.02l1.161-3.5h1.6l-1.18,3.5h2.041l-.4,1.38h-2.08l-1.221,3.581h2.122l-.441,1.38h-2.141l-1.16,3.5Zm2.841-8.462h-2.021l-1.2,3.581h2Z"/><path class="cls-4" d="M1340.517,408.609l1.28-1.541a4.932,4.932,0,0,0,3.681,1.621c1.759,0,2.78-.82,2.78-2.041,0-1.32-1.04-1.9-2.961-1.9-.56,0-1.32.02-1.52.04v-2.121c.22.021,1,.021,1.52.021,1.581,0,2.761-.541,2.761-1.761s-1.22-1.86-2.7-1.86a4.63,4.63,0,0,0-3.461,1.48l-1.2-1.46a6.188,6.188,0,0,1,4.881-2.1c2.881,0,4.8,1.361,4.8,3.581a3.225,3.225,0,0,1-2.88,3.061,3.384,3.384,0,0,1,3.1,3.241c0,2.28-1.941,3.9-5.041,3.9A6.242,6.242,0,0,1,1340.517,408.609Z"/><path class="cls-4" d="M1353.046,407.088c0-1.68,1.381-2.9,3-3.44-1.5-.48-2.78-1.481-2.78-3.161,0-2.48,2.54-3.5,4.9-3.5s4.9,1.021,4.9,3.5c0,1.68-1.28,2.681-2.78,3.161,1.62.54,3,1.76,3,3.44,0,2.4-2.4,3.682-5.121,3.682C1355.427,410.77,1353.046,409.489,1353.046,407.088Zm7.862-.3c0-1.381-1.921-1.981-2.741-2.1-.84.12-2.74.72-2.74,2.1,0,1.18,1.22,1.9,2.74,1.9C1359.647,408.689,1360.908,407.969,1360.908,406.789Zm-.22-5.942c0-1.14-1.081-1.78-2.521-1.78s-2.521.64-2.521,1.78c0,1.24,1.721,1.72,2.521,1.861C1358.987,402.567,1360.688,402.087,1360.688,400.847Z"/><path class="cls-4" d="M1367.046,410.529l5.041-11.282h-6.922v-2.06h9.622v1.62l-5.161,11.722Z"/><path class="cls-4" d="M1379.646,410.529V400.207l-2.18,2.281-1.361-1.421,3.841-3.88h2.041v13.342Z"/><path class="cls-4" d="M1384.963,403.868c0-3.361,1.581-6.882,5.342-6.882,3.74,0,5.321,3.521,5.321,6.882,0,3.34-1.581,6.9-5.321,6.9C1386.544,410.77,1384.963,407.208,1384.963,403.868Zm8.282,0c0-2.561-.761-4.8-2.94-4.8s-2.961,2.24-2.961,4.8c0,2.54.78,4.821,2.961,4.821C1392.465,408.689,1393.245,406.408,1393.245,403.868Z"/><path class="cls-4" d="M1398.043,403.868c0-3.361,1.581-6.882,5.342-6.882,3.74,0,5.321,3.521,5.321,6.882,0,3.34-1.581,6.9-5.321,6.9C1399.624,410.77,1398.043,407.208,1398.043,403.868Zm8.282,0c0-2.561-.761-4.8-2.94-4.8s-2.961,2.24-2.961,4.8c0,2.54.78,4.821,2.961,4.821C1405.545,408.689,1406.325,406.408,1406.325,403.868Z"/><path class="cls-4" d="M1332.429,695.529l1.18-3.5h-2.041l-1.16,3.5h-1.6l1.179-3.5h-2.02l.44-1.38h2.04l1.2-3.581h-2.04l.42-1.379h2.08l1.162-3.5h1.6l-1.16,3.5h2.02l1.161-3.5h1.6l-1.18,3.5h2.041l-.4,1.379h-2.08l-1.221,3.581h2.122l-.441,1.38h-2.141l-1.16,3.5Zm2.841-8.462h-2.021l-1.2,3.581h2Z"/><path class="cls-4" d="M1341.618,695.529V682.187h9.143v2.06h-6.8v3.441h6.661v2.06h-6.661v5.781Z"/><path class="cls-4" d="M1352.718,692.088c0-1.68,1.381-2.9,3-3.44-1.5-.48-2.781-1.48-2.781-3.161,0-2.48,2.541-3.5,4.9-3.5s4.9,1.021,4.9,3.5c0,1.681-1.28,2.681-2.78,3.161,1.62.54,3,1.76,3,3.44,0,2.4-2.4,3.682-5.121,3.682C1355.1,695.77,1352.718,694.489,1352.718,692.088Zm7.862-.3c0-1.381-1.921-1.98-2.741-2.1-.84.121-2.74.72-2.74,2.1,0,1.18,1.22,1.9,2.74,1.9C1359.319,693.689,1360.58,692.969,1360.58,691.789Zm-.221-5.941c0-1.141-1.08-1.782-2.52-1.782s-2.521.641-2.521,1.782c0,1.24,1.721,1.719,2.521,1.859C1358.659,687.567,1360.359,687.088,1360.359,685.848Z"/><path class="cls-4" d="M1365.945,695.529V682.187h9.143v2.06h-6.8v3.441h6.661v2.06h-6.661v5.781Z"/><path class="cls-4" d="M1377.147,688.867c0-3.84,2.021-6.881,5.882-6.881a5.243,5.243,0,0,1,3.821,1.481l-1.08,1.76a3.507,3.507,0,0,0-2.741-1.161c-2.24,0-3.521,2.061-3.521,4.4v.38a4.625,4.625,0,0,1,3.581-1.881,4.175,4.175,0,0,1,4.481,4.322c0,2.46-1.94,4.481-4.921,4.481C1378.729,695.77,1377.147,692.589,1377.147,688.867Zm8.042,2.5c0-1.639-1.28-2.38-2.72-2.38a3.606,3.606,0,0,0-2.921,1.561c.12,1.439.921,3.14,2.961,3.14A2.482,2.482,0,0,0,1385.189,691.368Z"/><path class="cls-4" d="M1390.405,695.529V682.187h9.143v2.06h-6.8v3.441h6.661v2.06h-6.661v5.781Z"/><path class="cls-4" d="M1401.606,688.867c0-3.359,1.582-6.881,5.342-6.881,3.74,0,5.322,3.522,5.322,6.881,0,3.342-1.582,6.9-5.322,6.9C1403.188,695.77,1401.606,692.209,1401.606,688.867Zm8.283,0c0-2.56-.761-4.8-2.941-4.8s-2.961,2.241-2.961,4.8c0,2.541.781,4.822,2.961,4.822C1409.108,693.689,1409.889,691.408,1409.889,688.867Z"/><path class="cls-4" d="M508.429,695.529l1.18-3.5h-2.041l-1.16,3.5h-1.6l1.179-3.5h-2.02l.44-1.38h2.04l1.2-3.581h-2.04l.42-1.379h2.08l1.162-3.5h1.6l-1.16,3.5h2.02l1.161-3.5h1.6l-1.18,3.5h2.041l-.4,1.379h-2.08l-1.221,3.581h2.122l-.441,1.38h-2.141l-1.16,3.5Zm2.841-8.462h-2.021l-1.2,3.581h2Z"/><path class="cls-4" d="M522.746,695.529v-3.02h-6.361v-1.88l5.48-8.442h3.221v8.261h1.78v2.061h-1.78v3.02Zm0-11.242-4.061,6.161h4.061Z"/><path class="cls-4" d="M528.9,688.867c0-3.84,2.02-6.881,5.881-6.881a5.243,5.243,0,0,1,3.821,1.481l-1.08,1.76a3.507,3.507,0,0,0-2.741-1.161c-2.24,0-3.521,2.061-3.521,4.4v.38a4.625,4.625,0,0,1,3.581-1.881,4.175,4.175,0,0,1,4.481,4.322c0,2.46-1.94,4.481-4.921,4.481C530.477,695.77,528.9,692.589,528.9,688.867Zm8.042,2.5c0-1.639-1.281-2.38-2.721-2.38a3.606,3.606,0,0,0-2.921,1.561c.12,1.439.921,3.14,2.961,3.14A2.483,2.483,0,0,0,536.938,691.368Z"/><path class="cls-4" d="M547.7,695.529v-3.02h-6.361v-1.88l5.48-8.442h3.221v8.261h1.78v2.061h-1.78v3.02Zm0-11.242-4.061,6.161H547.7Z"/><path class="cls-4" d="M553.91,693.709l1.34-1.621a4.513,4.513,0,0,0,3.581,1.6,2.452,2.452,0,0,0,2.74-2.361,2.376,2.376,0,0,0-2.68-2.36,4.063,4.063,0,0,0-2.92,1.139l-1.661-.479v-7.441h8.742v2.06h-6.4v3.841a4.473,4.473,0,0,1,3.021-1.141,4.131,4.131,0,0,1,4.281,4.3c0,2.761-2.121,4.522-5.1,4.522A6.143,6.143,0,0,1,553.91,693.709Z"/><path class="cls-4" d="M572.363,695.529v-3.02H566v-1.88l5.48-8.442H574.7v8.261h1.78v2.061H574.7v3.02Zm0-11.242-4.061,6.161h4.061Z"/><path class="cls-4" d="M580.916,695.529V685.207l-2.181,2.281-1.36-1.421,3.841-3.88h2.041v13.342Z"/><path class="cls-4" d="M508.429,410.529l1.18-3.5h-2.041l-1.16,3.5h-1.6l1.179-3.5h-2.02l.44-1.38h2.04l1.2-3.581h-2.04l.42-1.38h2.08l1.162-3.5h1.6l-1.16,3.5h2.02l1.161-3.5h1.6l-1.18,3.5h2.041l-.4,1.38h-2.08l-1.221,3.581h2.122l-.441,1.38h-2.141l-1.16,3.5Zm2.841-8.462h-2.021l-1.2,3.581h2Z"/><path class="cls-4" d="M517.22,407.088c0-1.68,1.381-2.9,3-3.44-1.5-.48-2.781-1.481-2.781-3.161,0-2.48,2.54-3.5,4.9-3.5s4.9,1.021,4.9,3.5c0,1.68-1.28,2.681-2.78,3.161,1.62.54,3,1.76,3,3.44,0,2.4-2.4,3.682-5.121,3.682C519.6,410.77,517.22,409.489,517.22,407.088Zm7.862-.3c0-1.381-1.921-1.981-2.741-2.1-.84.12-2.74.72-2.74,2.1,0,1.18,1.22,1.9,2.74,1.9C523.821,408.689,525.082,407.969,525.082,406.789Zm-.221-5.942c0-1.14-1.08-1.78-2.52-1.78s-2.521.64-2.521,1.78c0,1.24,1.721,1.72,2.521,1.861C523.161,402.567,524.861,402.087,524.861,400.847Z"/><path class="cls-4" d="M535.884,410.529v-3.02h-6.362v-1.881L535,397.187h3.221v8.261H540v2.061h-1.78v3.02Zm0-11.242-4.062,6.161h4.062Z"/><path class="cls-4" d="M542.9,410.529l5.041-11.282h-6.922v-2.06h9.622v1.62l-5.161,11.722Z"/><path class="cls-4" d="M552.388,408.609l1.28-1.541a4.932,4.932,0,0,0,3.681,1.621c1.759,0,2.78-.82,2.78-2.041,0-1.32-1.04-1.9-2.961-1.9-.56,0-1.32.02-1.52.04v-2.121c.22.021,1,.021,1.52.021,1.581,0,2.761-.541,2.761-1.761s-1.22-1.86-2.7-1.86a4.628,4.628,0,0,0-3.461,1.48l-1.2-1.46a6.19,6.19,0,0,1,4.881-2.1c2.881,0,4.8,1.361,4.8,3.581a3.225,3.225,0,0,1-2.88,3.061,3.384,3.384,0,0,1,3.1,3.241c0,2.28-1.941,3.9-5.041,3.9A6.242,6.242,0,0,1,552.388,408.609Z"/><path class="cls-4" d="M564.817,403.868c0-3.841,2.021-6.882,5.882-6.882a5.243,5.243,0,0,1,3.821,1.481l-1.081,1.76a3.5,3.5,0,0,0-2.74-1.16c-2.24,0-3.521,2.06-3.521,4.4v.38a4.628,4.628,0,0,1,3.581-1.881,4.175,4.175,0,0,1,4.481,4.322c0,2.46-1.94,4.481-4.921,4.481C566.4,410.77,564.817,407.589,564.817,403.868Zm8.042,2.5c0-1.64-1.28-2.38-2.72-2.38a3.608,3.608,0,0,0-2.921,1.56c.12,1.441.921,3.141,2.961,3.141A2.483,2.483,0,0,0,572.859,406.368Z"/><path class="cls-4" d="M577.89,409.269l1.1-1.78a3.425,3.425,0,0,0,2.741,1.18c2.42,0,3.521-2.221,3.521-4.4a2.42,2.42,0,0,0-.02-.38,4.547,4.547,0,0,1-3.581,1.86,4.143,4.143,0,0,1-4.461-4.3c0-2.48,1.941-4.481,4.921-4.481,3.921,0,5.5,3.181,5.5,6.882,0,3.86-2.02,6.9-5.881,6.9A5.34,5.34,0,0,1,577.89,409.269Zm7.321-7.1c-.14-1.44-.92-3.12-2.981-3.12a2.471,2.471,0,0,0-2.68,2.32c0,1.641,1.28,2.381,2.74,2.381A3.653,3.653,0,0,0,585.211,402.167Z"/><path class="cls-4" d="M1119.429,927.529l1.18-3.5h-2.041l-1.16,3.5h-1.6l1.179-3.5h-2.02l.44-1.38h2.04l1.2-3.581h-2.04l.42-1.379h2.08l1.162-3.5h1.6l-1.16,3.5h2.02l1.161-3.5h1.6l-1.18,3.5h2.041l-.4,1.379h-2.08l-1.221,3.581h2.122l-.441,1.38h-2.141l-1.16,3.5Zm2.841-8.462h-2.021l-1.2,3.581h2Z"/><path class="cls-4" d="M1128.618,927.529V914.187h9.143v2.06h-6.8v3.441h6.661v2.06h-6.661v3.721h6.8v2.06Z"/><path class="cls-4" d="M1140.189,920.867c0-3.359,1.582-6.881,5.342-6.881,3.74,0,5.322,3.522,5.322,6.881,0,3.342-1.582,6.9-5.322,6.9C1141.771,927.77,1140.189,924.209,1140.189,920.867Zm8.283,0c0-2.56-.761-4.8-2.941-4.8s-2.961,2.241-2.961,4.8c0,2.541.781,4.822,2.961,4.822C1147.691,925.689,1148.472,923.408,1148.472,920.867Z"/><path class="cls-4" d="M1153.848,927.529V914.187h4.962c4.18,0,6.981,2.76,6.981,6.661,0,3.941-2.8,6.681-6.962,6.681Zm9.542-6.681a4.312,4.312,0,0,0-4.561-4.6h-2.641v9.222h2.622A4.386,4.386,0,0,0,1163.39,920.848Z"/><path class="cls-4" d="M1168,920.867a6.719,6.719,0,0,1,7-6.9,5.984,5.984,0,0,1,5.341,2.98l-1.981,1.04a3.942,3.942,0,0,0-3.36-1.94,4.826,4.826,0,0,0,0,9.642,3.984,3.984,0,0,0,3.36-1.941l2,1A6.092,6.092,0,0,1,1175,927.77,6.732,6.732,0,0,1,1168,920.867Z"/><path class="cls-4" d="M1182.867,927.529V914.187h4.962c4.181,0,6.982,2.76,6.982,6.661,0,3.941-2.8,6.681-6.962,6.681Zm9.542-6.681a4.311,4.311,0,0,0-4.56-4.6h-2.641v9.222h2.621A4.386,4.386,0,0,0,1192.409,920.848Z"/><path class="cls-4" d="M1203.169,927.529v-3.02h-6.361v-1.88l5.48-8.442h3.221v8.261h1.78v2.061h-1.78v3.02Zm0-11.242-4.062,6.161h4.062Z"/><path class="cls-4" d="M732.429,927.529l1.18-3.5h-2.041l-1.16,3.5h-1.6l1.179-3.5h-2.02l.44-1.38h2.04l1.2-3.581h-2.04l.42-1.379h2.08l1.162-3.5h1.6l-1.16,3.5h2.02l1.161-3.5h1.6l-1.18,3.5h2.041l-.4,1.379h-2.08l-1.221,3.581h2.122l-.441,1.38h-2.141l-1.16,3.5Zm2.841-8.462h-2.021l-1.2,3.581h2Z"/><path class="cls-4" d="M741.077,920.867a6.719,6.719,0,0,1,7-6.9,5.984,5.984,0,0,1,5.341,2.98l-1.981,1.04a3.942,3.942,0,0,0-3.36-1.94,4.826,4.826,0,0,0,0,9.642,3.984,3.984,0,0,0,3.36-1.941l2,1a6.092,6.092,0,0,1-5.361,3.022A6.732,6.732,0,0,1,741.077,920.867Z"/><path class="cls-4" d="M755.42,925.709l1.34-1.621a4.512,4.512,0,0,0,3.581,1.6,2.452,2.452,0,0,0,2.74-2.361,2.376,2.376,0,0,0-2.681-2.36,4.065,4.065,0,0,0-2.92,1.139l-1.661-.479v-7.441h8.743v2.06h-6.4v3.841a4.469,4.469,0,0,1,3.021-1.141,4.131,4.131,0,0,1,4.281,4.3c0,2.761-2.121,4.522-5.1,4.522A6.142,6.142,0,0,1,755.42,925.709Z"/><path class="cls-4" d="M768.325,927.529V914.187h6.562c2.461,0,3.8,1.52,3.8,3.4a3.014,3.014,0,0,1-2.321,3.06,3.254,3.254,0,0,1,2.581,3.26c0,2.08-1.36,3.621-3.881,3.621Zm7.962-9.562a1.688,1.688,0,0,0-1.86-1.72h-3.761v3.441h3.761A1.669,1.669,0,0,0,776.287,917.967Zm.26,5.641a1.841,1.841,0,0,0-2.02-1.86h-3.861v3.721h3.861A1.791,1.791,0,0,0,776.547,923.608Z"/><path class="cls-4" d="M781.205,920.867a6.719,6.719,0,0,1,7-6.9,5.984,5.984,0,0,1,5.341,2.98l-1.981,1.04a3.942,3.942,0,0,0-3.36-1.94,4.826,4.826,0,0,0,0,9.642,3.984,3.984,0,0,0,3.36-1.941l2,1a6.092,6.092,0,0,1-5.361,3.022A6.732,6.732,0,0,1,781.205,920.867Z"/><path class="cls-4" d="M796.075,927.529V914.187h6.562c2.461,0,3.8,1.52,3.8,3.4a3.014,3.014,0,0,1-2.321,3.06,3.254,3.254,0,0,1,2.581,3.26c0,2.08-1.36,3.621-3.881,3.621Zm7.962-9.562a1.688,1.688,0,0,0-1.86-1.72h-3.761v3.441h3.761A1.669,1.669,0,0,0,804.037,917.967Zm.26,5.641a1.841,1.841,0,0,0-2.02-1.86h-3.861v3.721h3.861A1.791,1.791,0,0,0,804.3,923.608Z"/><path class="cls-4" d="M815.179,927.529v-3.02h-6.362v-1.88l5.481-8.442h3.221v8.261h1.78v2.061h-1.78v3.02Zm0-11.242-4.062,6.161h4.062Z"/></svg>