<svg id="Layer_1" data-name="Layer 1" xmlns="http://www.w3.org/2000/svg" width="1920" height="1146.06" viewBox="0 0 1920 1146.06"><defs><style>.cls-1{fill:#e0dcd4;}.cls-2{fill:#464541;}</style></defs><title>ar4</title><rect class="cls-1" width="1920" height="1146.06"/><path class="cls-2" d="M28.82,294.913H17.662v3.2H14.023v-3.2H8.744v-4.2h5.279V286.8h3.639v3.919H27.781c1.32,0,2.32-.64,2.32-1.84a2.617,2.617,0,0,0-.72-1.84l3.2-1a5.687,5.687,0,0,1,1.24,3.919C33.82,293.233,32.061,294.913,28.82,294.913Z"/><path class="cls-2" d="M37.139,278.426a4.373,4.373,0,0,0,.32-1.6,2.638,2.638,0,0,0-1.68-2.8l-2.2-.96-19.557,7.959v-4.519L28.5,270.867l-14.477-5.639v-4.479l22.8,9.318c3.28,1.32,4.32,3.6,4.36,6.6a11.451,11.451,0,0,1-.281,2.359Z"/><path class="cls-2" d="M30.66,249.982H40.7v4.2H14.023v-4.2h2.639a7.708,7.708,0,0,1-3.119-6.2c0-5,3.76-8.558,10.119-8.558s10.158,3.559,10.158,8.558A7.746,7.746,0,0,1,30.66,249.982Zm-7-10.438c-3.76,0-6.4,2.16-6.4,5.479a6.3,6.3,0,0,0,2.559,4.959h7.639a6.305,6.305,0,0,0,2.64-4.959C30.1,241.7,27.421,239.544,23.662,239.544Z"/><path class="cls-2" d="M23.662,228.37c-5.559,0-10.119-3.76-10.119-9.919s4.56-9.918,10.119-9.918c5.519,0,10.158,3.76,10.158,9.918S29.181,228.37,23.662,228.37Zm0-15.477c-3.4,0-6.4,1.96-6.4,5.558,0,3.56,3,5.56,6.4,5.56,3.44,0,6.439-2,6.439-5.56C30.1,214.853,27.1,212.893,23.662,212.893Z"/><path class="cls-2" d="M38.3,200.723l-3.039-1.96a7.625,7.625,0,0,0,2.479-6.159c0-2.759-1.28-5.719-5.4-5.719h-2.2a7.767,7.767,0,0,1,3.239,6.2c0,4.919-3.56,8.559-9.919,8.559-6.278,0-9.918-3.56-9.918-8.559a7.584,7.584,0,0,1,3.16-6.2h-2.68v-4.2H32.34c6.959,0,8.839,5.2,8.839,9.918A11.053,11.053,0,0,1,38.3,200.723ZM27.061,186.885H19.822a6.411,6.411,0,0,0-2.559,4.959c0,3.359,2.479,5.479,6.2,5.479s6.16-2.12,6.16-5.479A6.412,6.412,0,0,0,27.061,186.885Z"/><path class="cls-2" d="M33.34,173.675H14.023v-4.2h2.8a8.381,8.381,0,0,1-3.279-6.28H17.7a5.807,5.807,0,0,0-.121,1.281,6.594,6.594,0,0,0,2.6,5H33.34Z"/><path class="cls-2" d="M33.34,144.369H31.221a8.135,8.135,0,0,1,2.6,6.279,6.431,6.431,0,0,1-6.4,6.679c-4.48,0-6.319-3.519-6.319-6.679a8.071,8.071,0,0,1,2.48-6.279H20.7c-2.239,0-3.6,1.88-3.6,4.52a7.73,7.73,0,0,0,2.479,5.718l-2.92,1.76a11.317,11.317,0,0,1-3.119-8.118c0-4.319,1.8-8.079,6.959-8.079H33.34Zm-4.4,0H25.98a5.768,5.768,0,0,0-2,4.6c0,2.359,1.4,4.159,3.48,4.159,2.119,0,3.479-1.8,3.479-4.159A5.765,5.765,0,0,0,28.94,144.369Z"/><path class="cls-2" d="M30.66,127H40.7v4.2H14.023V127h2.639a7.708,7.708,0,0,1-3.119-6.2c0-5,3.76-8.558,10.119-8.558S33.82,115.8,33.82,120.8A7.749,7.749,0,0,1,30.66,127Zm-7-10.438c-3.76,0-6.4,2.16-6.4,5.479A6.3,6.3,0,0,0,19.822,127h7.639a6.305,6.305,0,0,0,2.64-4.959C30.1,118.719,27.421,116.559,23.662,116.559Z"/><path class="cls-2" d="M33.34,91.174H21.182c-3.039,0-3.919,1.52-3.919,3.88a6.448,6.448,0,0,0,2.559,4.959H33.34v4.2H6.664v-4.2h9.959a9.122,9.122,0,0,1-3.08-6.8c0-4.159,2.16-6.239,6.119-6.239H33.34Z"/><path class="cls-2" d="M37.139,78.453a4.369,4.369,0,0,0,.32-1.6,2.638,2.638,0,0,0-1.68-2.8l-2.2-.96L14.023,81.052V76.533L28.5,70.894,14.023,65.255v-4.48l22.8,9.319c3.28,1.32,4.32,3.6,4.36,6.6a11.469,11.469,0,0,1-.281,2.36Z"/><path class="cls-2" d="M519.43,755.049H496.115l-5.429,18.844H478.017L500.8,704.268h14.478l22.677,69.625H524.859Zm-2.768-9.688-2.449-8.516c-2.129-7.347-4.258-15.331-6.281-23h-.426c-1.916,7.771-3.939,15.649-6.175,23l-2.448,8.516Z"/><path class="cls-2" d="M556.9,704.268h22.251c14.266,0,24.805,4.364,24.805,17.139,0,6.6-3.726,12.989-11.924,15.118v.426c10.008,1.7,15.651,7.133,15.651,16.5,0,13.946-11.392,20.441-26.722,20.441H556.9Zm21.079,28.85c9.795,0,13.84-3.726,13.84-10.22,0-6.387-4.47-9.049-13.52-9.049H569.25v19.269Zm1.7,31.194c10.219,0,15.862-3.833,15.862-11.711,0-7.24-5.536-10.647-15.862-10.647H569.25v22.358Z"/><path class="cls-2" d="M659.206,702.99a27.269,27.269,0,0,1,19.8,8.836l-6.814,7.665c-3.619-3.512-7.558-5.749-12.882-5.749-11.39,0-19.587,9.582-19.587,25.232,0,15.862,7.558,25.444,19.162,25.444,6.175,0,10.753-2.556,14.692-6.92l6.814,7.559a27.8,27.8,0,0,1-21.719,10.113c-17.672,0-31.618-12.775-31.618-35.877C627.056,716.511,641.321,702.99,659.206,702.99Z"/><path class="cls-2" d="M702.427,704.268h18.524c21.292,0,33.961,11.5,33.961,34.493,0,23.1-12.669,35.132-33.322,35.132H702.427ZM720.1,763.886c14.052,0,22.143-7.986,22.143-25.125,0-17.034-8.091-24.487-22.143-24.487h-5.324v49.612Z"/><path class="cls-2" d="M779.394,704.268h41.838V714.7H791.743v17.779h25.019v10.433H791.743v20.547H822.3v10.434h-42.9Z"/><path class="cls-2" d="M846.887,704.268h42.051V714.7h-29.7v19.7h25.232v10.433H859.236v29.064H846.887Z"/><path class="cls-2" d="M939.826,702.99a28.259,28.259,0,0,1,20.76,8.836l-6.814,7.665c-3.513-3.406-7.345-5.749-13.839-5.749-12.35,0-20.654,9.582-20.654,25.232,0,15.862,7.452,25.444,21.4,25.444,3.832,0,7.665-1.065,9.9-3.088V746.319h-13.1V736.205H961.65v30.661c-4.791,4.472-12.988,8.3-22.462,8.3-18.525,0-32.578-12.775-32.578-35.877C906.61,716.511,921.089,702.99,939.826,702.99Z"/><path class="cls-2" d="M987.41,704.268h12.35v28h28.105v-28h12.35v69.625h-12.35V743.019H999.76v30.874H987.41Z"/><path class="cls-2" d="M1068.316,704.268h12.35v69.625h-12.35Z"/><path class="cls-2" d="M1110.792,757.072c2.874,5.11,6.6,7.346,10.858,7.346,6.495,0,9.9-3.514,9.9-13.414V704.268H1143.9v47.8c0,12.669-6.28,23.1-20.759,23.1-9.794,0-16.395-4.045-20.867-11.817Z"/><path class="cls-2" d="M1171.578,704.268h12.35v31.618h.319l24.806-31.618h13.627l-21.4,27.147,25.018,42.478h-13.627l-18.736-32.79-10.008,12.456v20.334h-12.35Z"/><path class="cls-2" d="M1245.459,704.268h12.35v59.191h28.85v10.434h-41.2Z"/><path class="cls-2" d="M1309.227,704.268h13.52l12.563,34.28,4.578,13.2h.425l4.579-13.2,12.242-34.28h13.627v69.625h-11.6V742.061c0-6.5.958-15.756,1.6-22.144h-.426l-5.642,15.862L1342.655,767.4h-5.642l-12.03-31.619-5.536-15.862h-.426c.533,6.388,1.491,15.649,1.491,22.144v31.832h-11.285Z"/><path class="cls-2" d="M487.172,810.725h12.669L521.452,849.9l7.239,14.8h.426c-.638-7.133-1.6-15.97-1.6-23.741V810.725h11.71V880.35H526.562l-21.611-39.178-7.239-14.8h-.426c.639,7.346,1.6,15.756,1.6,23.528V880.35H487.172Z"/><path class="cls-2" d="M563.608,845.218c0-22.463,12.563-35.771,30.767-35.771,18.1,0,30.661,13.308,30.661,35.771,0,22.569-12.562,36.409-30.661,36.409C576.171,881.627,563.608,867.787,563.608,845.218Zm48.759,0c0-15.543-7.133-25.019-17.992-25.019-10.965,0-18.1,9.476-18.1,25.019,0,15.649,7.133,25.657,18.1,25.657C605.234,870.875,612.367,860.867,612.367,845.218Z"/><path class="cls-2" d="M649.411,810.725h23.422c15.224,0,26.4,5.323,26.4,21.5,0,15.437-11.5,22.57-26.4,22.57H661.761V880.35h-12.35ZM671.769,844.9c10.432,0,15.33-4.152,15.33-12.669,0-8.729-5.217-11.6-15.33-11.6H661.761V844.9Z"/><path class="cls-2" d="M782.7,896.638a28.94,28.94,0,0,1-11.178,1.917c-13.84,0-23.421-7.24-27.893-17.46-15.011-2.661-24.911-15.756-24.911-35.877,0-22.463,12.562-35.771,30.66-35.771,18.205,0,30.768,13.308,30.768,35.771,0,19.376-9.263,32.364-23.422,35.557,3.194,5.537,9.475,7.772,16.182,7.772a24.494,24.494,0,0,0,7.559-1.171Zm-33.322-25.763c10.966,0,17.992-10.008,17.992-25.657,0-15.543-7.026-25.019-17.992-25.019s-17.991,9.476-17.991,25.019C731.384,860.867,738.41,870.875,749.375,870.875Z"/><path class="cls-2" d="M842.632,880.35,827.621,853.1h-10.54V880.35h-12.35V810.725h23.422c14.479,0,25.657,5.11,25.657,20.653,0,10.645-5.536,17.033-13.947,19.908l16.609,29.064ZM817.081,843.3h9.795c9.581,0,14.691-4.046,14.691-11.924,0-7.984-5.11-10.753-14.691-10.753h-9.795Z"/><path class="cls-2" d="M879.678,863c5,4.685,11.71,7.879,18.2,7.879,7.771,0,12.137-3.514,12.137-8.943,0-5.749-4.472-7.559-10.86-10.22l-9.474-4.152c-6.92-2.874-14.053-8.3-14.053-18.525,0-11.071,9.794-19.588,23.314-19.588a30.8,30.8,0,0,1,21.506,8.836l-6.388,7.878c-4.365-3.725-9.156-5.962-15.118-5.962-6.6,0-10.858,3.088-10.858,8.2,0,5.43,5.323,7.453,11.071,9.8l9.369,3.939c8.3,3.514,14.053,8.73,14.053,18.844,0,11.285-9.368,20.653-25.019,20.653a35.813,35.813,0,0,1-25.017-10.22Z"/><path class="cls-2" d="M957.6,821.157H937.483V810.725h52.486v10.432H969.954V880.35H957.6Z"/><path class="cls-2" d="M1011.578,810.725h12.35v40.029c0,15.117,5.749,20.121,14.159,20.121,8.517,0,14.372-5,14.372-20.121V810.725h11.924V849.8c0,22.889-10.221,31.831-26.3,31.831-16.182,0-26.509-8.942-26.509-31.831Z"/><path class="cls-2" d="M1081.732,810.725h13.1l9.794,35.025c2.236,7.878,3.727,14.691,6.068,22.676h.426c2.343-7.985,3.94-14.8,6.175-22.676l9.689-35.025h12.561l-21.5,69.625h-14.691Z"/><path class="cls-2" d="M1151.354,810.725h12.776l5.962,35.131c1.171,7.453,2.342,14.9,3.513,22.25h.426c1.384-7.345,2.981-14.9,4.471-22.25l8.624-35.131h10.645l8.624,35.131c1.491,7.24,3.087,14.8,4.578,22.25h.425c1.171-7.452,2.236-14.9,3.408-22.25l5.961-35.131h11.923l-13.414,69.625h-15.33l-8.623-36.622c-1.171-5.43-2.13-10.753-3.088-16.077h-.425c-.958,5.324-1.916,10.647-3.087,16.077l-8.411,36.622h-15.118Z"/><path class="cls-2" d="M1266.116,844.473l-18.524-33.748h13.733l7.773,15.436c1.6,3.194,3.087,6.494,5.215,10.647h.426c1.7-4.153,3.195-7.453,4.685-10.647l7.346-15.436h13.094l-18.524,34.28,19.8,35.345h-13.734l-8.516-16.395c-1.81-3.62-3.514-7.133-5.537-11.392h-.425c-1.81,4.259-3.513,7.772-5.217,11.392l-8.2,16.395h-13.1Z"/><path class="cls-2" d="M1333.4,854.479l-20.972-43.754h13.2l7.559,17.778c2.022,5.217,4.045,10.008,6.174,15.331h.426c2.236-5.323,4.472-10.114,6.494-15.331l7.559-17.778h12.882l-20.973,43.754V880.35H1333.4Z"/><path class="cls-2" d="M1378.215,872.9l33.748-51.74h-30.555V810.725h45.779v7.452l-33.642,51.739h33.961V880.35h-49.291Z"/><path class="cls-2" d="M482.7,952.633c0-22.889,8.943-34.813,23-34.813s23,12.031,23,34.813c0,22.888-8.942,35.451-23,35.451S482.7,975.521,482.7,952.633Zm34.28,0c0-19.163-4.684-25.232-11.285-25.232-6.494,0-11.285,6.069-11.285,25.232S499.2,978.5,505.7,978.5C512.3,978.5,516.981,971.8,516.981,952.633Z"/><path class="cls-2" d="M551.577,976.8h15.117V932.3H554.239v-7.665c6.707-1.278,11.391-2.982,15.65-5.536h9.155v57.7h13.308v10.007H551.577Z"/><path class="cls-2" d="M613,979.674c18.843-18.2,30.66-30.128,30.66-40.455,0-7.133-3.938-11.711-11.179-11.711-5.215,0-9.581,3.513-13.2,7.558l-6.813-6.813c6.174-6.6,12.348-10.433,21.611-10.433,12.988,0,21.4,8.2,21.4,20.76,0,12.03-11.178,24.379-24.592,38.539,3.513-.319,7.984-.746,11.285-.746h16.607v10.434H613Z"/><path class="cls-2" d="M682.622,970.625c4.046,4.151,9.263,7.452,16.076,7.452,7.346,0,12.455-3.833,12.455-10.221,0-7.026-4.47-11.5-19.908-11.5v-8.943c13.308,0,17.673-4.577,17.673-10.858,0-5.643-3.832-9.05-10.007-9.05-5.323,0-9.475,2.555-13.627,6.388L679,926.337c5.749-5.11,12.242-8.517,20.334-8.517,12.988,0,21.931,6.388,21.931,17.885,0,7.56-4.472,12.669-11.818,15.544v.426c7.985,2.129,14.053,7.878,14.053,16.82,0,12.35-10.752,19.589-23.74,19.589-10.966,0-18.205-4.258-23-9.581Z"/><path class="cls-2" d="M791.315,969.347H782.8v17.46H771.3v-17.46H741.385v-8.3L768.213,919.1H782.8v40.774h8.517ZM771.3,959.872v-15.33c0-3.939.319-10.114.532-14.053h-.426c-1.7,3.513-3.62,6.92-5.536,10.539l-12.35,18.844Z"/><path class="cls-2" d="M812.923,970.838c4.046,3.832,9.05,7.239,15.863,7.239,7.559,0,13.094-4.791,13.094-12.988,0-8.091-5-12.669-12.455-12.669-4.365,0-6.814,1.171-10.86,3.833l-5.855-3.727,2.022-33.428h36.2v10.327H825.379L824,945.819a19.2,19.2,0,0,1,8.943-2.235c11.6,0,21.291,6.6,21.291,21.186,0,14.8-11.39,23.314-23.846,23.314-10.966,0-18.1-4.364-23.1-9.368Z"/><path class="cls-2" d="M912.779,932.938a14.618,14.618,0,0,0-10.752-5.111c-8.517,0-15.437,6.281-15.969,25.019,3.939-5,9.795-7.985,14.692-7.985,11.71,0,19.8,6.814,19.8,20.973,0,13.52-9.688,22.25-21.292,22.25-13.308,0-24.592-10.326-24.592-33.109,0-26.3,12.775-37.155,26.615-37.155a24.136,24.136,0,0,1,18.1,7.665Zm-3.619,32.9c0-7.984-3.939-12.03-10.646-12.03-3.832,0-8.3,2.129-12.137,7.771,1.278,12.03,6.068,17.141,12.669,17.141C904.688,978.716,909.16,974.138,909.16,965.834Z"/><path class="cls-2" d="M971.968,929.425H939.924V919.1h45.458v7.452c-15.862,19.7-18.63,33.854-19.8,60.257H953.125C954.3,962.746,958.873,947.629,971.968,929.425Z"/><path class="cls-2" d="M1017.1,952.1v-.426c-5.216-3.727-9.369-8.73-9.369-15.863,0-10.965,8.73-17.992,20.441-17.992,12.136,0,19.908,7.346,19.908,18.312,0,6.707-4.685,12.348-9.049,15.543v.426c6.281,3.512,11.71,8.516,11.71,17.565,0,10.434-9.155,18.418-22.889,18.418-13.2,0-23-7.665-23-18.631C1004.861,961.043,1010.716,955.507,1017.1,952.1Zm10.965,27.253c6.494,0,11.179-3.833,11.179-10.114,0-7.345-7.133-10.007-16.289-13.733-4.258,3.088-7.346,7.452-7.346,12.669C1015.613,974.883,1021.149,979.354,1028.069,979.354Zm9.9-42.477c0-5.962-3.726-10.327-10.007-10.327-5.217,0-9.262,3.407-9.262,9.262,0,6.814,6.069,9.794,13.627,12.775C1035.947,944.968,1037.97,941.135,1037.97,936.877Z"/><path class="cls-2" d="M1077.356,972.967a14.851,14.851,0,0,0,10.859,5.11c8.517,0,15.437-6.281,15.97-25.018-3.94,4.9-9.9,7.878-14.8,7.878-11.6,0-19.695-6.814-19.695-20.973,0-13.521,9.688-22.144,21.292-22.144,13.2,0,24.486,10.22,24.486,33,0,26.3-12.669,37.261-26.615,37.261a24.311,24.311,0,0,1-18.1-7.665Zm26.509-28.744c-1.278-11.924-6.175-17.035-12.775-17.035-5.536,0-10.114,4.579-10.114,12.776,0,7.984,3.939,12.137,10.753,12.137C1095.561,952.1,1100.139,949.865,1103.865,944.223Z"/><path class="cls-2" d="M484.776,647.129a6.933,6.933,0,0,0,4.551,1.97c1.943,0,3.033-.878,3.033-2.236,0-1.437-1.117-1.889-2.714-2.554l-2.368-1.038c-1.73-.719-3.513-2.076-3.513-4.63,0-2.768,2.449-4.9,5.828-4.9a7.705,7.705,0,0,1,5.376,2.208l-1.6,1.97a5.619,5.619,0,0,0-3.779-1.49c-1.65,0-2.714.771-2.714,2.048,0,1.358,1.33,1.864,2.767,2.449l2.342.984c2.075.878,3.513,2.183,3.513,4.71,0,2.821-2.342,5.163-6.254,5.163a8.956,8.956,0,0,1-6.254-2.555Z"/><path class="cls-2" d="M509.048,638.081c3.273,0,6.227,2.5,6.227,6.866,0,4.338-2.954,6.839-6.227,6.839-3.246,0-6.2-2.5-6.2-6.839C502.848,640.583,505.8,638.081,509.048,638.081Zm0,11.2c1.916,0,3.088-1.73,3.088-4.338,0-2.635-1.172-4.364-3.088-4.364s-3.06,1.729-3.06,4.364C505.988,647.555,507.132,649.285,509.048,649.285Z"/><path class="cls-2" d="M523.5,638.4h3.061v7.8c0,2.157.612,2.954,2.022,2.954,1.145,0,1.916-.532,2.9-1.809V638.4h3.061v13.067h-2.5l-.239-1.916h-.08a5.324,5.324,0,0,1-4.2,2.235c-2.795,0-4.019-1.89-4.019-5.189Z"/><path class="cls-2" d="M543.753,638.4h2.528l.213,2.316h.107a4.439,4.439,0,0,1,3.7-2.635,3.309,3.309,0,0,1,1.49.267l-.532,2.661a4.247,4.247,0,0,0-1.358-.213c-1.038,0-2.288.718-3.087,2.687v7.984h-3.06Z"/><path class="cls-2" d="M564.432,638.081a5.388,5.388,0,0,1,3.832,1.517l-1.464,1.943a3.256,3.256,0,0,0-2.209-.958c-2.1,0-3.566,1.729-3.566,4.364,0,2.608,1.437,4.338,3.486,4.338a4.324,4.324,0,0,0,2.688-1.118l1.278,1.942a6.542,6.542,0,0,1-4.285,1.677c-3.566,0-6.307-2.5-6.307-6.839A6.445,6.445,0,0,1,564.432,638.081Z"/><path class="cls-2" d="M580.88,638.081c3.539,0,5.4,2.555,5.4,6.2a6.5,6.5,0,0,1-.134,1.438h-8.3a3.75,3.75,0,0,0,3.858,3.7,5.459,5.459,0,0,0,3.034-.958l1.038,1.916a8.245,8.245,0,0,1-4.47,1.41c-3.619,0-6.441-2.528-6.441-6.839C574.865,640.689,577.819,638.081,580.88,638.081Zm2.74,5.695c0-2.076-.878-3.327-2.66-3.327-1.544,0-2.875,1.145-3.141,3.327Z"/><path class="cls-2" d="M605.444,648.008a5.821,5.821,0,0,0,3.619,1.463c1.412,0,2.077-.665,2.077-1.571,0-1.09-1.411-1.569-2.794-2.1-1.73-.639-3.673-1.623-3.673-3.806,0-2.288,1.836-3.912,4.764-3.912a7.052,7.052,0,0,1,4.337,1.57l-1.41,1.863a4.87,4.87,0,0,0-2.875-1.118c-1.3,0-1.916.613-1.916,1.438,0,1.011,1.305,1.437,2.715,1.942,1.783.665,3.752,1.517,3.752,3.965,0,2.236-1.783,4.045-5.082,4.045a8.274,8.274,0,0,1-4.95-1.809Z"/><path class="cls-2" d="M629.236,643.111c-.026-1.384-.612-2.554-2.368-2.554a7.265,7.265,0,0,0-3.672,1.277l-1.118-2.05a10.136,10.136,0,0,1,5.349-1.7c3.273,0,4.87,2,4.87,5.642v7.744h-2.5l-.24-1.438h-.08a6.352,6.352,0,0,1-4.045,1.757,3.674,3.674,0,0,1-3.885-3.832C621.546,645.16,623.888,643.7,629.236,643.111Zm-2.846,6.28a4.1,4.1,0,0,0,2.846-1.437v-2.927c-3.539.452-4.71,1.383-4.71,2.688C624.526,648.886,625.3,649.391,626.39,649.391Z"/><path class="cls-2" d="M641.347,638.4h2.528l.213,1.757h.106a6.072,6.072,0,0,1,4.285-2.076c2.793,0,4.018,1.89,4.018,5.19v8.2h-3.06v-7.8c0-2.156-.612-2.954-2.049-2.954-1.145,0-1.89.558-2.981,1.623v9.128h-3.06Z"/><path class="cls-2" d="M661.706,648.008a5.821,5.821,0,0,0,3.619,1.463c1.411,0,2.076-.665,2.076-1.571,0-1.09-1.41-1.569-2.794-2.1-1.729-.639-3.672-1.623-3.672-3.806,0-2.288,1.836-3.912,4.763-3.912a7.053,7.053,0,0,1,4.338,1.57l-1.41,1.863a4.87,4.87,0,0,0-2.875-1.118c-1.3,0-1.916.613-1.916,1.438,0,1.011,1.3,1.437,2.715,1.942,1.783.665,3.752,1.517,3.752,3.965,0,2.236-1.783,4.045-5.082,4.045a8.274,8.274,0,0,1-4.95-1.809Z"/><path class="cls-2" d="M692.206,652.531v4.1h-3.06V638.4h2.528l.213,1.384h.106a6.38,6.38,0,0,1,3.939-1.7c3.247,0,5.135,2.608,5.135,6.653,0,4.471-2.687,7.052-5.588,7.052a5.287,5.287,0,0,1-3.353-1.436Zm2.635-3.273c1.729,0,3.06-1.543,3.06-4.5,0-2.609-.851-4.152-2.821-4.152a4.175,4.175,0,0,0-2.874,1.464v6.094A4.135,4.135,0,0,0,694.841,649.258Z"/><path class="cls-2" d="M709.479,638.4h2.528l.213,2.316h.106a4.441,4.441,0,0,1,3.7-2.635,3.316,3.316,0,0,1,1.491.267l-.533,2.661a4.245,4.245,0,0,0-1.357-.213c-1.038,0-2.289.718-3.087,2.687v7.984h-3.06Z"/><path class="cls-2" d="M729.812,638.081c3.273,0,6.227,2.5,6.227,6.866,0,4.338-2.954,6.839-6.227,6.839-3.247,0-6.2-2.5-6.2-6.839C723.611,640.583,726.565,638.081,729.812,638.081Zm0,11.2c1.916,0,3.087-1.73,3.087-4.338,0-2.635-1.171-4.364-3.087-4.364s-3.06,1.729-3.06,4.364C726.752,647.555,727.9,649.285,729.812,649.285Z"/><path class="cls-2" d="M478.766,186.451q-2.874,0-4.259-.106l-4.577,15.436a30.922,30.922,0,0,1-7.133.638,24.58,24.58,0,0,1-8.3-1.17l-.532-.852,23.421-71.433a64.438,64.438,0,0,1,9.687-.639,53.424,53.424,0,0,1,10.007.745l23,71.54a17.36,17.36,0,0,1-8.41,2.022q-5.536,0-7.771-1.916t-3.833-7.345l-2.023-7.026q-1.385.107-4.151.106Zm-.32-13.414,4.258-.106h7.772q.531,0,1.863.053c.887.037,1.544.053,1.97.053l-1.81-6.6q-2.556-8.942-5.855-21.93h-.639q-.854,4.578-5.11,20.333Z"/><path class="cls-2" d="M540.4,128.751q8.623-.211,14.744-.319t9.848-.107q11.6,0,18.257,4.844t6.654,14.532a15.619,15.619,0,0,1-2.653,8.729,15.427,15.427,0,0,1-6.792,5.855A16.313,16.313,0,0,1,585.505,165a19.136,19.136,0,0,1,4.089,4.365,22.869,22.869,0,0,1,2.708,5.429,18.36,18.36,0,0,1,1.01,6.015q0,10.965-6.973,16.234t-19.748,5.27q-3.94,0-10.433-.106t-15.756-.32l-.745-.745V129.5Zm16.182,11.6V157.5h7.51q5.077,0,7.141-2.5a9.31,9.31,0,0,0,2.063-6.121,8.751,8.751,0,0,0-2.116-6.015q-2.117-2.4-7.088-2.4h-4.283Q557.959,140.461,556.584,140.355Zm8.787,29.276h-8.787V190.39q2.753-.1,6.194,0a26.474,26.474,0,0,0,6.406-.533,8.647,8.647,0,0,0,4.975-3.086,10.441,10.441,0,0,0,2.013-6.814,10.9,10.9,0,0,0-2.6-7.239Q570.982,169.631,565.371,169.631Z"/><path class="cls-2" d="M653.778,157.92v-1.277q0-15.755-11.71-15.756a10.058,10.058,0,0,0-9.687,6.122q-2.982,6.122-2.982,18.044,0,11.817,3.727,17.566a12.139,12.139,0,0,0,10.858,5.748,23.022,23.022,0,0,0,8.251-1.756,45.383,45.383,0,0,0,9.847-5.59,20.516,20.516,0,0,1,4.95,4.951,15.058,15.058,0,0,1,2.822,6.015,37.26,37.26,0,0,1-5.7,4.418,40.826,40.826,0,0,1-7.026,3.566,51.862,51.862,0,0,1-7.878,2.4,38.246,38.246,0,0,1-8.25.9,28.117,28.117,0,0,1-13.84-3.14,25.743,25.743,0,0,1-9.1-8.357,35.851,35.851,0,0,1-5-12.03,63.83,63.83,0,0,1-1.544-14.159,53.08,53.08,0,0,1,2.395-16.767,35.415,35.415,0,0,1,6.494-11.976,26.326,26.326,0,0,1,9.635-7.186,29.424,29.424,0,0,1,11.816-2.4,37.3,37.3,0,0,1,11.6,1.7,27.539,27.539,0,0,1,8.89,4.684,20.619,20.619,0,0,1,5.641,7.026,19.688,19.688,0,0,1,1.97,8.73q0,9.476-9.688,9.474A25.651,25.651,0,0,1,653.778,157.92Z"/><path class="cls-2" d="M738.305,196.99a21.736,21.736,0,0,1-8.943,4.046,54.529,54.529,0,0,1-12.242,1.277q-3.3,0-9.528-.106t-15.6-.32l-.745-.745V129.5l.745-.746q6.173-.211,12.828-.319t14-.107q9.047,0,15.117,2.875a24.78,24.78,0,0,1,9.688,7.878,31.336,31.336,0,0,1,5.109,11.763,67.469,67.469,0,0,1,1.492,14.532,61.583,61.583,0,0,1-2.45,18.417A26.584,26.584,0,0,1,738.305,196.99Zm-19.588-7.984q14.052,0,14.053-23.633,0-23.739-14.053-23.741H712.7q-2.61,0-4.524-.106v47.586q1.916-.1,4.524-.106Z"/><path class="cls-2" d="M789.723,180.17l-.107,7.665v.106q4.881-.211,7.853-.212h24.617a43.62,43.62,0,0,1-.32,6.067q-1.278,8.2-10.859,8.2H782.59a9.6,9.6,0,0,1-7.186-2.662,9.887,9.887,0,0,1-2.608-7.239V129.709l.745-.745h45.883a33.117,33.117,0,0,1,.638,6.707,21.375,21.375,0,0,1-1.486,7.558h-28.96l.107,7.665v7.452q2.754-.1,7.206-.106h16.215a22.275,22.275,0,0,1,.958,6.813,24.4,24.4,0,0,1-.958,7.026H789.723Z"/><path class="cls-2" d="M861.368,143.442l.107,8.3v6.707h22.887a28.923,28.923,0,0,1,0,13.945H861.475v29.276a56.369,56.369,0,0,1-16.927,0V129.6l.745-.639h45.563a29.108,29.108,0,0,1,.639,6.654q0,3.992-2.188,5.908t-6.89,1.916Z"/><path class="cls-2" d="M939.3,160.369l16.714-.106q11.281,0,11.284,10.645v28a94.668,94.668,0,0,1-28.85,4.365,33.925,33.925,0,0,1-13.573-2.555,26.241,26.241,0,0,1-9.9-7.345,32.053,32.053,0,0,1-6.015-11.764,56.7,56.7,0,0,1-2.023-15.809,46.042,46.042,0,0,1,2.821-16.873,34.893,34.893,0,0,1,7.559-11.977,30.9,30.9,0,0,1,10.912-7.185,35.3,35.3,0,0,1,12.88-2.4,47.794,47.794,0,0,1,25.976,7.665,11.355,11.355,0,0,1-.8,3.46,22.009,22.009,0,0,1-1.7,3.406,16.062,16.062,0,0,1-2.343,2.981,19.7,19.7,0,0,1-2.715,2.289q-8.836-5.748-17.884-5.749-17.353,0-17.353,24.273,0,24.166,17.778,24.165,2.448,0,4.738-.212t4.524-.639v-7.133q0-2.447.054-4.258t.16-3.087h-5.323q-4.579,0-6.334-1.757t-1.757-5.482A23.177,23.177,0,0,1,939.3,160.369Z"/><path class="cls-2" d="M1031.379,157.175l-.107-7.878V128.964a46.072,46.072,0,0,1,8.517-.639,44.3,44.3,0,0,1,8.41.639v72.71a56.369,56.369,0,0,1-16.927,0V179.105l.107-7.877-5.348.106h-12.4l-5.348-.106.107,7.877v22.569a56.369,56.369,0,0,1-16.927,0v-72.71a56.369,56.369,0,0,1,16.927,0V149.3l-.107,7.878,5.348-.106h12.4Z"/><path class="cls-2" d="M1075.346,201.674v-72.71a46.248,46.248,0,0,1,8.516-.639,48.1,48.1,0,0,1,8.623.639v72.71a48.1,48.1,0,0,1-8.623.639A46.248,46.248,0,0,1,1075.346,201.674Z"/><path class="cls-2" d="M1118.353,185.493a19.365,19.365,0,0,0,10.113,3.194q5.109,0,7.079-3.248t1.97-10.06V128.964a43.924,43.924,0,0,1,8.356-.639,47.486,47.486,0,0,1,8.57.639v44.819a57.646,57.646,0,0,1-1.168,12.189,22.537,22.537,0,0,1-4.035,9.1,18.185,18.185,0,0,1-7.593,5.7,30.941,30.941,0,0,1-11.838,1.969,31.766,31.766,0,0,1-17.31-4.684A24.011,24.011,0,0,1,1118.353,185.493Z"/><path class="cls-2" d="M1237.583,197.522q-3.62,5.111-11.284,5.11-4.367,0-6.547-2.235t-3.779-7.559l-4.069-12.455q-1.606-5-3.854-7.133a8.523,8.523,0,0,0-6.1-2.129q-1.285,0-4.711.213v30.34a56.362,56.362,0,0,1-16.926,0v-72.71a56.362,56.362,0,0,1,16.926,0v28.1l2.785-.107a4.45,4.45,0,0,0,2.785-.691,9.977,9.977,0,0,0,2.034-2.928l10.175-19.056a12.324,12.324,0,0,1,3.406-4.631q1.809-1.329,5.642-1.331,4.257,0,9.9.532l.958,1.172L1221.9,154.514a23.285,23.285,0,0,1-5.978,7.771,13,13,0,0,1,7.53,4.046,24.714,24.714,0,0,1,4.219,7.984l4.38,13.2q.851,2.45,1.277,3.619a25.956,25.956,0,0,0,2.129,3.939A18.934,18.934,0,0,0,1237.583,197.522Z"/><path class="cls-2" d="M1283.93,187.3h18.485a43,43,0,0,1-.532,7.292,8.291,8.291,0,0,1-3.406,5.217,12.179,12.179,0,0,1-7.559,2.182h-24.06a9.189,9.189,0,0,1-9.9-9.9V128.964l.74-.745h6.242q9.943,0,9.945,10.859v48.651Q1278.586,187.3,1283.93,187.3Z"/><path class="cls-2" d="M1321.044,201.461l5.642-72.391a62.781,62.781,0,0,1,11.072-.851,64.662,64.662,0,0,1,11.178.851l6.281,26.082q3.724,17.675,3.938,19.269h.745q.426-2.659,3.94-19.269l6.387-26.082a62.781,62.781,0,0,1,11.072-.851,64.662,64.662,0,0,1,11.178.851l5.641,72.391a33.126,33.126,0,0,1-8.143.852,48.3,48.3,0,0,1-7.931-.532l-1.7-29.595q-.745-17.67-.852-24.592h-.638l-10.539,43.328a60.68,60.68,0,0,1-17.566,0l-10.433-43.328h-.745q0,9.477-.851,24.592l-1.6,29.6a48.309,48.309,0,0,1-7.93.532A33.106,33.106,0,0,1,1321.044,201.461Z"/><path class="cls-2" d="M518.367,234.676l.746.745v72.391a46.312,46.312,0,0,1-10.06.958,73.352,73.352,0,0,1-10.274-.639L482.065,270.02q-2.981-6.494-6.067-15.011l-.319.107q1.276,15.544,1.277,31.83v21.185a42.73,42.73,0,0,1-7.984.639,40.987,40.987,0,0,1-7.878-.639V235.74a42.864,42.864,0,0,1,9.741-.958,72.461,72.461,0,0,1,10.166.639l16.5,38q4.47,10.541,6.6,16.182l.425-.213q-1.276-14.8-1.277-31.4V245q0-5.534,2.235-7.931t7.24-2.4Z"/><path class="cls-2" d="M552.967,303.021q-11.394-9.473-11.392-31.191a55.97,55.97,0,0,1,2.183-16.448,32.9,32.9,0,0,1,6.281-11.87,26.237,26.237,0,0,1,9.954-7.239,33.927,33.927,0,0,1,13.2-2.449,34.324,34.324,0,0,1,13.254,2.449,25.911,25.911,0,0,1,10.007,7.292,33.482,33.482,0,0,1,6.281,11.923,62.252,62.252,0,0,1,0,32.682,32.914,32.914,0,0,1-6.281,11.871,26.144,26.144,0,0,1-10.007,7.239,34.324,34.324,0,0,1-13.254,2.448Q561.058,309.728,552.967,303.021Zm8.623-14.691q2.874,8.3,11.6,8.3a10.948,10.948,0,0,0,7.079-2.182,15.05,15.05,0,0,0,4.259-5.536,25.722,25.722,0,0,0,2.076-7.5,64.564,64.564,0,0,0,.533-8.2q0-3.724-.267-8.3a34.582,34.582,0,0,0-1.544-8.57,16.079,16.079,0,0,0-4.045-6.707q-2.769-2.715-8.091-2.715-5.109,0-7.824,2.609a16.1,16.1,0,0,0-4.046,6.44,31.964,31.964,0,0,0-1.65,8.144q-.319,4.313-.319,7.612a71.119,71.119,0,0,0,.479,8.73A44.439,44.439,0,0,0,561.59,288.33Z"/><path class="cls-2" d="M652.849,285.35h-8.437v22.781a46.775,46.775,0,0,1-8.464.639,45.688,45.688,0,0,1-8.463-.639V235.954l.745-.746q9.262-.211,15.383-.319t9.316-.107a34.023,34.023,0,0,1,10.7,1.6,21.927,21.927,0,0,1,8.25,4.791,21.463,21.463,0,0,1,5.269,7.931,29.673,29.673,0,0,1,1.864,10.912,28.878,28.878,0,0,1-1.923,10.912,21.965,21.965,0,0,1-5.34,7.93,22.538,22.538,0,0,1-8.275,4.844A32.814,32.814,0,0,1,652.849,285.35Zm-8.437-37.58v24.8q3-.1,4.766-.16c1.177-.035,1.946-.053,2.3-.053a10.3,10.3,0,0,0,4.821-1.011,8.711,8.711,0,0,0,3.105-2.662,11.046,11.046,0,0,0,1.715-3.886,20.038,20.038,0,0,0,.536-4.684,19.583,19.583,0,0,0-.536-4.577,12.285,12.285,0,0,0-1.66-3.939,8.324,8.324,0,0,0-2.945-2.715,8.7,8.7,0,0,0-4.286-1.012H647.84Q645.912,247.876,644.412,247.77Z"/><path class="cls-2" d="M739.051,319.2l-10.859-9.475a33.32,33.32,0,0,1-13.2-2.5,26.48,26.48,0,0,1-9.954-7.346,33.486,33.486,0,0,1-6.281-11.87,54.6,54.6,0,0,1-2.183-16.181,56.843,56.843,0,0,1,2.076-16.076,32.791,32.791,0,0,1,6.175-11.923,26.7,26.7,0,0,1,10.007-7.452,37.109,37.109,0,0,1,27.2.054,26.638,26.638,0,0,1,10.007,7.5,33.28,33.28,0,0,1,6.121,11.923,56.377,56.377,0,0,1,2.076,15.969,61.955,61.955,0,0,1-1.011,11.443,41.921,41.921,0,0,1-2.981,9.688,26.544,26.544,0,0,1-4.791,7.292,16.247,16.247,0,0,1-6.44,4.259l2.767,1.916q7.239,5,13.414,5a13.414,13.414,0,0,1-3.247,8.782q-3.033,3.354-8.464,3.354Q744.267,323.568,739.051,319.2Zm-10.646-72.285q-14.371,0-14.372,24.912,0,24.806,14.372,24.8,14.159,0,14.159-24.8Q742.564,246.918,728.405,246.918Z"/><path class="cls-2" d="M835.074,257.884a20.621,20.621,0,0,1-1.064,6.653,22.107,22.107,0,0,1-2.822,5.642,20.106,20.106,0,0,1-4.152,4.365,18.8,18.8,0,0,1-4.95,2.821q5.534,2.024,8.2,9.794l3.195,9.049a15.551,15.551,0,0,0,5.322,7.878,11.945,11.945,0,0,1-4.79,3.566,16.93,16.93,0,0,1-7.027,1.437,7.951,7.951,0,0,1-5.962-2.182q-2.129-2.181-3.938-7.612l-3.833-11.178a11.6,11.6,0,0,0-3.14-4.9q-1.971-1.7-5.909-1.7h-4.364v26.614a47.364,47.364,0,0,1-8.517.639,45.527,45.527,0,0,1-8.41-.639V235.954l.745-.746q9.263-.211,15.6-.319t9.954-.107a36.945,36.945,0,0,1,10.646,1.438A22.086,22.086,0,0,1,828,240.531a19.4,19.4,0,0,1,5.216,7.239A25.607,25.607,0,0,1,835.074,257.884Zm-35.237-10.433v20.972q4.789,0,8.2-.16a12.8,12.8,0,0,0,5.483-1.284,7.476,7.476,0,0,0,3.14-3.157,13,13,0,0,0,1.065-5.885q0-10.38-10.007-10.38H803.3Q801.325,247.557,799.837,247.451Z"/><path class="cls-2" d="M852.532,301.851a18.533,18.533,0,0,1,2.183-7.027,19.918,19.918,0,0,1,4.418-5.748Q870.524,296,880.743,296q4.473,0,6.548-2.022a6.706,6.706,0,0,0,2.075-5q0-5-6.706-7.878L870.1,275.769a31.414,31.414,0,0,1-11.285-7.932,17.518,17.518,0,0,1-3.939-11.763,20.152,20.152,0,0,1,1.97-8.943,21.135,21.135,0,0,1,5.536-7.026,26.021,26.021,0,0,1,8.463-4.631,33.873,33.873,0,0,1,10.859-1.65,53.466,53.466,0,0,1,24.059,6.068q-.534,8.2-5.748,12.775-10.86-5.214-19.163-5.216-4.259,0-6.387,1.916a5.748,5.748,0,0,0-2.13,4.365q0,4.152,6.281,6.706l12.776,5.43q8.088,3.408,12.082,8.729a20.019,20.019,0,0,1,3.992,12.349,22.676,22.676,0,0,1-1.81,9.156,19.668,19.668,0,0,1-5.376,7.186,25.554,25.554,0,0,1-8.888,4.737,41.033,41.033,0,0,1-12.456,1.7A48.919,48.919,0,0,1,852.532,301.851Z"/><path class="cls-2" d="M956.434,249.58l.106,7.863v50.688a49.727,49.727,0,0,1-8.569.639,46.034,46.034,0,0,1-8.358-.639V249.58l-6.813.107H921.835a40.131,40.131,0,0,1,0-14.266h52.59a23.4,23.4,0,0,1,.851,6.759q0,3.966-2.129,5.737t-6.813,1.77h-3.087l-6.707-.107Z"/><path class="cls-2" d="M1050.328,235.421V281.3q0,13.629-7.438,21.026t-21.251,7.4q-13.817,0-21.307-7.4t-7.49-21.026V235.421l.745-.745h6.281q10.111,0,10.113,10.859v35.982q0,7.454,2.662,11.071t9.048,3.62q6.389,0,9.049-3.62t2.661-11.071v-46.1a45.7,45.7,0,0,1,8.464-.639A46.763,46.763,0,0,1,1050.328,235.421Z"/><path class="cls-2" d="M1101.853,293.866l13.945-58.445a27.971,27.971,0,0,1,6.6-.639,26.135,26.135,0,0,1,8.73,1.172l.639.851-19.908,71.326a116.312,116.312,0,0,1-12.189.639q-6.123,0-8.836-1.543t-4.1-6.122l-17.672-64.193q5.749-2.448,9.475-2.449,4.473,0,6.6,2.023a13.5,13.5,0,0,1,3.3,6.387l8.2,30.34q1.916,7.134,4.046,19.375C1100.822,293.44,1101.214,293.866,1101.853,293.866Z"/><path class="cls-2" d="M1157.422,301.105l-12.563-64.726a26.252,26.252,0,0,1,9.049-1.916q4.473,0,6.494,1.97t2.874,7.4l4.472,27.466q2.021,12.351,2.555,17.246a40.525,40.525,0,0,0,.692,5.11c.107.143.336.213.692.213l8.835-57.061a62.484,62.484,0,0,1,10.965-.745,60.6,60.6,0,0,1,10.86.745l8.091,55.677a1.887,1.887,0,0,0,.372,1.171,1.249,1.249,0,0,0,.8.213q.959-10,3.194-22.675l5.962-35.77a35.446,35.446,0,0,1,7.132-.639,28.807,28.807,0,0,1,8.624,1.172l.745.958-14.053,71.113a121.875,121.875,0,0,1-12.987.745q-6.069,0-8.623-1.49t-3.3-6.175l-3.619-23.1q-1.917-12.561-3.087-24.7h-.746q-1.173,10.327-3.513,24.7l-4.791,30.021a129.631,129.631,0,0,1-13.148.745q-5.907,0-8.462-1.49T1157.422,301.105Z"/><path class="cls-2" d="M1296.135,235.421a31.755,31.755,0,0,1,7.133-.639,23.763,23.763,0,0,1,8.836,1.491l.425.745-20.013,32.9,22.249,35.557q-5.645,3.727-10.114,3.726-4.686,0-7.132-1.49a16.692,16.692,0,0,1-4.9-5.217L1281.551,284.6,1267.6,308.131a32.992,32.992,0,0,1-7.345.639,26.882,26.882,0,0,1-8.943-1.49l-.425-.852,21.93-35.77-20.227-32.575q5.64-3.726,10.113-3.727,4.684,0,7.08,1.491a16.11,16.11,0,0,1,4.737,5.216l9.369,15.117Z"/><path class="cls-2" d="M1361.147,253.413l7.166-17.992a32.206,32.206,0,0,1,7.084-.639,22.755,22.755,0,0,1,8.039,1.278l.74.852-20.654,48.863v22.356a56.362,56.362,0,0,1-16.926,0V285.35l-20.546-47.906a18.379,18.379,0,0,1,9.316-2.875q4.447,0,6.4,1.544a12.465,12.465,0,0,1,3.441,5.27l5.134,12.668a106.733,106.733,0,0,1,4.811,15.223h.643A133.276,133.276,0,0,1,1361.147,253.413Z"/><path class="cls-2" d="M1400.676,291.531l23.633-32.393a92.093,92.093,0,0,1,8.623-10.516l-.32-.32a131.63,131.63,0,0,1-16.5.959h-15.222a23.681,23.681,0,0,1-.639-5.909,31.7,31.7,0,0,1,1.171-7.931h47.16q2.342,8.838,2.342,11.231a9.2,9.2,0,0,1-1.916,5.157l-23.74,32.5a88.471,88.471,0,0,1-8.3,9.984l.319.319q10.644-.743,15.968-.745h5.962a29.114,29.114,0,0,0,11.923-2.449,26.365,26.365,0,0,1,1.172,7.92,7.678,7.678,0,0,1-3.035,6.489,13.133,13.133,0,0,1-8.144,2.3h-40.666q-1.916-8.583-1.917-11.1A9.663,9.663,0,0,1,1400.676,291.531Z"/><path class="cls-2" d="M463.738,350.927a25.4,25.4,0,0,1,34.845,0,25.92,25.92,0,0,1,6.055,12.083,98.91,98.91,0,0,1,0,34.173,25.906,25.906,0,0,1-6.055,12.083,25.392,25.392,0,0,1-34.845,0,25.877,25.877,0,0,1-6.054-12.083,98.845,98.845,0,0,1,0-34.173A25.891,25.891,0,0,1,463.738,350.927Zm11.315,48.457a6.02,6.02,0,0,0,6.108,4.027,6.514,6.514,0,0,0,4.019-1.166,7.8,7.8,0,0,0,2.464-3.868,29.835,29.835,0,0,0,1.232-7.152q.321-4.452.322-11.128t-.322-11.127a29.835,29.835,0,0,0-1.232-7.152,7.8,7.8,0,0,0-2.464-3.869,6.521,6.521,0,0,0-4.019-1.166,6.766,6.766,0,0,0-4.074,1.166,7.327,7.327,0,0,0-2.463,3.869,32,32,0,0,0-1.18,7.152q-.323,4.452-.321,11.127Q473.123,394.509,475.053,399.384Z"/><path class="cls-2" d="M543.492,401.069l-.106-7.878V379.245q0-1.6.319-6.068t.426-6.281a38.853,38.853,0,0,1-14.159,9.794,11.282,11.282,0,0,1-4.471-3.779,12.439,12.439,0,0,1-2.449-5.8q14.9-9.261,20.866-21.5a45.82,45.82,0,0,1,7.931-.638,42.215,42.215,0,0,1,7.718.638v47.587l-.107,7.878,7.239-.107h5.749a27.67,27.67,0,0,1,0,13.627H528.056a28.318,28.318,0,0,1-.852-6.92,25.829,25.829,0,0,1,.852-6.707h8.623Z"/><path class="cls-2" d="M639.2,400.43q0,7.3-2.187,10.78t-8.375,3.485H596.84a25.562,25.562,0,0,1-3.9-4.88,10.2,10.2,0,0,1-1.867-5.308,15.054,15.054,0,0,1,3.034-8.794,59.655,59.655,0,0,1,9.209-10.124l11.5-10.389q5.641-5.11,5.643-10.114a7.686,7.686,0,0,0-1.97-5.429,7.1,7.1,0,0,0-5.482-2.129,7.62,7.62,0,0,0-5.856,2.715,15.958,15.958,0,0,0-3.512,6.653,19.281,19.281,0,0,1-6.76-1.277,14.669,14.669,0,0,1-2.982-1.544A7.165,7.165,0,0,1,591.823,362a25.5,25.5,0,0,1,3.2-7.239,23.8,23.8,0,0,1,5.122-5.7,22.631,22.631,0,0,1,6.883-3.726,26.453,26.453,0,0,1,8.589-1.33,23.68,23.68,0,0,1,8.59,1.543,20.6,20.6,0,0,1,6.937,4.365,19.865,19.865,0,0,1,4.587,6.813,22.725,22.725,0,0,1,1.656,8.783,20.63,20.63,0,0,1-3.313,11.178,46.211,46.211,0,0,1-9.4,10.007l-7.693,6.338q-7.376,6.232-8.656,8.566,4.595-.531,8.6-.851t7.638-.32Z"/><path class="cls-2" d="M700.433,362.212l-8.138,8.3q-.529.534-1.267,1.171t-1.8,1.49a19.874,19.874,0,0,1,12.484,6.334q4.761,5.269,4.763,13.68a22.08,22.08,0,0,1-2.02,9.581,21.439,21.439,0,0,1-5.522,7.239,24.918,24.918,0,0,1-8.179,4.578,30.366,30.366,0,0,1-9.879,1.6q-14.343,0-22.732-7.771a14.508,14.508,0,0,1,2.342-5.8,19.745,19.745,0,0,1,4.577-4.95,21.6,21.6,0,0,0,13.734,5.216q5.109,0,7.93-2.874a10.327,10.327,0,0,0,2.822-7.558,9.212,9.212,0,0,0-.852-4.152,8.762,8.762,0,0,0-2.182-2.821,8.659,8.659,0,0,0-3.087-1.65,12.235,12.235,0,0,0-3.567-.532,10.776,10.776,0,0,0-5.429,1.277,9.851,9.851,0,0,1-3.78-3.567,16.05,16.05,0,0,1-2.394-5.376l9.732-10.113q1.8-1.916,3.65-3.566t3.545-3.034l-.425-.639a41.193,41.193,0,0,1-10.28,1.277H661.659a19.492,19.492,0,0,1-1.064-6.6,22.328,22.328,0,0,1,.319-3.779,15.31,15.31,0,0,1,1.065-3.567h38.333q3.289,5.858,3.292,9.688A9.7,9.7,0,0,1,700.433,362.212Z"/><path class="cls-2" d="M766.093,402.453l.106,7.665v4.471a47.1,47.1,0,0,1-8.143.639,43.454,43.454,0,0,1-7.932-.639v-4.471l.106-7.665-7.877.106h-15.33q-3.513-5.534-3.513-9.315a18.244,18.244,0,0,1,1.916-7.825l17.139-40.666a23.451,23.451,0,0,1,8.517.319q4.791.959,6.6,3.088L750.55,365.3q-6.813,16.823-11.6,23.74l.32.532q3.831-.423,10.858-.638v-5.642q0-6.174,3.034-9.688a10.587,10.587,0,0,1,8.464-3.513h3.832l.745.639v10.326l-.106,7.771,6.068-.106h2.874a39.57,39.57,0,0,1,.426,6.334,26.107,26.107,0,0,1-1.065,7.4Z"/><path class="cls-2" d="M836.354,345.6a19.641,19.641,0,0,1,1.172,6.814q0,6.921-7.026,6.919H812.189v2.875l-.425,5-.32,1.81a24.626,24.626,0,0,1,5.748-.639q10.86,0,16.821,6.175t5.962,16.5a26.021,26.021,0,0,1-2.077,10.646,22.8,22.8,0,0,1-5.641,7.877,24.762,24.762,0,0,1-8.41,4.9,30.771,30.771,0,0,1-10.274,1.7q-13.2,0-21.292-7.346a13.071,13.071,0,0,1,.853-2.821,22.274,22.274,0,0,1,1.543-3.034,22.669,22.669,0,0,1,2.022-2.821,13.136,13.136,0,0,1,2.289-2.183,27.4,27.4,0,0,0,6.92,3.673,19.039,19.039,0,0,0,6.069,1.118q5.214,0,8.143-3.124a11.091,11.091,0,0,0,2.928-7.893q0-5.085-3.034-7.839a10.614,10.614,0,0,0-7.4-2.755,14.6,14.6,0,0,0-4.631.8,17.5,17.5,0,0,0-4.737,2.5,14.6,14.6,0,0,1-4.578-2.222,13.467,13.467,0,0,1-3.726-3.633l1.916-32.15.852-.852Z"/><path class="cls-2" d="M884.26,416.186q-25.444,0-25.444-35.451a55.576,55.576,0,0,1,1.97-15.436,33.516,33.516,0,0,1,5.7-11.55,24.713,24.713,0,0,1,9.1-7.24,28.852,28.852,0,0,1,12.3-2.5q10.218,0,17.459,3.726-.536,7.24-5.323,11.391A29.3,29.3,0,0,0,889.264,357q-12.353,0-13.2,15.542a22.981,22.981,0,0,1,13.947-4.365,18.99,18.99,0,0,1,7.452,1.438,15.539,15.539,0,0,1,5.854,4.311,20.027,20.027,0,0,1,3.78,7.239,35.226,35.226,0,0,1,1.331,10.22,27.6,27.6,0,0,1-1.864,10.38,22.307,22.307,0,0,1-5.163,7.824,22.819,22.819,0,0,1-7.665,4.9A25.844,25.844,0,0,1,884.26,416.186Zm.532-34.706a13.556,13.556,0,0,0-8.73,3.3v1.064a48.981,48.981,0,0,0,.639,8.676,19.2,19.2,0,0,0,1.757,5.537,7.367,7.367,0,0,0,2.661,2.98,6.506,6.506,0,0,0,3.354.9q7.558,0,7.558-11.178Q892.031,381.482,884.792,381.48Z"/><path class="cls-2" d="M928.761,345.6h43.746q2.987,6.389,2.987,9.688a11.7,11.7,0,0,1-2.235,6.6l-4.153,5.748a82.093,82.093,0,0,0-15.222,42.051l-.426,4.9a45.761,45.761,0,0,1-8.249.639,53.414,53.414,0,0,1-8.678-.639l.427-5.11a84.12,84.12,0,0,1,5.027-22.888,71.164,71.164,0,0,1,9.946-18.524l1.388-1.81a46.668,46.668,0,0,1,6.845-7.558l-.533-.532a65.721,65.721,0,0,1-14.74,1.383H928.015a20.389,20.389,0,0,1-.852-6.387A19.015,19.015,0,0,1,928.761,345.6Z"/><path class="cls-2" d="M992.313,397.023q0-10.751,11.5-17.778-9.8-6.281-9.794-16.394a15.935,15.935,0,0,1,1.809-7.506,18.289,18.289,0,0,1,5-5.961,24.632,24.632,0,0,1,7.559-3.939,30.127,30.127,0,0,1,9.474-1.437,31.59,31.59,0,0,1,9.581,1.384,21.935,21.935,0,0,1,7.4,3.885,17.785,17.785,0,0,1,4.737,6.015,17.6,17.6,0,0,1,1.7,7.771q0,8.732-9.9,14.266a25.835,25.835,0,0,1,9.022,8.25,19.739,19.739,0,0,1,2.9,10.7,16.79,16.79,0,0,1-2.028,8.251,19.232,19.232,0,0,1-5.6,6.281,26.509,26.509,0,0,1-8.374,3.992,37.283,37.283,0,0,1-10.348,1.384,36.152,36.152,0,0,1-10.188-1.331,23.415,23.415,0,0,1-7.735-3.779,16.881,16.881,0,0,1-4.961-6.015A17.91,17.91,0,0,1,992.313,397.023Zm25.018-11.6-2.661-.958q-5.75,5.005-5.749,11.6a8.472,8.472,0,0,0,2.395,6.175,8.6,8.6,0,0,0,6.441,2.448,8.247,8.247,0,0,0,6.334-2.448,8.55,8.55,0,0,0,2.289-6.068Q1026.38,388.933,1017.331,385.419Zm-7.133-22.675a7,7,0,0,0,2.183,5.216,19.384,19.384,0,0,0,6.653,3.833l1.385.532q5-3.724,5-9.155a7.18,7.18,0,0,0-2.129-5.376,8.358,8.358,0,0,0-10.965-.053A6.622,6.622,0,0,0,1010.2,362.744Z"/><path class="cls-2" d="M1084.187,344.008q25.441,0,25.443,35.45a55.611,55.611,0,0,1-1.97,15.437,33.516,33.516,0,0,1-5.7,11.55,24.584,24.584,0,0,1-9.155,7.239,28.944,28.944,0,0,1-12.243,2.5q-10.22,0-17.459-3.726.533-7.239,5.323-11.391a29.28,29.28,0,0,0,10.753,2.129q12.346,0,13.093-15.436-5.537,4.258-13.839,4.258a17.082,17.082,0,0,1-13.254-5.695q-5.165-5.694-5.163-17.406a27.9,27.9,0,0,1,1.863-10.486,22.289,22.289,0,0,1,5.163-7.825,22.709,22.709,0,0,1,7.719-4.9A25.977,25.977,0,0,1,1084.187,344.008Zm-.533,34.705a13.553,13.553,0,0,0,8.73-3.3v-1.065a49.021,49.021,0,0,0-.639-8.676,19.2,19.2,0,0,0-1.757-5.536,7.384,7.384,0,0,0-2.661-2.981,6.527,6.527,0,0,0-3.353-.9q-7.56,0-7.559,11.285Q1076.415,378.713,1083.654,378.713Z"/><path class="cls-2" d="M456.967,77.677a4.615,4.615,0,0,1,.545-1.756,4.975,4.975,0,0,1,1.1-1.438,10.468,10.468,0,0,0,5.4,1.73,2.272,2.272,0,0,0,1.636-.5,1.677,1.677,0,0,0,.519-1.251q0-1.251-1.677-1.97l-3.14-1.33a7.852,7.852,0,0,1-2.821-1.983,4.378,4.378,0,0,1-.985-2.941A5.026,5.026,0,0,1,458.045,64a5.272,5.272,0,0,1,1.384-1.757,6.492,6.492,0,0,1,2.115-1.158,8.491,8.491,0,0,1,2.715-.412,13.351,13.351,0,0,1,6.014,1.517,4.426,4.426,0,0,1-1.436,3.193,11.344,11.344,0,0,0-4.791-1.3,2.319,2.319,0,0,0-1.6.479,1.435,1.435,0,0,0-.532,1.09q0,1.039,1.57,1.677l3.194,1.358a7.113,7.113,0,0,1,3.02,2.182,5,5,0,0,1,1,3.087,5.658,5.658,0,0,1-.452,2.289,4.926,4.926,0,0,1-1.344,1.8,6.39,6.39,0,0,1-2.222,1.184,10.273,10.273,0,0,1-3.114.426A12.221,12.221,0,0,1,456.967,77.677Z"/><path class="cls-2" d="M483.1,69.028v10.22a9.873,9.873,0,0,1-.986.119q-.531.04-1.091.04t-1.1-.04a9.848,9.848,0,0,1-1-.119v-8.81q0-1.543-1.251-1.543h-.4a4.912,4.912,0,0,1-.159-1.411,6,6,0,0,1,.159-1.49q.693-.054,1.278-.094c.39-.026.746-.04,1.065-.04h.585a2.731,2.731,0,0,1,2.129.852A3.319,3.319,0,0,1,483.1,69.028Zm-4.659-8.41a4.114,4.114,0,0,1,2-.426,3.718,3.718,0,0,1,1.944.426,3.894,3.894,0,0,1,0,3.087,4.417,4.417,0,0,1-2.023.4,3.764,3.764,0,0,1-1.917-.4,3.894,3.894,0,0,1,0-3.087Z"/><path class="cls-2" d="M499.655,66.819a3.35,3.35,0,0,1,2.5-1.065,3.355,3.355,0,0,1,.812.958,3.251,3.251,0,0,1,.466,1.171,2.16,2.16,0,0,0-.746,1.916v7.027a17.831,17.831,0,0,1-.385,4.058,6.238,6.238,0,0,1-1.171,2.555,4.116,4.116,0,0,1-1.984,1.318,9.544,9.544,0,0,1-2.821.372,13.728,13.728,0,0,1-5-.878,5.172,5.172,0,0,1,.293-1.624,4.176,4.176,0,0,1,.719-1.383,8.776,8.776,0,0,0,3.619.8,2.376,2.376,0,0,0,2.688-2.688v-.878a5.1,5.1,0,0,1-3.034,1.038,3.988,3.988,0,0,1-3.58-1.877,9.315,9.315,0,0,1-1.211-5.1,9.559,9.559,0,0,1,.413-2.915,6.841,6.841,0,0,1,1.131-2.2,5.012,5.012,0,0,1,1.663-1.384,4.389,4.389,0,0,1,2.01-.479A5.375,5.375,0,0,1,499.655,66.819Zm-1.011,8.436V69.56a2.666,2.666,0,0,0-1.77-.905q-1.824,0-1.823,3.992,0,3.513,1.582,3.513A2.8,2.8,0,0,0,498.644,75.255Z"/><path class="cls-2" d="M522.6,70.465v5.456a4.481,4.481,0,0,0,.638,2.635,3.507,3.507,0,0,1-2.422.9,2.3,2.3,0,0,1-1.889-.638,3.1,3.1,0,0,1-.506-1.943V71.21a2.824,2.824,0,0,0-.239-1.331.976.976,0,0,0-.932-.425,2.343,2.343,0,0,0-.9.213,3.752,3.752,0,0,0-1.038.691v8.89a9.873,9.873,0,0,1-.986.119c-.354.027-.718.04-1.09.04s-.737-.013-1.091-.04a9.873,9.873,0,0,1-.986-.119V65.967l.187-.186h1.57a2.147,2.147,0,0,1,2.183,1.6,5.632,5.632,0,0,1,3.7-1.649,3.329,3.329,0,0,1,2.834,1.29A5.6,5.6,0,0,1,522.6,70.465Z"/><path class="cls-2" d="M535.824,69.028v10.22a9.887,9.887,0,0,1-.985.119c-.355.027-.718.04-1.091.04s-.741-.013-1.1-.04a9.779,9.779,0,0,1-1-.119v-8.81q0-1.543-1.251-1.543H530a4.912,4.912,0,0,1-.159-1.411,6,6,0,0,1,.159-1.49q.693-.054,1.277-.094c.391-.026.747-.04,1.066-.04h.585a2.731,2.731,0,0,1,2.129.852A3.323,3.323,0,0,1,535.824,69.028Zm-4.658-8.41a4.114,4.114,0,0,1,2-.426,3.712,3.712,0,0,1,1.943.426,3.882,3.882,0,0,1,0,3.087,4.409,4.409,0,0,1-2.022.4,3.762,3.762,0,0,1-1.917-.4,3.894,3.894,0,0,1,0-3.087Z"/><path class="cls-2" d="M554.48,73.951l.666,1.943a4.17,4.17,0,0,0,1.278,2.262,3.633,3.633,0,0,1-2.795,1.3,1.913,1.913,0,0,1-1.331-.412,3.431,3.431,0,0,1-.8-1.45l-.8-2.289a2.374,2.374,0,0,0-.612-1.105,1.442,1.442,0,0,0-.932-.279c-.389,0-.665.009-.824.026v5.3a12.949,12.949,0,0,1-4.046,0v-19.4l.187-.186h1.6a2.3,2.3,0,0,1,1.757.558,2.9,2.9,0,0,1,.506,1.943v8.357h.426a.822.822,0,0,0,.745-.479l1.384-2.662a2.458,2.458,0,0,1,2.341-1.517q.773,0,2.316.054l.16.213-2.05,3.965a4.214,4.214,0,0,1-1.357,1.571A3.513,3.513,0,0,1,554.48,73.951Z"/><path class="cls-2" d="M574.813,77.332a4.45,4.45,0,0,1-.5,1.2,3.023,3.023,0,0,1-.773.931,3.5,3.5,0,0,1-2.874-1.41,5.441,5.441,0,0,1-3.753,1.6,4.538,4.538,0,0,1-1.809-.333,3.9,3.9,0,0,1-1.3-.892,3.653,3.653,0,0,1-.8-1.29,4.429,4.429,0,0,1-.266-1.53,4.608,4.608,0,0,1,.413-2.01,4.027,4.027,0,0,1,1.13-1.437,5.007,5.007,0,0,1,1.677-.865A6.982,6.982,0,0,1,568,71c.407,0,.767,0,1.077.013s.581.023.813.04v-.511a1.516,1.516,0,0,0-1.731-1.7,15.62,15.62,0,0,0-3.912.879,5.315,5.315,0,0,1-1.012-2.9q.639-.24,1.424-.453t1.611-.372q.824-.16,1.624-.253a12.533,12.533,0,0,1,1.436-.094,6.094,6.094,0,0,1,1.8.267,4.307,4.307,0,0,1,1.517.812,3.849,3.849,0,0,1,1.038,1.41,5.057,5.057,0,0,1,.385,2.063v5.4A1.941,1.941,0,0,0,574.813,77.332Zm-8.037-2q0,1.251,1.438,1.251a2.768,2.768,0,0,0,1.677-.772V73.685q-.534-.027-.892-.04c-.24-.008-.422-.013-.546-.013A1.494,1.494,0,0,0,566.776,75.335Z"/></svg>