<svg xmlns="http://www.w3.org/2000/svg" width="140.642" height="64" viewBox="0 0 140.642 64"><defs><style>.cls-1{fill:#fff;}</style></defs><title>logo_2</title><g id="Layer_2" data-name="Layer 2"><g id="Layer_1-2" data-name="Layer 1"><path class="cls-1" d="M49.471,56.972a2.887,2.887,0,0,1,.3-.707,1.939,1.939,0,0,1,.445-.565,2.252,2.252,0,0,1,2.036,1.447,2.054,2.054,0,0,1,1.987-1.431,5.555,5.555,0,0,1,1.049.128,4.938,4.938,0,0,1-.167,1.168,4.165,4.165,0,0,1-.453,1.153,3.947,3.947,0,0,0-.811-.159,1.5,1.5,0,0,0-1.3.811v4.945a7.04,7.04,0,0,1-1.233.095,7.322,7.322,0,0,1-1.248-.095V58.626A1.965,1.965,0,0,0,49.471,56.972Z"/><path class="cls-1" d="M62.124,60.6H57.99a1.781,1.781,0,0,0,.364,1.1,1.36,1.36,0,0,0,1.093.393,4.285,4.285,0,0,0,.879-.107,8.234,8.234,0,0,0,1.148-.354,2.534,2.534,0,0,1,.65,1.463A5.234,5.234,0,0,1,59.007,64a3.929,3.929,0,0,1-1.677-.318,2.835,2.835,0,0,1-1.1-.89,3.557,3.557,0,0,1-.6-1.352,7.736,7.736,0,0,1-.175-1.7,6.009,6.009,0,0,1,.214-1.646,3.769,3.769,0,0,1,.652-1.311,3.042,3.042,0,0,1,1.113-.875,3.683,3.683,0,0,1,1.582-.318,3.552,3.552,0,0,1,1.376.255,2.974,2.974,0,0,1,1.7,1.764,3.869,3.869,0,0,1,.23,1.352A5.6,5.6,0,0,1,62.124,60.6Zm-4.15-1.718h2.083v-.175a1.685,1.685,0,0,0-.26-.969.883.883,0,0,0-.782-.382.844.844,0,0,0-.749.358A2.387,2.387,0,0,0,57.974,58.88Z"/><path class="cls-1" d="M66.434,57.656v6.106q-.272.046-.588.071t-.652.024q-.335,0-.66-.024t-.6-.071V58.5q0-.923-.748-.922h-.238a2.915,2.915,0,0,1-.095-.843,3.556,3.556,0,0,1,.095-.89c.275-.022.53-.04.763-.056s.445-.024.636-.024h.35a1.632,1.632,0,0,1,1.272.509A1.983,1.983,0,0,1,66.434,57.656Zm-2.783-5.024a2.466,2.466,0,0,1,1.193-.254,2.227,2.227,0,0,1,1.161.254,2.332,2.332,0,0,1,0,1.844,2.639,2.639,0,0,1-1.209.239,2.248,2.248,0,0,1-1.145-.239,2.332,2.332,0,0,1,0-1.844Z"/><path class="cls-1" d="M67.8,61.631l1.876-2.512a16.592,16.592,0,0,1,1.288-1.495l-.048-.079a18.815,18.815,0,0,1-1.971.127H67.722a3.313,3.313,0,0,1-.1-.811,4.619,4.619,0,0,1,.143-1.033H73.3a4.991,4.991,0,0,1,.334,1.367,1.228,1.228,0,0,1-.238.731l-1.956,2.592a14.979,14.979,0,0,1-1.192,1.431l.047.079a9.492,9.492,0,0,1,1.256-.095h.557a3.349,3.349,0,0,0,1.478-.27,2.8,2.8,0,0,1,.255,1q0,1.1-1.32,1.1h-4.8a3.9,3.9,0,0,1-.271-1.233A1.406,1.406,0,0,1,67.8,61.631Z"/><path class="cls-1" d="M81.014,60.6H76.88a1.781,1.781,0,0,0,.364,1.1,1.358,1.358,0,0,0,1.093.393,4.285,4.285,0,0,0,.879-.107,8.234,8.234,0,0,0,1.148-.354,2.54,2.54,0,0,1,.65,1.463A5.236,5.236,0,0,1,77.9,64a3.926,3.926,0,0,1-1.677-.318,2.835,2.835,0,0,1-1.1-.89,3.557,3.557,0,0,1-.6-1.352,7.736,7.736,0,0,1-.175-1.7,6.009,6.009,0,0,1,.214-1.646,3.769,3.769,0,0,1,.652-1.311,3.042,3.042,0,0,1,1.113-.875,3.683,3.683,0,0,1,1.582-.318,3.543,3.543,0,0,1,1.375.255,2.972,2.972,0,0,1,1.7,1.764,3.869,3.869,0,0,1,.23,1.352A5.634,5.634,0,0,1,81.014,60.6Zm-4.15-1.718h2.083v-.175a1.678,1.678,0,0,0-.261-.969.881.881,0,0,0-.781-.382.844.844,0,0,0-.749.358A2.376,2.376,0,0,0,76.864,58.88Z"/><path class="cls-1" d="M89.257,58.515v3.259a2.667,2.667,0,0,0,.382,1.574,2.094,2.094,0,0,1-1.447.541,1.375,1.375,0,0,1-1.129-.382,1.854,1.854,0,0,1-.3-1.161V58.96a1.693,1.693,0,0,0-.143-.8.582.582,0,0,0-.556-.254,1.408,1.408,0,0,0-.541.127,2.243,2.243,0,0,0-.62.413v5.311q-.271.046-.588.071t-.652.024q-.334,0-.652-.024t-.588-.071V55.828l.111-.112h.938a1.283,1.283,0,0,1,1.3.954,3.361,3.361,0,0,1,2.21-.985,1.989,1.989,0,0,1,1.693.771A3.341,3.341,0,0,1,89.257,58.515Z"/><path class="cls-1" d="M26.194,40.7H12.176L9.788,48.492a1.885,1.885,0,0,1-.52.919,1.91,1.91,0,0,1-1.194.307H.912c-.45,0-.725-.148-.827-.393a1.379,1.379,0,0,1-.03-.869l12.733-38.39a6.957,6.957,0,0,1,.7-1.686,3.389,3.389,0,0,1,2.143-1.575,7.568,7.568,0,0,1,1.622-.195H20.93a13.814,13.814,0,0,1,1.775.133,2.971,2.971,0,0,1,1.286.48,3.2,3.2,0,0,1,.949,1.051,9.57,9.57,0,0,1,.765,1.781L38.438,48.441a1.419,1.419,0,0,1,0,.822c-.082.286-.347.455-.8.455H30.357a3.559,3.559,0,0,1-1.132-.178,1.119,1.119,0,0,1-.643-.852ZM14.38,33.258h9.611l-2.327-7.836L19.4,16.6h-.367l-2.326,8.819Z"/><path class="cls-1" d="M108.453,45.015a26.172,26.172,0,0,1-.961,7.469,15.943,15.943,0,0,1-2.562,5.172,13.521,13.521,0,0,1-3.776,3.4,22.85,22.85,0,0,1-4.535,2.081,2.717,2.717,0,0,1-1.288.215c-.245-.062-.451-.3-.614-.7L92.7,57.381c-.2-.531-.245-.888-.122-1.071a2.512,2.512,0,0,1,.857-.643,13.667,13.667,0,0,0,3-1.959A8.782,8.782,0,0,0,98.3,51.382a8.633,8.633,0,0,0,.923-2.816,22.517,22.517,0,0,0,.219-3.49V18.631a1.029,1.029,0,0,1,.3-.861,1.7,1.7,0,0,1,.974-.187h6.428c.571,0,.961.044,1.083.187a1.316,1.316,0,0,1,.227.861Z"/><path class="cls-1" d="M140.642,45.688a3.677,3.677,0,0,1-.254,1.347,2.337,2.337,0,0,1-1.087,1.041,17.213,17.213,0,0,1-3.035,1.1,29.451,29.451,0,0,1-3.3.673q-1.68.245-3.392.367t-3.239.123a24.946,24.946,0,0,1-6.873-.8,12,12,0,0,1-4.368-2.173,7.481,7.481,0,0,1-2.321-3.245,12.366,12.366,0,0,1,.124-8.386,9.391,9.391,0,0,1,2.387-3.459,11.121,11.121,0,0,1,4.01-2.3,17.73,17.73,0,0,1,5.724-.834h6.809V28.18a7.351,7.351,0,0,0-.221-1.652,2.852,2.852,0,0,0-.784-1.378,4.338,4.338,0,0,0-1.632-.949,8.516,8.516,0,0,0-2.76-.367c-.612,0-1.309.031-2.083.092s-1.553.143-2.328.245-1.531.224-2.265.367-1.389.3-1.96.459a1.627,1.627,0,0,1-1.1,0,1.134,1.134,0,0,1-.428-.8l-.98-4.285a1.368,1.368,0,0,1-.03-.949,1.164,1.164,0,0,1,.642-.459,29.693,29.693,0,0,1,5.785-1.408,43.126,43.126,0,0,1,6.03-.428c4.437,0,7.727.948,9.794,2.846s3.14,4.7,3.14,8.418Zm-9.014-10.666h-4.777a15.346,15.346,0,0,0-1.836.16,4.992,4.992,0,0,0-1.806.6,3.893,3.893,0,0,0-1.378,1.326,4.286,4.286,0,0,0-.551,2.331,3.2,3.2,0,0,0,1.439,3,7.563,7.563,0,0,0,3.887.858c.245,0,.571-.009.98-.03s.846-.061,1.316-.122.919-.143,1.409-.245a7.122,7.122,0,0,0,1.317-.4Z"/><path class="cls-1" d="M92.856,40.884l-1.711-5a8.734,8.734,0,0,0-5.4-5.668l-.7-.256.617-.418a12.1,12.1,0,0,0,3.377-3.911l4.791-8.1s-4.861-.025-6.134-.025c-2.611,0-3.921,1.114-5.5,3.572L79.013,25.99a2.62,2.62,0,0,1-2.262,1.586h-1.42V5.829a1.579,1.579,0,0,0-.2-.957,1.722,1.722,0,0,0-1.054-.222H67.715a1.929,1.929,0,0,0-1.036.253,1.126,1.126,0,0,0-.362.926V48.314c0,.775.541,1.012,1.4,1.012h6.3c.571,0,.928-.006,1.071-.17a1.3,1.3,0,0,0,.225-.88c0-.174.015-.325.015-.521V35.35c.588-.025,1.521-.037,2.242-.037a4.407,4.407,0,0,1,2.746.8,6.46,6.46,0,0,1,1.753,3.028l2.082,5.892a8.541,8.541,0,0,0,1.968,3.585,4.61,4.61,0,0,0,3.181.964,8.961,8.961,0,0,0,6.643-2.932C94.737,45.642,93.724,43.747,92.856,40.884Z"/><path class="cls-1" d="M62.047,36.506a9.131,9.131,0,0,0-2.3-2.847,14.94,14.94,0,0,0-3.4-2.081q-1.961-.887-4.163-1.745A18.733,18.733,0,0,1,48.243,28a2.384,2.384,0,0,1-1.133-2.02,2.267,2.267,0,0,1,.735-1.561,3.192,3.192,0,0,1,2.387-.766,20.562,20.562,0,0,1,3.918.368q1.9.366,4.163,1.04a1.724,1.724,0,0,0,.979.153c.2-.061.388-.315.551-.765l1.531-3.918a2.458,2.458,0,0,0,.183-1.071q-.062-.336-.734-.643a22.628,22.628,0,0,0-5.173-1.561,31.191,31.191,0,0,0-5.6-.52,16.39,16.39,0,0,0-5.3.765,10.932,10.932,0,0,0-3.7,2.051,8.228,8.228,0,0,0-2.2,3.03,9.6,9.6,0,0,0-.735,3.765,7.407,7.407,0,0,0,2.633,5.907A15.883,15.883,0,0,0,43.9,34.363a38,38,0,0,0,4.316,1.9,22.607,22.607,0,0,1,4.316,2.02,2.488,2.488,0,0,1,1.255,2.082,2.44,2.44,0,0,1-.888,1.928,4.782,4.782,0,0,1-3.091.765,14.915,14.915,0,0,1-2.2-.184q-1.226-.183-2.541-.489t-2.54-.7q-1.226-.4-2.2-.827c-.092-.041-.177-.075-.26-.1l2.85,8.493a26.585,26.585,0,0,0,7.266,1.1,15.811,15.811,0,0,0,9.213-2.449q3.519-2.448,3.52-7.407A8.554,8.554,0,0,0,62.047,36.506Z"/><path class="cls-1" d="M107.674,13.373a.675.675,0,0,0,.679-.665c0-2.943.415-8.147,2.174-10.484.7-.926,1.347-1.462,1.283-1.916-.1-.68-2.365-.034-2.632.041-3.576,1.006-9.16,3.507-9.49,12.234a.708.708,0,0,0,.673.79Z"/></g></g></svg>